<svg xmlns="http://www.w3.org/2000/svg" width="200" height="200" viewBox="0 0 200 200">
  <g id="Group_249" data-name="Group 249" transform="translate(6712 153)">
    <circle id="Ellipse_352" data-name="Ellipse 352" cx="100" cy="100" r="100" transform="translate(-6712 -153)" fill="#034ea1" opacity="0.036"/>
    <g id="Group_42" data-name="Group 42" transform="translate(-6906 -252)">
      <ellipse id="Ellipse_218" data-name="Ellipse 218" cx="18.958" cy="4.367" rx="18.958" ry="4.367" transform="translate(353.237 265.849)" fill="#e6e6e6"/>
      <path id="Path_1092" data-name="Path 1092" d="M708.42,137.876v5.713l2.981,7.451,4.719-8.445v-6.458Z" transform="translate(-336.473 20.677)" fill="#f2c2c9"/>
      <path id="Path_1093" data-name="Path 1093" d="M852.5,466.495l-.745,5.464s-1.739,5.961.745,5.961,2.484-6.458,2.484-6.458l.5-3.726Z" transform="translate(-493.847 -263.606)" fill="#f2c2c9"/>
      <path id="Path_1094" data-name="Path 1094" d="M973.5,463.495l-.745,5.464s-1.739,5.961.745,5.961,2.484-6.458,2.484-6.458l.5-3.726Z" transform="translate(-584.793 -261.351)" fill="#f2c2c9"/>
      <path id="Path_1095" data-name="Path 1095" d="M869.266,440.865l-1.169.323s-3.054,19.8-3.3,30.228-.745,36.761-.745,36.761H872l5.216-44.709,2.484,44.709h8.445s3.477-58.618,1.242-63.338S869.266,440.865,869.266,440.865Z" transform="translate(-503.529 -244.31)" fill="#2f2e41"/>
      <path id="Path_1096" data-name="Path 1096" d="M850.224,709.995l-2.235,3.477s-6.21,5.216-.745,4.968,7.7-2.732,7.7-2.732v.745l2.981-.994-.5-5.464Z" transform="translate(-489.206 -446.624)" fill="#2f2e41"/>
      <path id="Path_1097" data-name="Path 1097" d="M934.75,709.995l2.235,3.477s6.21,5.216.745,4.968-7.7-2.732-7.7-2.732v.745l-2.981-.994.5-5.464Z" transform="translate(-550.881 -446.624)" fill="#2f2e41"/>
      <circle id="Ellipse_219" data-name="Ellipse 219" cx="5.464" cy="5.464" r="5.464" transform="translate(369.587 148.99)" fill="#f2c2c9"/>
      <path id="Path_1098" data-name="Path 1098" d="M705.891,163.213l-2.732-5.595-1.242,2.862-.5,24.59,11.426-25.583-1.987-2.2Z" transform="translate(-331.212 4.778)" fill="#575a89"/>
      <path id="Path_1099" data-name="Path 1099" d="M898.62,313.084l-9.057-5.919s-.63,5.671-6.343,5.174-3.043-4.8-3.043-4.8l-9.128,5.053,3.477,19.374-1.49,11.177s13.413-1.49,16.393.745a12.737,12.737,0,0,0,5.961,2.484l-.5-19.125Z" transform="translate(-508.79 -143.851)" fill="#d1d1d1"/>
      <path id="Path_1100" data-name="Path 1100" d="M965.789,329.983l1.718-1.656,1.262.911s1.242,1.49,2.235,5.961.5,24.342.5,24.342l-5.464-.745.248-8.2L964.05,339.67Z" transform="translate(-578.691 -159.756)" fill="#d1d1d1"/>
      <path id="Path_1101" data-name="Path 1101" d="M859.26,327.406l-.938-.195-.8.443s-2.235,2.981-2.235,5.713-2.235,26.08-2.235,26.08l4.968,2.235,3.477-17.635Z" transform="translate(-495.261 -158.918)" fill="#d1d1d1"/>
      <path id="Path_1102" data-name="Path 1102" d="M975,450.922s-4.968-2.981-6.706-.994.994,3.974.994,3.974S976.992,456.883,975,450.922Z" transform="translate(-581.449 -250.64)" fill="#575a89"/>
      <path id="Path_1103" data-name="Path 1103" d="M853,456.922s-4.968-2.981-6.706-.994.994,3.974.994,3.974S854.992,462.883,853,456.922Z" transform="translate(-489.752 -255.15)" fill="#575a89"/>
      <path id="Path_1104" data-name="Path 1104" d="M907.792,244.214s1.429-2.732-1.715-2.981c0,0-2.858-1.739-5.145.248,0,0-2-.5-2.573.994a1.028,1.028,0,0,1,.571-1.242s-2-.5-2,1.987a7.77,7.77,0,0,0,0,4.719,9.24,9.24,0,0,0,1.143,2.484s-1.409-4.687,2.021-4.935,7.269-2.392,7.555.34.858,3.477.858,3.477S911.08,245.332,907.792,244.214Z" transform="translate(-527.956 -93.766)" fill="#2f2e41"/>
      <path id="Path_1105" data-name="Path 1105" d="M268.688,282.921h-.034c-1.27,0-2.556-.038-3.821-.113l.019-.319c1.259.075,2.538.112,3.8.112h.034Zm3.856-.117-.019-.319c1.272-.076,2.558-.192,3.822-.345l.038.318c-1.27.154-2.562.27-3.84.347Zm-11.552-.338c-1.272-.152-2.555-.345-3.814-.573l.057-.315c1.253.227,2.53.419,3.8.571Zm19.207-.586-.058-.315c1.253-.229,2.516-.5,3.752-.8l.077.311c-1.242.306-2.512.577-3.771.807Zm-26.794-.792c-1.244-.3-2.494-.652-3.717-1.031l.1-.306c1.217.378,2.461.723,3.7,1.026Zm34.281-1.052-.1-.306c1.215-.379,2.434-.8,3.626-1.253l.114.3c-1.2.456-2.424.88-3.645,1.26ZM246.033,278.8c-1.2-.454-2.4-.951-3.57-1.478l.131-.292c1.165.524,2.36,1.018,3.552,1.47Zm48.854-1.5-.132-.292c1.159-.522,2.318-1.088,3.445-1.681l.149.283c-1.132.6-2.3,1.165-3.462,1.691Zm-55.9-1.671c-1.136-.6-2.267-1.235-3.362-1.9l.166-.273c1.09.66,2.216,1.3,3.345,1.889Zm62.713-1.914-.166-.273c1.089-.66,2.172-1.361,3.219-2.085l.182.263C303.887,272.348,302.8,273.053,301.7,273.716Zm-69.315-2.081c-1.055-.729-2.1-1.5-3.108-2.289l.2-.252c1,.786,2.043,1.552,3.092,2.277Zm75.654-2.3-.2-.252c1-.789,2-1.615,2.947-2.459l.213.239c-.955.847-1.952,1.678-2.961,2.471Zm-81.726-2.459c-.959-.849-1.9-1.739-2.81-2.644l.226-.226c.9.9,1.842,1.785,2.8,2.631Zm87.495-2.658-.226-.226c.9-.9,1.788-1.842,2.633-2.795l.239.213c-.848.957-1.739,1.9-2.645,2.808Zm-92.95-2.794c-.85-.958-1.682-1.955-2.472-2.96l.252-.2c.786,1,1.614,1.992,2.459,2.945Zm98.067-2.974-.252-.2c.789-1.005,1.555-2.045,2.279-3.091l.263.182C320.493,256.392,319.723,257.438,318.93,258.448ZM216.1,255.362c-.729-1.053-1.435-2.141-2.1-3.233l.273-.166c.659,1.087,1.362,2.17,2.086,3.218Zm107.218-3.26-.273-.166c.661-1.091,1.3-2.216,1.891-3.344l.283.149C324.623,249.874,323.985,251,323.319,252.1Zm-111.214-3.327c-.6-1.132-1.165-2.3-1.691-3.461l.292-.132c.524,1.159,1.09,2.318,1.683,3.444Zm114.807-3.506-.292-.131c.526-1.167,1.021-2.361,1.472-3.552l.3.114c-.454,1.2-.952,2.4-1.48,3.569Zm-117.977-3.511c-.456-1.2-.88-2.423-1.262-3.645l.305-.1c.38,1.215.8,2.436,1.255,3.626Zm120.717-3.711-.306-.1c.379-1.217.725-2.461,1.028-3.7l.311.076c-.305,1.243-.653,2.493-1.033,3.716ZM206.637,234.4c-.307-1.242-.579-2.51-.809-3.771l.315-.058c.23,1.254.5,2.517.806,3.752Zm124.854-3.839-.315-.058c.228-1.253.42-2.529.571-3.794l.318.038c-.152,1.271-.345,2.555-.574,3.813Zm-126.243-3.745c-.154-1.27-.271-2.562-.348-3.841l.319-.019c.077,1.272.194,2.558.348,3.822Zm127.163-3.91-.319-.019c.075-1.27.114-2.561.114-3.836v-.135h.32v.135C332.526,220.33,332.487,221.627,332.411,222.9ZM205.1,219.117h-.32v-.068c0-1.26.037-2.534.11-3.787l.319.019c-.073,1.247-.11,2.515-.11,3.768Zm126.982-4.039c-.078-1.274-.2-2.56-.351-3.821l.318-.039c.155,1.268.273,2.56.353,3.841ZM205.55,211.458l-.318-.038c.152-1.272.344-2.555.571-3.814l.315.057C205.892,208.916,205.7,210.193,205.55,211.458Zm125.6-4c-.232-1.256-.5-2.518-.81-3.751l.311-.077c.307,1.239.581,2.509.814,3.77Zm-124.236-3.554-.311-.076c.3-1.242.65-2.494,1.029-3.717l.306.095c-.377,1.217-.722,2.462-1.024,3.7Zm122.39-3.892c-.381-1.216-.8-2.435-1.259-3.626l.3-.114c.457,1.2.883,2.422,1.267,3.644ZM209.19,196.574l-.3-.113c.453-1.2.95-2.4,1.476-3.571l.292.131C210.135,194.186,209.641,195.382,209.19,196.574Zm117.383-3.72c-.525-1.158-1.093-2.316-1.687-3.442l.283-.149c.6,1.131,1.167,2.295,1.695,3.459Zm-114.234-3.288-.284-.149c.594-1.133,1.232-2.265,1.9-3.363l.273.166C213.565,187.313,212.93,188.439,212.339,189.566Zm110.655-3.489c-.661-1.086-1.364-2.168-2.091-3.215l.263-.183c.73,1.053,1.437,2.14,2.1,3.232Zm-106.683-3.084-.264-.182c.727-1.053,1.5-2.1,2.287-3.109l.252.2C217.8,180.905,217.034,181.946,216.311,182.994Zm102.312-3.217c-.789-1-1.617-1.992-2.463-2.943l.239-.213c.849.956,1.682,1.951,2.475,2.958Zm-97.578-2.827-.24-.212c.848-.959,1.739-1.9,2.642-2.811l.227.226C222.773,175.055,221.888,176,221.044,176.95Zm92.482-2.906c-.9-.9-1.846-1.785-2.8-2.628l.212-.24c.957.846,1.9,1.735,2.812,2.641Zm-87.061-2.525-.213-.239c.956-.849,1.951-1.681,2.959-2.473l.2.252C228.407,169.846,227.415,170.674,226.464,171.519Zm81.311-2.558c-1-.785-2.044-1.55-3.1-2.274l.182-.264c1.056.728,2.1,1.5,3.11,2.285Zm-75.281-2.183-.182-.263c1.052-.729,2.14-1.435,3.233-2.1l.166.273c-1.088.66-2.17,1.363-3.217,2.089Zm68.959-2.175c-1.093-.66-2.219-1.294-3.347-1.885l.149-.284c1.134.594,2.266,1.232,3.364,1.895Zm-62.407-1.8-.149-.283c1.131-.6,2.3-1.167,3.46-1.693l.132.292c-1.159.524-2.317,1.091-3.443,1.685Zm55.6-1.76c-1.165-.522-2.36-1.016-3.553-1.465l.113-.3c1.2.453,2.4.948,3.571,1.474Zm-48.624-1.4-.114-.3c1.2-.456,2.424-.881,3.645-1.263l.1.306c-1.216.379-2.436.8-3.627,1.256Zm41.433-1.316c-1.217-.377-2.462-.72-3.7-1.022l.076-.311c1.242.3,2.494.649,3.718,1.027Zm-34.111-.974-.077-.311c1.243-.307,2.512-.58,3.771-.811l.058.315c-1.252.23-2.514.5-3.751.807Zm26.658-.844c-1.251-.226-2.528-.417-3.8-.567l.038-.318c1.274.151,2.557.342,3.815.569Zm-19.113-.542-.039-.318c1.269-.154,2.561-.273,3.841-.351l.019.319c-1.273.078-2.558.195-3.821.348Zm11.494-.361c-1.236-.072-2.493-.108-3.735-.108h-.1v-.32h.1c1.248,0,2.511.037,3.753.109Z" transform="translate(-8.049 -29.692)" fill="#3f3b56"/>
      <rect id="Rectangle_316" data-name="Rectangle 316" width="37.956" height="28.467" transform="translate(287.093 229.868)" fill="#034ea1"/>
      <rect id="Rectangle_317" data-name="Rectangle 317" width="28.467" height="1.898" transform="translate(291.837 237.459)" fill="#fff"/>
      <rect id="Rectangle_318" data-name="Rectangle 318" width="28.467" height="1.898" transform="translate(291.837 243.153)" fill="#fff"/>
      <rect id="Rectangle_319" data-name="Rectangle 319" width="28.467" height="1.898" transform="translate(291.837 248.846)" fill="#fff"/>
      <rect id="Rectangle_320" data-name="Rectangle 320" width="26.512" height="19.884" transform="translate(195.987 123)" fill="#e6e6e6"/>
      <rect id="Rectangle_321" data-name="Rectangle 321" width="19.884" height="1.326" transform="translate(199.301 128.302)" fill="#fff"/>
      <rect id="Rectangle_322" data-name="Rectangle 322" width="19.884" height="1.326" transform="translate(199.301 132.279)" fill="#fff"/>
      <rect id="Rectangle_323" data-name="Rectangle 323" width="19.884" height="1.326" transform="translate(199.301 136.256)" fill="#fff"/>
      <rect id="Rectangle_324" data-name="Rectangle 324" width="26.512" height="19.884" transform="translate(207.255 133.273)" fill="#034ea1"/>
      <rect id="Rectangle_325" data-name="Rectangle 325" width="19.884" height="1.326" transform="translate(210.569 138.576)" fill="#fff"/>
      <rect id="Rectangle_326" data-name="Rectangle 326" width="19.884" height="1.326" transform="translate(210.569 142.553)" fill="#fff"/>
      <rect id="Rectangle_327" data-name="Rectangle 327" width="19.884" height="1.326" transform="translate(210.569 146.529)" fill="#fff"/>
      <path id="Subtraction_1" data-name="Subtraction 1" d="M1102.28-3190.853H1030V-3245h72.28Zm-71.534-53.4v52.657h70.789v-52.657Z" transform="translate(-805.449 3407.245)" fill="#e6e6e6"/>
      <g id="Group_41" data-name="Group 41" transform="translate(246.906 175.657)">
        <circle id="Ellipse_220" data-name="Ellipse 220" cx="13.763" cy="13.763" r="13.763" transform="translate(0 0)" fill="#034ea1"/>
        <path id="Path_1106" data-name="Path 1106" d="M430.737,381.991h-4.679v-4.679a1.1,1.1,0,0,0-1.1-1.1h0a1.1,1.1,0,0,0-1.1,1.1v4.679h-4.679a1.1,1.1,0,0,0-1.1,1.1h0a1.1,1.1,0,0,0,1.1,1.1h4.679v4.679a1.1,1.1,0,0,0,1.1,1.1h0a1.1,1.1,0,0,0,1.1-1.1v-4.679h4.679a1.1,1.1,0,0,0,1.1-1.1h0A1.1,1.1,0,0,0,430.737,381.991Z" transform="translate(-411.259 -369.384)" fill="#fff"/>
      </g>
      <rect id="Rectangle_341" data-name="Rectangle 341" width="26.512" height="19.884" transform="translate(194 225.085)" fill="#e6e6e6"/>
      <rect id="Rectangle_342" data-name="Rectangle 342" width="19.884" height="1.326" transform="translate(197.314 230.388)" fill="#fff"/>
      <rect id="Rectangle_343" data-name="Rectangle 343" width="19.884" height="1.326" transform="translate(197.314 234.365)" fill="#fff"/>
      <rect id="Rectangle_344" data-name="Rectangle 344" width="19.884" height="1.326" transform="translate(197.314 238.341)" fill="#fff"/>
    </g>
  </g>
</svg>
