<svg xmlns="http://www.w3.org/2000/svg" width="306" height="150" viewBox="0 0 306 150"><defs><style>.a{opacity:0.384;}.b{opacity:0.097;}.c{fill:#034ea1;}.d,.f{fill:#194253;}.e,.g{fill:#fff;}.e,.f{fill-rule:evenodd;}.h{fill:#b4d0d9;}</style></defs><g class="a" transform="translate(-169.525 -162.911)"><g transform="translate(169.525 162.911)"><g class="b" transform="translate(21.642)"><path class="c" d="M457.893,307.743c5.41-6.548,8.5-15.187,7.527-23.624s-6.309-16.455-14.112-19.815c-8.184-3.525-17.676-1.728-26.06,1.291-11.828,4.26-22.927,8.448-35.358,10.7-9.9,1.8-17.221-.1-22.339-9.344-14.009-25.289,69.492-104.042-27.878-104.042-39.469,0-123.406,13.474-123.406,102,0,20.372,5.383,35.59,13.7,47.143H453.677A36.566,36.566,0,0,0,457.893,307.743Z" transform="translate(-216.266 -162.911)"/><circle class="c" cx="29.215" cy="29.215" r="29.215" transform="translate(191.023 1.145)"/></g><g transform="translate(0 148.548)"><path class="d" d="M474.8,485.4H170.251a.726.726,0,0,1,0-1.452H474.8a.726.726,0,0,1,0,1.452Z" transform="translate(-169.525 -483.952)"/></g></g><g transform="translate(238.653 193.17)"><g transform="translate(61.661 94.995)"><path class="e" d="M455.39,458.507l1-1.192a13.936,13.936,0,0,0,3.211-7.719l1.312-14.382h30.265l1.312,14.382a13.938,13.938,0,0,0,3.212,7.719l1,1.192Z" transform="translate(-453.834 -434.487)"/><path class="d" d="M488.71,435.1l1.252,13.722a14.726,14.726,0,0,0,3.378,8.12h-38.2a14.726,14.726,0,0,0,3.378-8.12l1.252-13.722H488.71m1.326-1.452h-31.59l-.12,1.32-1.252,13.722a13.214,13.214,0,0,1-3.045,7.319l-2,2.385h44.422l-2-2.385a13.214,13.214,0,0,1-3.045-7.319l-1.252-13.722-.12-1.32Z" transform="translate(-452.03 -433.645)"/><path class="f" d="M466.75,442.894v2.438l31.3,1.173v-3.611Z" transform="translate(-459.934 -438.611)"/><g transform="translate(9.253 18.457)"><path class="d" d="M497.2,474.96H472.741a.726.726,0,0,1,0-1.452H497.2a.726.726,0,0,1,0,1.452Z" transform="translate(-472.015 -473.507)"/></g></g><rect class="g" width="166.291" height="98.289" rx="8.432" transform="translate(0.726 0.726)"/><path class="d" d="M481.972,228.48H323.489a4.63,4.63,0,0,0-4.63,4.63v90.48a4.63,4.63,0,0,0,4.63,4.63H481.972a4.63,4.63,0,0,0,4.63-4.63V233.11A4.63,4.63,0,0,0,481.972,228.48Zm-158.483,1.453H481.972a3.182,3.182,0,0,1,3.178,3.178v79.666H320.311V233.11A3.182,3.182,0,0,1,323.489,229.933Zm158.483,96.836H323.489a3.182,3.182,0,0,1-3.178-3.178v-9.363h164.84v9.363A3.182,3.182,0,0,1,481.972,326.769Z" transform="translate(-318.859 -228.48)"/><circle class="d" cx="2.315" cy="2.315" r="2.315" transform="translate(81.557 89.703)"/></g><g transform="translate(364.352 304.625)"><path class="g" d="M593.772,471.234h0c-1.05.126-1.855,1.338-1.855,2.791v2.6c0,.537.315.972.7.972h18.23c.389,0,.7-.435.7-.972v-2.6c0-1.453-.806-2.665-1.855-2.791h0A66.754,66.754,0,0,0,593.772,471.234Z" transform="translate(-591.191 -470.033)"/><path class="d" d="M610.01,477.479H591.78a1.565,1.565,0,0,1-1.431-1.7v-2.6c0-1.831,1.073-3.34,2.495-3.511h0a67.711,67.711,0,0,1,16.1,0c1.422.171,2.5,1.68,2.5,3.511v2.6A1.565,1.565,0,0,1,610.01,477.479Zm-18.129-1.423h0Zm-.022-.029h18.073a.5.5,0,0,0,.057-.246v-2.6c0-1.06-.545-1.989-1.216-2.07a66.249,66.249,0,0,0-15.755,0h0c-.671.081-1.216,1.009-1.216,2.07v2.6A.5.5,0,0,0,591.858,476.027Z" transform="translate(-590.349 -469.193)"/></g><g transform="translate(425.958 272.933)"><g transform="translate(3.748 0)"><g transform="translate(2.272 3.646)"><path class="g" d="M738.971,410.212a.464.464,0,0,0-.593.281,7.729,7.729,0,0,0,5.378,9.89,7.731,7.731,0,0,0-4.785-10.171Z" transform="translate(-737.266 -409.462)"/><path class="d" d="M743.355,420.41l-.627-.167a8.456,8.456,0,0,1-5.881-10.818,1.159,1.159,0,0,1,.584-.676,1.217,1.217,0,0,1,.926-.068h0a8.454,8.454,0,0,1,5.233,11.124Zm-5.21-10.265a6.946,6.946,0,0,0-.268,1.909,7.032,7.032,0,0,0,4.578,6.581,6.926,6.926,0,0,0,.269-1.909A7.013,7.013,0,0,0,738.145,410.145Zm-.243-.085Z" transform="translate(-736.424 -408.62)"/></g><g transform="translate(0 8.455)"><path class="g" d="M733.636,420.577a.457.457,0,0,0-.479.39,7.749,7.749,0,0,0,7.581,8.8,7.75,7.75,0,0,0-7.1-9.193Z" transform="translate(-732.36 -419.849)"/><path class="d" d="M740.5,429.661l-.608-.007a8.476,8.476,0,0,1-8.292-9.628,1.182,1.182,0,0,1,1.245-1.016,8.477,8.477,0,0,1,7.769,10.054ZM733,420.48a7.026,7.026,0,0,0,6.27,7.686A7.026,7.026,0,0,0,733,420.48Z" transform="translate(-731.518 -419.007)"/></g><g transform="translate(11.02 3.645)"><path class="g" d="M762.207,410.212a.465.465,0,0,1,.593.281,7.73,7.73,0,0,1-5.378,9.89,7.731,7.731,0,0,1,4.785-10.171Z" transform="translate(-756.161 -409.461)"/><path class="d" d="M756.139,420.409l-.236-.6a8.456,8.456,0,0,1,5.234-11.124h0a1.19,1.19,0,0,1,1.509.743,8.454,8.454,0,0,1-5.881,10.819Zm5.211-10.265a7.012,7.012,0,0,0-4.579,6.581,6.941,6.941,0,0,0,.268,1.909,7.031,7.031,0,0,0,4.579-6.581A6.946,6.946,0,0,0,761.35,410.145Zm.242-.085Z" transform="translate(-755.318 -408.619)"/></g><g transform="translate(11.799 8.455)"><path class="g" d="M765.811,420.577a.457.457,0,0,1,.478.39,7.75,7.75,0,0,1-7.581,8.8,7.75,7.75,0,0,1,7.1-9.193Z" transform="translate(-757.843 -419.849)"/><path class="d" d="M757.267,429.661l-.114-.6a8.477,8.477,0,0,1,7.769-10.054h0a1.186,1.186,0,0,1,1.245,1.017,8.475,8.475,0,0,1-8.292,9.628Zm7.491-9.181a7.025,7.025,0,0,0-6.27,7.686,7.026,7.026,0,0,0,6.27-7.686Z" transform="translate(-757.001 -419.007)"/></g><g transform="translate(6.524)"><path class="g" d="M750.82,402.5a.459.459,0,0,0-.743,0,15.576,15.576,0,0,0,.371,18.6,15.576,15.576,0,0,0,.371-18.6Z" transform="translate(-746.452 -401.588)"/><path class="d" d="M749.606,421.446l-.573-.739a16.3,16.3,0,0,1-.389-19.468,1.183,1.183,0,0,1,.962-.493h0a1.182,1.182,0,0,1,.962.494,16.3,16.3,0,0,1-.388,19.467Zm0-19.047a14.855,14.855,0,0,0,0,16.628,14.855,14.855,0,0,0,0-16.628Z" transform="translate(-745.609 -400.746)"/></g></g><g transform="translate(0 15.452)"><path class="g" d="M727.225,437.767a13.544,13.544,0,1,0,22.54-.121,4.552,4.552,0,0,0-3.783-1.96H731.094A4.636,4.636,0,0,0,727.225,437.767Z" transform="translate(-724.266 -434.961)"/><path class="d" d="M749.524,436.4a5.262,5.262,0,0,0-4.385-2.279H730.251a5.347,5.347,0,0,0-4.475,2.406,14.188,14.188,0,0,0-2.345,8.352,14.372,14.372,0,0,0,13.353,13.739q.461.028.919.028a14.137,14.137,0,0,0,9.76-3.871,14.268,14.268,0,0,0,2.06-18.376Zm-22.536.927a3.9,3.9,0,0,1,3.263-1.755h14.888a3.814,3.814,0,0,1,3.182,1.64,12.722,12.722,0,0,1,2.039,5.211,4.049,4.049,0,0,0-1.94,1.489c-.583.7-.948,1.093-1.7,1.093s-1.118-.395-1.7-1.093a3.261,3.261,0,0,0-5.63,0c-.582.7-.947,1.093-1.7,1.093s-1.118-.395-1.7-1.093a3.26,3.26,0,0,0-5.629,0c-.582.7-.947,1.093-1.7,1.093s-1.117-.395-1.7-1.093a4.049,4.049,0,0,0-1.931-1.487A12.69,12.69,0,0,1,726.988,437.326Zm19.481,16.39a12.7,12.7,0,0,1-9.594,3.451,12.906,12.906,0,0,1-11.992-12.339c-.01-.3-.007-.6,0-.9a3.609,3.609,0,0,1,.961.916,3.259,3.259,0,0,0,5.628,0c.582-.7.947-1.093,1.7-1.093s1.118.395,1.7,1.093a3.26,3.26,0,0,0,5.63,0c.582-.7.947-1.093,1.7-1.093s1.118.395,1.7,1.093a3.261,3.261,0,0,0,5.631,0,3.639,3.639,0,0,1,.958-.914c.005.15.017.3.017.45A12.7,12.7,0,0,1,746.47,453.716Z" transform="translate(-723.423 -434.119)"/><circle class="d" cx="0.726" cy="0.726" r="0.726" transform="translate(22.572 8.176)"/><circle class="d" cx="0.726" cy="0.726" r="0.726" transform="translate(18.058 10.885)"/><circle class="d" cx="0.726" cy="0.726" r="0.726" transform="translate(13.544 8.176)"/><circle class="d" cx="0.726" cy="0.726" r="0.726" transform="translate(9.029 10.885)"/><circle class="d" cx="0.726" cy="0.726" r="0.726" transform="translate(4.515 8.176)"/></g></g><g transform="translate(228.972 183.58)"><path class="d" d="M328.017,213.633a.726.726,0,0,1-.726-.726v-4.63a.726.726,0,0,1,1.452,0v4.63A.726.726,0,0,1,328.017,213.633Z" transform="translate(-313.696 -207.551)"/><path class="d" d="M310.529,220.877a.724.724,0,0,1-.513-.213l-3.274-3.274a.726.726,0,1,1,1.027-1.027l3.274,3.274a.726.726,0,0,1-.513,1.239Z" transform="translate(-302.547 -212.169)"/><path class="d" d="M303.285,238.365h-4.63a.726.726,0,1,1,0-1.452h4.63a.726.726,0,1,1,0,1.452Z" transform="translate(-297.929 -223.318)"/></g><g transform="translate(191.558 263.257)"><g transform="translate(1.713 9.011)"><path class="g" d="M222.546,400.88l3.992,39.19H244.69l3.992-39.19Z" transform="translate(-221.742 -400.153)"/><path class="d" d="M244.414,439.954H224.949l-4.139-40.642h27.744ZM226.261,438.5H243.1l3.844-37.738H222.418Z" transform="translate(-220.81 -399.311)"/></g><g transform="translate(0 3.627)"><path class="g" d="M247.374,389.928a.926.926,0,0,0-.892-.676H220.594a.926.926,0,0,0-.892.676l-.987,3.532a.926.926,0,0,0,.892,1.175h27.863a.926.926,0,0,0,.892-1.175Z" transform="translate(-217.954 -388.526)"/><path class="d" d="M246.627,394.52H218.765a1.652,1.652,0,0,1-1.591-2.1l.987-3.532a1.658,1.658,0,0,1,1.591-1.208H245.64a1.658,1.658,0,0,1,1.591,1.208l.988,3.532a1.652,1.652,0,0,1-1.591,2.1Zm-26.875-5.384a.2.2,0,0,0-.193.146l-.987,3.532a.2.2,0,0,0,.193.253h27.862a.2.2,0,0,0,.193-.253l-.987-3.532a.2.2,0,0,0-.193-.146Z" transform="translate(-217.111 -387.683)"/></g><g transform="translate(2.949)"><path class="g" d="M226.371,382.095l-.825,2.95H248.9l-.825-2.95a.927.927,0,0,0-.892-.677H227.262A.926.926,0,0,0,226.371,382.095Z" transform="translate(-224.589 -380.692)"/><path class="d" d="M248.751,384.929H223.48l1.082-3.872a1.658,1.658,0,0,1,1.591-1.207h19.925a1.658,1.658,0,0,1,1.591,1.208Zm-23.358-1.452h21.444l-.567-2.029a.2.2,0,0,0-.192-.146H226.153a.2.2,0,0,0-.193.146Z" transform="translate(-223.48 -379.85)"/></g><g transform="translate(1.896 19.52)"><path class="g" d="M222.779,424.6l1.705,16.745a.926.926,0,0,0,.921.832h20.661a.926.926,0,0,0,.921-.832l1.706-16.745a.926.926,0,0,0-.921-1.02H223.7A.926.926,0,0,0,222.779,424.6Z" transform="translate(-222.049 -422.85)"/><path class="d" d="M245.226,442.056H224.564a1.648,1.648,0,0,1-1.644-1.484l-1.705-16.744a1.653,1.653,0,0,1,1.644-1.82h24.072a1.653,1.653,0,0,1,1.644,1.82l-1.705,16.745A1.648,1.648,0,0,1,245.226,442.056Zm-22.367-18.6a.2.2,0,0,0-.2.22l1.705,16.744a.2.2,0,0,0,.2.18h20.661a.2.2,0,0,0,.2-.18l1.706-16.744a.2.2,0,0,0-.05-.155.2.2,0,0,0-.149-.066Z" transform="translate(-221.207 -422.007)"/></g><g transform="translate(2.516 9.737)"><path class="d" d="M228.948,462.739h20.207l-.3,2.625-19.737-1.02Z" transform="translate(-225.984 -434.097)"/><path class="d" d="M222.546,400.88l.168,1.286,25.644,1.181.323-2.467Z" transform="translate(-222.546 -400.88)"/></g></g><g transform="translate(282.922 189.144)"><g transform="translate(0)"><path class="g" d="M416.037,309.609V225.135a3.908,3.908,0,0,1,3.9-3.9h69.946a3.908,3.908,0,0,1,3.9,3.9v84.474Z" transform="translate(-415.311 -220.505)"/><g transform="translate(4.23 3.42)"><circle class="d" cx="1.389" cy="1.389" r="1.389"/><g transform="translate(5.556)"><circle class="d" cx="1.389" cy="1.389" r="1.389"/></g><g transform="translate(11.112)"><circle class="d" cx="1.389" cy="1.389" r="1.389"/></g></g><path class="d" d="M489.044,219.663H419.1a4.63,4.63,0,0,0-4.63,4.63v85.2h79.206v-85.2A4.63,4.63,0,0,0,489.044,219.663ZM419.1,221.115h69.946a3.182,3.182,0,0,1,3.178,3.178v3.535h-76.3v-3.535A3.182,3.182,0,0,1,419.1,221.115Zm-3.178,86.926V229.28h76.3v78.761Z" transform="translate(-414.468 -219.663)"/></g><g transform="translate(7.905 19.078)"><rect class="c" width="15.627" height="15.627" rx="2"/><path class="g" d="M446.763,271.542l-3.688,3.688-2.1-2.1-1.027,1.027,3.132,3.132,4.715-4.715Z" transform="translate(-436.053 -266.599)"/><g transform="translate(21.723 1.452)"><rect class="h" width="37.042" height="1.452"/><rect class="h" width="37.042" height="1.452" transform="translate(0 2.904)"/><rect class="h" width="18.521" height="1.452" transform="translate(0 5.808)"/></g><g transform="translate(0 20.065)"><rect class="c" width="15.627" height="15.627" rx="2"/><path class="g" d="M446.763,314.876l-3.688,3.688-2.1-2.1-1.027,1.027,3.132,3.132,4.715-4.715Z" transform="translate(-436.053 -309.934)"/></g><g transform="translate(21.723 21.517)"><rect class="h" width="37.042" height="1.452"/><rect class="h" width="37.042" height="1.452" transform="translate(0 2.904)"/><rect class="h" width="18.521" height="1.452" transform="translate(0 5.808)"/></g><g transform="translate(0 40.129)"><rect class="c" width="15.627" height="15.627" rx="2"/><path class="g" d="M446.763,358.21l-3.688,3.688-2.1-2.1-1.027,1.027,3.132,3.132,4.715-4.715Z" transform="translate(-436.053 -353.268)"/></g><g transform="translate(21.723 41.581)"><rect class="h" width="37.042" height="1.452"/><rect class="h" width="37.042" height="1.452" transform="translate(0 2.904)"/><rect class="h" width="18.521" height="1.452" transform="translate(0 5.808)"/></g></g></g></g></svg>