<svg xmlns="http://www.w3.org/2000/svg" xmlns:xlink="http://www.w3.org/1999/xlink" width="200" height="200" viewBox="0 0 207.201 209.483"><defs><style>.a{fill:none;}.b,.d{fill:#034ea1;}.b{opacity:0.036;}.c{clip-path:url(#a);}.e{fill:#c7cad1;}.f{fill:#f5f5f5;}.g{fill:#989898;}.h{fill:#e0e0e0;}</style><clipPath id="a"><rect class="a" width="138.022" height="160.772"/></clipPath></defs><g transform="translate(-51.799 -36.612)"><circle class="b" cx="100" cy="100" r="100" transform="translate(59 40)"/><g transform="matrix(0.848, 0.53, -0.53, 0.848, 136.996, 36.612)"><g class="c"><rect class="d" width="111.347" height="138.05" transform="translate(9.562 14.575) rotate(-7.522)"/><rect class="e" width="138.049" height="111.347" transform="translate(13.637 146.832) rotate(-86.27)"/><path class="f" d="M0,0H111.347V138.05H0Z" transform="matrix(0.993, -0.116, 0.116, 0.993, 3.619, 20.726)"/><path class="g" d="M55.557,130.767l-2.374-20.387,20.387-2.374,2.374,20.387Zm-.139-18.618,1.908,16.383,16.383-1.908L71.8,110.242Z" transform="translate(-39.785 -80.798)"/><path class="d" d="M74.261,139.321l-3.341-4.48,1.638-1.222,1.877,2.518,4.5-4.83,1.495,1.394Z" transform="translate(-50.766 -96.96)"/><rect class="h" width="65.104" height="1.955" transform="translate(40.673 30.009) rotate(-6.641)"/><rect class="h" width="65.104" height="1.955" transform="translate(41.345 35.781) rotate(-6.641)"/><rect class="h" width="34.105" height="1.955" transform="translate(41.993 41.346) rotate(-6.641)"/><path class="g" d="M66.526,224.978l-2.374-20.387,20.387-2.374L86.913,222.6Zm-.139-18.618,1.907,16.383,16.383-1.907L82.77,204.453Z" transform="translate(-47.991 -151.276)"/><path class="d" d="M85.23,233.532l-3.341-4.48,1.638-1.221,1.877,2.518,4.5-4.83,1.495,1.394Z" transform="translate(-58.976 -167.112)"/><rect class="h" width="65.104" height="1.955" transform="matrix(0.993, -0.116, 0.116, 0.993, 43.436, 53.742)"/><rect class="h" width="65.104" height="1.955" transform="matrix(0.993, -0.116, 0.116, 0.993, 44.108, 59.515)"/><rect class="h" width="34.105" height="1.955" transform="translate(44.756 65.079) rotate(-6.641)"/><path class="g" d="M77.495,319.187,75.121,298.8l20.387-2.374,2.374,20.387Zm-.139-18.618,1.908,16.383,16.383-1.908-1.908-16.383Z" transform="translate(-56.197 -221.752)"/><path class="d" d="M96.2,327.742l-3.341-4.48L94.5,322.04l1.877,2.518,4.5-4.83,1.495,1.394Z" transform="translate(-67.186 -237.263)"/><rect class="h" width="65.104" height="1.955" transform="translate(46.2 77.475) rotate(-6.641)"/><rect class="h" width="65.104" height="1.954" transform="matrix(0.993, -0.116, 0.116, 0.993, 46.872, 83.248)"/><rect class="h" width="34.105" height="1.954" transform="matrix(0.993, -0.116, 0.116, 0.993, 47.52, 88.812)"/><path class="g" d="M88.463,413.4l-2.374-20.387,20.387-2.373,2.374,20.387Zm-.139-18.618,1.908,16.384,16.383-1.907-1.908-16.383Z" transform="translate(-64.402 -292.23)"/><path class="d" d="M107.168,421.952l-3.341-4.48,1.638-1.222,1.877,2.518,4.5-4.83,1.495,1.394Z" transform="translate(-75.396 -308.305)"/><rect class="h" width="65.104" height="1.955" transform="translate(48.963 101.208) rotate(-6.641)"/><rect class="h" width="65.104" height="1.954" transform="translate(49.635 106.981) rotate(-6.641)"/><rect class="h" width="34.105" height="1.955" transform="translate(50.283 112.545) rotate(-6.641)"/><path class="g" d="M99.432,507.609l-2.374-20.387,20.387-2.373,2.374,20.387Zm-.139-18.618,1.908,16.384,16.383-1.908-1.908-16.383Z" transform="translate(-72.608 -362.708)"/><path class="d" d="M118.136,516.163l-3.341-4.48,1.638-1.222,1.877,2.518,4.5-4.83,1.495,1.394Z" transform="translate(-83.607 -378.457)"/><rect class="h" width="65.104" height="1.954" transform="translate(51.726 124.942) rotate(-6.641)"/><rect class="h" width="65.104" height="1.955" transform="translate(52.398 130.714) rotate(-6.641)"/><rect class="h" width="34.105" height="1.954" transform="translate(53.046 136.278) rotate(-6.642)"/></g></g></g></svg>