<svg height="541.549" viewBox="0 0 3369.368 541.549" width="3369.368" xmlns="http://www.w3.org/2000/svg"><clipPath id="a"><path d="m-858 0h3369.368v187.52h-3369.368z"/></clipPath><clipPath id="b"><path d="m768.652 1020.708c.03.019.027.091.048.133 0 0 .035.026.021.046a.035.035 0 0 1 -.035.016.087.087 0 0 1 -.034-.028.729.729 0 0 1 -.115-.027c-.048-.016-.071-.112-.054-.155s.123-.014.169.015z" transform="translate(-768.478 -1020.675)"/></clipPath><clipPath id="c"><path d="m704.729 949.459v-.089s-.008-.33-.143-.323c-.11.006-.157.142-.191.294-.029.127-.048.318-.118.329-.15.023-.332.054-.488.078s-.4.09-.4.09c.023-.263-.023-.793-.25-.782-.21.011-.284.4-.323.846a3.842 3.842 0 0 1 -.66.049c-.2 0-1.181-.032-1.3-.047s-.208-.021-.269-.154a.842.842 0 0 1 -.073-.5c.033-.142.07-.4.593-.593.018-.007.109 0 .128-.006a2.505 2.505 0 0 1 1.176-.683c.344-.047.9-.07 1.315-.087a1.007 1.007 0 0 1 .79.419c.083.065.143.109.143.109s.108.46.128.495a1.4 1.4 0 0 1 -.058.555z" transform="translate(-700.498 -947.884)"/></clipPath><clipPath id="d"><path d="m781.594 948.737c.424.007 1.444-.02 1.763-.055.2-.32.421-.673.8-.721-.552.009-1.028.034-1.32.065a2.828 2.828 0 0 0 -1.243.711z" transform="translate(-781.594 -947.961)"/></clipPath><clipPath id="e"><path d="m1019.013 958.043a10.441 10.441 0 0 0 1.356-.227c.036-.01.037-.031.052-.092a.958.958 0 0 0 -.714-.353c-.454.049-.694.672-.694.672z" transform="translate(-1019.013 -957.37)"/></clipPath><clipPath id="f"><path d="m1027.881 1016.172a.423.423 0 0 0 -.13.135s-.053.028-.031.05a.064.064 0 0 0 .054.018.134.134 0 0 0 .051-.03 1.491 1.491 0 0 0 .175-.029c.074-.018.107-.12.106-.171s-.155-.005-.225.027z" transform="translate(-1027.714 -1016.127)"/></clipPath><path d="m0 1062.694v127.35l827.411-100.765 104.953-15.447-140.6-12.3-35.755-3.511s-31.556-.475-42.072 2.023-114.321-1.625-114.321-1.625-58.494 4.009-66.392 3.509c-7.147-.453-44.754-11.186-73.828-12.087-2.783-.086-5.712-.072-8.5.074-29.343 1.542-60.2-1.235-85.792 1.163s-79.824-16.195-98.03-17.772-88.074 15.826-97.074 17.187-80.29-12.416-99.223-9.514-70.777 21.715-70.777 21.715z" fill="#95d8f3" opacity=".555" transform="translate(.65 -762.519)"/><path d="m1973.713 457.305c-1.995-.067-3.936-.1-5.848-.108-1.381-4.956-20.3-9.506-43.531-10.309-24.146-.836-43.74 2.686-43.783 7.868-.018 2.971 6.408 5.839 16.435 7.908-9.842.824-16.514 2.837-16.534 5.418-.026 3.779 14.212 7.333 31.812 7.941 14.3.5 26.42-1.109 30.466-3.755a156.469 156.469 0 0 0 30.847 3.809c24.145.837 43.747-2.69 43.789-7.871s-19.507-10.063-43.653-10.901z" fill="#fff" opacity=".5" transform="translate(731.433 -446.765)"/><path d="m1920.813 542.406c2.524-.086 4.982-.13 7.4-.154 1.753-5.36 25.707-10.394 55.1-11.412 30.56-1.056 55.355 2.619 55.4 8.214.02 3.206-8.117 6.344-20.812 8.641 12.455.827 20.9 2.957 20.919 5.742.029 4.08-18 8.009-40.271 8.78-18.1.627-33.436-1.028-38.553-3.858-9.992 2.171-23.788 3.782-39.044 4.31-30.56 1.059-55.363-2.621-55.409-8.213s24.71-10.991 55.27-12.05z" fill="#fff" opacity=".3" transform="translate(738.673 -487.523)"/><path d="m1946.456 496.532c6.4-5.229 47.643-8.85 92.106-8.1 25.5.432 46.462 2.213 58.564 4.633 12.6-1.956 33.627-3.07 55.757-2.694 32.423.551 54.928 4.082 50.23 7.892-3.759 3.094-24.356 5.421-49.32 5.886 12.43 1.959 18.533 4.468 15.357 7.078-6.415 5.231-47.655 8.851-92.115 8.1s-75.351-5.6-68.951-10.83a10.331 10.331 0 0 1 2.341-1.251c-41.749-1.019-70.114-5.689-63.969-10.714z" fill="#fff" opacity=".3" transform="translate(699.774 -466.962)"/><path d="m0 1053.133v86.067l823.55-68.1 1.749-17.812-37.226-.938-35.588-2.373s-31.409-.321-41.876 1.367-113.788-1.1-113.788-1.1-58.221 2.709-66.082 2.371-52.738-9.159-81.944-8.118-59.919-.834-85.392.786-79.451-10.944-97.573-12.011-87.662 10.7-96.628 11.615-79.915-8.391-98.76-6.429-70.442 14.675-70.442 14.675z" fill="#95d8f3" transform="translate(858 -731.67)"/><path d="m0 1053.133v86.067l823.55-68.1 1.749-17.812-37.226-.938-35.588-2.373s-31.409-.321-41.876 1.367-113.788-1.1-113.788-1.1-58.221 2.709-66.082 2.371-52.738-9.159-81.944-8.118-59.919-.834-85.392.786-79.451-10.944-97.573-12.011-87.662 10.7-96.628 11.615-79.915-8.391-98.76-6.429-70.442 14.675-70.442 14.675z" fill="#95d8f3" transform="translate(587 -711.67)"/><path d="m0 1053.133v86.067l823.55-68.1 1.749-17.812-37.226-.938-35.588-2.373s-31.409-.321-41.876 1.367-113.788-1.1-113.788-1.1-58.221 2.709-66.082 2.371-52.738-9.159-81.944-8.118-59.919-.834-85.392.786-79.451-10.944-97.573-12.011-87.662 10.7-96.628 11.615-79.915-8.391-98.76-6.429-70.442 14.675-70.442 14.675z" fill="#95d8f3" transform="translate(289 -694.67)"/><path d="m0 1053.133v86.067l827.891-68.1 1.758-17.812-37.423-.938-35.775-2.373s-31.575-.321-42.1 1.367-114.388-1.1-114.388-1.1-58.528 2.709-66.43 2.371-53.016-9.159-82.376-8.118-60.235-.834-85.842.786-79.87-10.944-98.087-12.011-88.124 10.7-97.137 11.615-80.336-8.391-99.28-6.429-70.811 14.675-70.811 14.675z" fill="#95d8f3" transform="translate(.65 -711.67)"/><ellipse cx="292.052" cy="385.55" fill="#024a86" opacity=".121" rx="111.5" ry="6"/><ellipse cx="541.552" cy="379.05" fill="#024a86" opacity=".121" rx="82" ry="5.5"/><path d="m21.9 26.36h-21.437a11.185 11.185 0 0 1 20.147-9.212 8.39 8.39 0 0 1 11.917-4.056 17.576 17.576 0 0 1 34.407 2.089 7.593 7.593 0 0 1 6.878 4.942 7.612 7.612 0 0 1 5.97 6.236h-45.482l-.013-.023-.014-.024-.036.035-.012.012h-11.738c-.159-.156-.312-.318-.453-.48-.04.162-.085.324-.131.48z" fill="#fff" transform="translate(153.657 121.549)"/><path d="m102.738 22.365h-102.738a8.389 8.389 0 0 1 3.21-4.565 9.648 9.648 0 0 1 5.714-1.819 9.811 9.811 0 0 1 4.943 1.317 11.187 11.187 0 0 1 16.579-6 17.586 17.586 0 0 1 24.354-9.409 17.736 17.736 0 0 1 6.059 5.052 16.558 16.558 0 0 1 8.371-2.148 17.208 17.208 0 0 1 6.888 1.384 10.989 10.989 0 0 1 4.632 3.593 11.584 11.584 0 0 1 22.029 5.008 11.453 11.453 0 0 1 -1.293 5.32 2.008 2.008 0 0 1 1.293 1.868 2.038 2.038 0 0 1 -.04.4z" fill="#fff" transform="translate(491.794 136.726)"/><path d="m0 1118.521v58.693l823.55-44.737 1.749-11.7-37.226-.616-35.588-1.559s-31.409-.211-41.876.9-113.788-.722-113.788-.722-58.221 1.78-66.082 1.558-52.739-6.02-81.944-5.338-59.919-.548-85.392.516-79.451-7.19-97.573-7.891-103.124-.683-112.091-.079-60.339-3.893-79.183-2.6-74.556 13.575-74.556 13.575z" fill="#5fc1e9" transform="translate(858 -766.41)"/><path d="m0 1119.205v74.857l855.533-60.209 1.817-12.281-38.672-.647-36.97-1.636s-32.629-.221-43.5.943-118.208-.758-118.208-.758-60.482 1.869-68.648 1.635-54.786-6.316-85.126-5.6-62.246-.575-88.708.542-82.537-7.546-101.362-8.282-106.265 7.647-115.58 8.282-63.546-12.45-83.122-11.1-77.454 14.254-77.454 14.254z" fill="#5fc1e9" transform="translate(.65 -719.41)"/><path d="m790.54 1118.521v58.693l-788.865-44.736-1.675-11.701 35.659-.616 39.1 10.7s41.84 2.939 51.866 4.048 100.564-.616 100.564-.616 66.724-1.3 74.254-1.524 49.306-3.647 77.281-2.963 43.088-1.575 67.488-.51 99.294 7.641 116.653 6.941 71.826-29.292 80.415-28.688 57.8-3.893 75.848-2.6 71.412 13.572 71.412 13.572z" fill="#5fc1e9" transform="matrix(.999 -.035 .035 .999 55.94 -732.538)"/><path d="m2420.213 1048.9v86.062l-823.55-68.1-1.749-17.812 37.226-.938 35.588-2.373s31.409-.321 41.876 1.367 113.788-1.1 113.788-1.1 58.221 2.709 66.082 2.371 52.738-9.159 81.944-8.118 59.919-.834 85.392.786 74.785 8.708 92.908 7.641 88.223-25.1 97.189-24.179 84.019 7.752 102.864 9.713 70.442 14.68 70.442 14.68z" fill="#95d8f3" transform="translate(83.155 -727.433)"/><path d="m2420.213 1048.9v86.062l-823.55-68.1-1.749-17.812 37.226-.938 35.588-2.373s31.409-.321 41.876 1.367 113.788-1.1 113.788-1.1 58.221 2.709 66.082 2.371 52.738-9.159 81.944-8.118 59.919-.834 85.392.786 74.785 8.708 92.908 7.641 88.223-25.1 97.189-24.179 84.019 7.752 102.864 9.713 70.442 14.68 70.442 14.68z" fill="#95d8f3" transform="translate(470.155 -739.433)"/><path d="m2422.766 1048.9v86.062l-826.1-68.1-1.754-17.812 37.342-.938 35.7-2.373s31.506-.321 42.006 1.367 114.14-1.1 114.14-1.1 58.4 2.709 66.286 2.371 52.9-9.159 82.2-8.118 60.1-.834 85.657.786 75.016 8.708 93.2 7.641 88.5-25.1 97.49-24.179 84.279 7.752 103.182 9.713 70.651 14.68 70.651 14.68z" fill="#95d8f3" transform="translate(946.155 -734.433)"/><path d="m2420.213 1120.777v58.693l-823.55-44.737-1.749-11.7 37.226-.617 35.588-1.559s31.409-.211 41.876.9 113.788-.722 113.788-.722 58.221 1.78 66.082 1.558 52.738-6.018 81.944-5.334 59.919-.548 85.392.516 79.451-7.19 97.573-7.891 103.125-.683 112.091-.079 57.235 10.748 76.08 12.037 77.659-1.065 77.659-1.065z" fill="#5fc1e9" transform="translate(83.155 -768.666)"/><path d="m2421.146 1120.777v58.693l-824.482-44.737-1.751-11.7 37.268-.617 35.628-1.559s31.445-.211 41.924.9 113.917-.722 113.917-.722 58.287 1.78 66.157 1.558 52.8-6.018 82.037-5.334 59.987-.548 85.489.516 79.541-7.19 97.683-7.891 103.241-.683 112.217-.079 57.3 10.748 76.166 12.037 77.747-1.065 77.747-1.065z" fill="#5fc1e9" transform="translate(469.155 -756.666)"/><path d="m2423.766 1120.777v94.773l-836.656-69.771 7.828-22.746 37.385-.617 35.74-1.559s31.543-.211 42.055.9 114.274-.722 114.274-.722 58.47 1.78 66.365 1.558 48.653-13.392 77.984-12.708 64.486 6.826 90.068 7.891 79.791-7.19 97.99-7.891 103.566-.683 112.57-.079 57.48 10.748 76.405 12.037 77.992-1.066 77.992-1.066z" fill="#5fc1e9" transform="translate(945.155 -751.666)"/><g fill="#95d8f3"><path d="m1680.819 244.842h27.241v76.412h-27.241z"/><path d="m1650.365 208.057h23.957v113.197h-23.957z"/><path d="m1622.747 256.03h46.02v65.224h-46.02z"/><path d="m1662.346 279.276h27.008v41.978h-27.008z"/><path d="m1616.634 229.436h17.962v91.818h-17.962z"/><path d="m1565.318 174.969h40.007v146.285h-40.007z"/><path d="m1523.014 119.52h23.919v201.734h-23.919z"/><path d="m1488.714 161.669h29.158v159.585h-29.158z"/><path d="m1580.165 264.866h42.581v56.388h-42.581z"/><path d="m1538.475 221.174h23.475v100.08h-23.475z"/><path d="m1553.276 289.678h17.135v31.577h-17.135z"/><path d="m1699.496 289.678h17.134v31.577h-17.134z"/><path d="m1512.772 258.099h34.162v63.155h-34.162z"/><path d="m1416.698 236.706h75.707v84.549h-75.707z"/><path d="m1200.614 289.586h75.717v31.668h-75.717z"/><path d="m1402.844 285.426h13.854v35.828h-13.854z"/><path d="m1360.373 228.351h49.399v92.903h-49.399z"/><path d="m1341.326 191.785h27.357v129.469h-27.357z"/><path d="m1316.053 263.034h36.937v58.22h-36.937z"/><path d="m1304.05 219.251h21.239v102.003h-21.239z"/><path d="m1257.888 189.645h50.782v131.609h-50.782z"/><path d="m1463.786 147.088h15.697v174.166h-15.697z"/><path d="m1422.472 265.182h13.122v56.072h-13.122z"/><path d="m1882.682 244.842h27.241v76.412h-27.241z"/><path d="m1852.22 208.057h23.963v113.197h-23.963z"/><path d="m1824.607 256.03h46.024v65.224h-46.024z"/><path d="m1864.208 279.276h27.008v41.978h-27.008z"/><path d="m1818.496 229.436h17.959v91.818h-17.959z"/><path d="m1767.181 174.969h40.007v146.285h-40.007z"/><path d="m1724.873 37.664h23.922v283.59h-23.922z"/><path d="m1690.575 75.124h29.157v246.13h-29.157z"/><path d="m1782.026 264.866h42.581v56.388h-42.581z"/><path d="m1740.336 221.174h23.475v100.08h-23.475z"/><path d="m1755.139 289.678h17.134v31.577h-17.134z"/><path d="m1901.357 289.678h17.135v31.577h-17.135z"/><path d="m1714.632 258.099h34.163v63.155h-34.163z"/><path d="m1618.558 236.706h75.707v84.549h-75.707z"/><path d="m1402.478 236.706h75.714v84.549h-75.714z"/><path d="m1604.708 285.426h13.85v35.828h-13.85z"/><path d="m1562.235 228.351h49.397v92.903h-49.397z"/><path d="m1554.849 181.466h15.696v139.788h-15.696z"/><path d="m1517.914 263.034h36.934v58.22h-36.934z"/><path d="m1505.913 219.251h21.238v102.003h-21.238z"/><path d="m1459.749 189.645h50.781v131.609h-50.781z"/><path d="m1665.647 147.088h15.697v174.166h-15.697z"/><path d="m1624.333 265.182h13.124v56.072h-13.124z"/></g><path d="m1238.032 271.956h33.677v49.298h-33.677z" fill="#7cb8e1"/><path d="m1279.745 248.227h29.623v73.027h-29.623z" fill="#7cb8e1"/><path d="m1286.614 279.176h56.904v42.078h-56.904z" fill="#7cb8e1"/><path d="m1261.16 294.174h33.397v27.08h-33.397z" fill="#7cb8e1"/><path d="m1328.869 262.02h22.204v59.234h-22.204z" fill="#7cb8e1"/><path d="m1365.055 226.883h49.466v94.371h-49.466z" fill="#7cb8e1"/><path d="m1437.252 205.14h29.577v116.114h-29.577z" fill="#7cb8e1"/><path d="m1473.187 232.346h36.049v88.908h-36.049z" fill="#7cb8e1"/><path d="m1343.518 284.876h52.643v36.378h-52.643z" fill="#7cb8e1"/><path d="m1418.681 256.69h29.029v64.564h-29.029z" fill="#7cb8e1"/><path d="m1408.223 300.883h21.187v20.371h-21.187z" fill="#7cb8e1"/><path d="m1227.434 300.883h21.188v20.371h-21.188z" fill="#7cb8e1"/><path d="m1437.252 280.509h42.239v40.745h-42.239z" fill="#7cb8e1"/><path d="m1504.671 266.709h93.607v54.545h-93.607z" fill="#7cb8e1"/><path d="m1771.826 287.777h110.856v33.477h-110.856z" fill="#7cb8e1"/><path d="m1598.277 298.14h17.123v23.114h-17.123z" fill="#7cb8e1"/><path d="m1606.841 261.319h61.075v59.935h-61.075z" fill="#7cb8e1"/><path d="m1657.639 231.074h19.406v90.18h-19.406z" fill="#7cb8e1"/><path d="m1677.045 283.693h45.668v37.561h-45.668z" fill="#7cb8e1"/><path d="m1711.291 255.448h26.262v65.806h-26.262z" fill="#7cb8e1"/><path d="m1731.843 236.349h62.785v84.905h-62.785z" fill="#7cb8e1"/><path d="m1520.649 226.23h19.407v95.024h-19.407z" fill="#7cb8e1"/><path d="m1574.911 285.08h16.224v36.174h-16.224z" fill="#7cb8e1"/><path d="m1628.091 231.259h29.732v89.995h-29.732z" fill="#95d8f3"/><path d="m1664.918 187.937h26.148v133.317h-26.148z" fill="#95d8f3"/><path d="m1670.978 244.438h50.233v76.816h-50.233z" fill="#95d8f3"/><path d="m1648.509 271.814h29.479v49.439h-29.479z" fill="#95d8f3"/><path d="m1708.276 213.114h19.606v108.139h-19.606z" fill="#95d8f3"/><path d="m1740.226 75.124h43.669v246.13h-43.669z" fill="#95d8f3"/><path d="m1803.962 116.142h26.107v205.112h-26.107z" fill="#95d8f3"/><path d="m1835.682 133.306h31.825v187.948h-31.825z" fill="#95d8f3"/><path d="m1721.211 254.844h46.475v66.409h-46.475z" fill="#95d8f3"/><path d="m1787.568 203.384h25.625v117.869h-25.625z" fill="#95d8f3"/><path d="m1778.333 284.065h18.703v37.189h-18.703z" fill="#95d8f3"/><path d="m1618.736 284.065h18.701v37.189h-18.701z" fill="#95d8f3"/><path d="m1803.962 246.873h37.286v74.381h-37.286z" fill="#95d8f3"/><path d="m1863.477 221.68h82.636v99.574h-82.636z" fill="#95d8f3"/><path d="m2099.321 295.131h82.644v26.122h-82.644z" fill="#95d8f3"/><path d="m1946.113 279.057h15.119v42.196h-15.119z" fill="#95d8f3"/><path d="m1953.672 211.837h53.92v109.417h-53.92z" fill="#95d8f3"/><path d="m1998.52 172.309h29.86v148.945h-29.86z" fill="#95d8f3"/><path d="m2015.649 252.685h40.316v68.569h-40.316z" fill="#95d8f3"/><path d="m2045.884 201.122h23.181v120.131h-23.181z" fill="#95d8f3"/><path d="m2064.024 237.474h76.618v83.78h-76.618z" fill="#95d8f3"/><path d="m1877.583 116.134h17.131v205.119h-17.131z" fill="#95d8f3"/><path d="m1925.486 255.216h14.324v66.038h-14.324z" fill="#95d8f3"/><path d="m1422.706 231.259h27.627v89.995h-27.627z" fill="#95d8f3"/><path d="m1456.922 187.937h24.302v133.317h-24.302z" fill="#95d8f3"/><path d="m1462.555 244.438h46.675v76.816h-46.675z" fill="#95d8f3"/><path d="m1441.677 271.814h27.391v49.439h-27.391z" fill="#95d8f3"/><path d="m1497.215 213.114h18.212v108.139h-18.212z" fill="#95d8f3"/><path d="m1526.896 148.969h40.575v172.284h-40.575z" fill="#95d8f3"/><path d="m1567.042 75.124h43.334v246.13h-43.334z" fill="#95d8f3"/><path d="m1615.591 98.59h29.57v222.664h-29.57z" fill="#95d8f3"/><path d="m1509.23 254.844h43.183v66.409h-43.183z" fill="#95d8f3"/><path d="m1570.887 203.384h23.808v117.869h-23.808z" fill="#95d8f3"/><path d="m1562.304 284.065h17.376v37.189h-17.376z" fill="#95d8f3"/><path d="m1414.015 284.065h17.377v37.189h-17.377z" fill="#95d8f3"/><path d="m1586.118 246.873h34.644v74.381h-34.644z" fill="#95d8f3"/><path d="m1641.416 221.68h76.781v99.574h-76.781z" fill="#95d8f3"/><path d="m1860.552 221.68h76.787v99.574h-76.787z" fill="#95d8f3"/><path d="m1718.197 279.057h14.048v42.196h-14.048z" fill="#95d8f3"/><path d="m1725.221 211.837h50.1v109.417h-50.1z" fill="#95d8f3"/><path d="m1766.892 156.622h15.916v164.632h-15.916z" fill="#95d8f3"/><path d="m1782.808 252.685h37.46v68.569h-37.46z" fill="#95d8f3"/><path d="m1810.9 201.122h21.539v120.131h-21.539z" fill="#95d8f3"/><path d="m1827.756 166.255h51.501v154.999h-51.501z" fill="#95d8f3"/><path d="m1654.523 116.134h15.92v205.119h-15.92z" fill="#95d8f3"/><path d="m1699.032 255.216h13.309v66.038h-13.309z" fill="#95d8f3"/><path d="m2069.959 263.195h34.154v58.059h-34.154z" fill="#7cb8e1"/><path d="m2031.768 235.248h30.037v86.006h-30.037z" fill="#7cb8e1"/><path d="m1997.135 271.697h57.709v49.557h-57.709z" fill="#7cb8e1"/><path d="m2046.788 289.36h33.868v31.894h-33.868z" fill="#7cb8e1"/><path d="m1989.472 251.492h22.518v69.762h-22.518z" fill="#7cb8e1"/><path d="m1925.125 210.109h50.166v111.145h-50.166z" fill="#7cb8e1"/><path d="m1872.076 139.282h29.995v181.972h-29.995z" fill="#7cb8e1"/><path d="m1829.067 216.543h36.56v104.711h-36.56z" fill="#7cb8e1"/><path d="m1943.747 278.411h53.388v42.843h-53.388z" fill="#7cb8e1"/><path d="m1891.465 245.214h29.44v76.04h-29.44z" fill="#7cb8e1"/><path d="m1910.025 297.262h21.486v23.991h-21.486z" fill="#7cb8e1"/><path d="m2093.372 297.262h21.485v23.991h-21.485z" fill="#7cb8e1"/><path d="m1859.236 273.267h42.835v47.987h-42.835z" fill="#7cb8e1"/><path d="m1738.764 257.014h94.935v64.24h-94.935z" fill="#7cb8e1"/><path d="m1450.333 281.826h112.423v39.427h-112.423z" fill="#7cb8e1"/><path d="m1721.398 294.031h17.366v27.223h-17.366z" fill="#7cb8e1"/><path d="m1668.138 250.666h61.942v70.588h-61.942z" fill="#7cb8e1"/><path d="m1658.881 215.045h19.68v106.208h-19.68z" fill="#7cb8e1"/><path d="m1612.567 277.018h46.314v44.236h-46.314z" fill="#7cb8e1"/><path d="m1597.517 243.753h26.633v77.501h-26.633z" fill="#7cb8e1"/><path d="m1539.633 221.26h63.676v99.994h-63.676z" fill="#7cb8e1"/><path d="m1797.811 209.341h19.682v111.913h-19.682z" fill="#7cb8e1"/><path d="m1746.009 278.65h16.453v42.604h-16.453z" fill="#7cb8e1"/><path d="m1549.225 133.695h78.935v187.558h-78.935z" fill="#28aae1"/><path d="m1594.755 300.08h33.406v5.701h-33.406z" fill="#f1f2f7"/><path d="m1576.978 300.08h11.714v5.701h-11.714z" fill="#fff"/><path d="m1549.225 300.08h21.035v5.701h-21.035z" fill="#f1f2f7"/><path d="m1594.755 288.681h13.714v5.699h-13.714z" fill="#f1f2f7"/><path d="m1614.442 288.681h13.718v5.699h-13.718z" fill="#f1f2f7"/><path d="m1582.837 277.282h39.35v5.699h-39.35z" fill="#f1f2f7"/><path d="m1549.225 277.282h27.432v5.699h-27.432z" fill="#f1f2f7"/><path d="m1594.755 265.881h33.406v5.701h-33.406z" fill="#f1f2f7"/><path d="m1556.823 265.881h31.869v5.701h-31.869z" fill="#fff"/><path d="m1576.978 254.483h28.131v5.698h-28.131z" fill="#f1f2f7"/><path d="m1558.356 254.483h10.375v5.698h-10.375z" fill="#f1f2f7"/><path d="m1594.755 243.084h27.433v5.7h-27.433z" fill="#fff"/><path d="m1561.26 243.084h27.433v5.7h-27.433z" fill="#f1f2f7"/><path d="m1549.225 231.684h21.231v5.7h-21.231z" fill="#f1f2f7"/><path d="m1582.837 231.684h18.775v5.7h-18.775z" fill="#f1f2f7"/><path d="m1608.032 231.684h9.388v5.7h-9.388z" fill="#f1f2f7"/><path d="m1594.755 220.285h33.406v5.7h-33.406z" fill="#f1f2f7"/><path d="m1556.545 220.285h27.433v5.7h-27.433z" fill="#fff"/><path d="m1594.755 208.884h13.714v5.701h-13.714z" fill="#f1f2f7"/><path d="m1576.978 208.884h11.714v5.701h-11.714z" fill="#f1f2f7"/><path d="m1608.469 197.484h13.718v5.7h-13.718z" fill="#f1f2f7"/><path d="m1561.26 197.484h27.433v5.7h-27.433z" fill="#f1f2f7"/><path d="m1582.837 186.084h19.675v5.701h-19.675z" fill="#f1f2f7"/><path d="m1549.057 186.084h19.674v5.701h-19.674z" fill="#f1f2f7"/><path d="m1594.755 174.685h27.433v5.7h-27.433z" fill="#fff"/><path d="m1561.26 174.685h27.433v5.7h-27.433z" fill="#f1f2f7"/><path d="m1577.328 163.285h27.433v5.701h-27.433z" fill="#f1f2f7"/><path d="m1594.755 151.885h27.433v5.699h-27.433z" fill="#f1f2f7"/><path d="m1549.225 151.885h28.034v5.699h-28.034z" fill="#fff"/><path d="m1549.057 140.486h79.103v5.7h-79.103z" fill="#f1f2f7"/><path d="m1423.267 894.34h-78.935l78.935-187.558z" fill="#1e292e" opacity=".1" transform="translate(204.893 -573.087)"/><path d="m1824.441 212.63h52.098v108.623h-52.098z" fill="#28aae1"/><path d="m1854.491 308.991h22.048v3.302h-22.048z" fill="#f1f2f7"/><path d="m1842.758 308.991h7.732v3.302h-7.732z" fill="#fff"/><path d="m1824.441 308.991h13.883v3.302h-13.883z" fill="#f1f2f7"/><path d="m1854.491 302.389h9.051v3.301h-9.051z" fill="#f1f2f7"/><path d="m1867.484 302.389h9.054v3.301h-9.054z" fill="#f1f2f7"/><path d="m1846.625 295.788h25.971v3.301h-25.971z" fill="#f1f2f7"/><path d="m1824.441 295.788h18.105v3.301h-18.105z" fill="#f1f2f7"/><path d="m1854.491 289.185h22.048v3.302h-22.048z" fill="#f1f2f7"/><path d="m1829.456 289.185h21.034v3.302h-21.034z" fill="#fff"/><path d="m1842.758 282.584h18.567v3.3h-18.567z" fill="#f1f2f7"/><path d="m1830.467 282.584h6.848v3.3h-6.848z" fill="#f1f2f7"/><path d="m1854.491 275.982h18.105v3.301h-18.105z" fill="#fff"/><path d="m1832.384 275.982h18.106v3.301h-18.106z" fill="#f1f2f7"/><path d="m1824.441 269.38h14.013v3.301h-14.013z" fill="#f1f2f7"/><path d="m1846.625 269.38h12.392v3.301h-12.392z" fill="#f1f2f7"/><path d="m1863.254 269.38h6.196v3.301h-6.196z" fill="#f1f2f7"/><path d="m1854.491 262.778h22.048v3.301h-22.048z" fill="#f1f2f7"/><path d="m1829.272 262.778h18.106v3.301h-18.106z" fill="#fff"/><path d="m1854.491 256.176h9.051v3.302h-9.051z" fill="#f1f2f7"/><path d="m1842.758 256.176h7.732v3.302h-7.732z" fill="#f1f2f7"/><path d="m1863.542 249.573h9.054v3.301h-9.054z" fill="#f1f2f7"/><path d="m1832.384 249.573h18.106v3.301h-18.106z" fill="#f1f2f7"/><path d="m1846.625 242.971h12.986v3.302h-12.986z" fill="#f1f2f7"/><path d="m1824.33 242.971h12.985v3.302h-12.985z" fill="#f1f2f7"/><path d="m1854.491 236.369h18.105v3.301h-18.105z" fill="#fff"/><path d="m1832.384 236.369h18.106v3.301h-18.106z" fill="#f1f2f7"/><path d="m1842.989 229.767h18.106v3.302h-18.106z" fill="#f1f2f7"/><path d="m1854.491 223.165h18.105v3.301h-18.105z" fill="#f1f2f7"/><path d="m1824.441 223.165h18.502v3.301h-18.502z" fill="#fff"/><path d="m1824.33 216.563h52.208v3.301h-52.208z" fill="#f1f2f7"/><path d="m1931.685 968.921h-52.1l52.1-108.623z" fill="#1e292e" opacity=".1" transform="translate(-55.147 -647.668)"/><path d="m1611.474 201.503h57.292v119.75h-57.292z" fill="#28aae1"/><path d="m1644.52 307.735h24.246v3.64h-24.246z" fill="#f1f2f7"/><path d="m1631.617 307.735h8.503v3.64h-8.503z" fill="#fff"/><path d="m1611.474 307.735h15.267v3.64h-15.267z" fill="#f1f2f7"/><path d="m1644.52 300.457h9.954v3.639h-9.954z" fill="#f1f2f7"/><path d="m1658.809 300.457h9.957v3.639h-9.957z" fill="#f1f2f7"/><path d="m1635.87 293.179h28.56v3.639h-28.56z" fill="#f1f2f7"/><path d="m1611.474 293.179h19.91v3.639h-19.91z" fill="#f1f2f7"/><path d="m1644.52 285.9h24.246v3.64h-24.246z" fill="#f1f2f7"/><path d="m1616.989 285.9h23.131v3.64h-23.131z" fill="#fff"/><path d="m1631.617 278.622h20.419v3.638h-20.419z" fill="#f1f2f7"/><path d="m1618.101 278.622h7.53v3.638h-7.53z" fill="#f1f2f7"/><path d="m1644.52 271.345h19.91v3.639h-19.91z" fill="#fff"/><path d="m1620.209 271.345h19.911v3.639h-19.911z" fill="#f1f2f7"/><path d="m1611.474 264.066h15.41v3.639h-15.41z" fill="#f1f2f7"/><path d="m1635.87 264.066h13.627v3.639h-13.627z" fill="#f1f2f7"/><path d="m1654.157 264.066h6.814v3.639h-6.814z" fill="#f1f2f7"/><path d="m1644.52 256.788h24.246v3.639h-24.246z" fill="#f1f2f7"/><path d="m1616.787 256.788h19.911v3.639h-19.911z" fill="#fff"/><path d="m1644.52 249.509h9.954v3.64h-9.954z" fill="#f1f2f7"/><path d="m1631.617 249.509h8.503v3.64h-8.503z" fill="#f1f2f7"/><path d="m1654.473 242.23h9.957v3.639h-9.957z" fill="#f1f2f7"/><path d="m1620.209 242.23h19.911v3.639h-19.911z" fill="#f1f2f7"/><path d="m1635.87 234.952h14.28v3.64h-14.28z" fill="#f1f2f7"/><path d="m1611.352 234.952h14.28v3.64h-14.28z" fill="#f1f2f7"/><path d="m1644.52 227.674h19.91v3.639h-19.91z" fill="#fff"/><path d="m1620.209 227.674h19.911v3.639h-19.911z" fill="#f1f2f7"/><path d="m1631.872 220.395h19.911v3.64h-19.911z" fill="#f1f2f7"/><path d="m1644.52 213.117h19.91v3.639h-19.91z" fill="#f1f2f7"/><path d="m1611.474 213.117h20.347v3.639h-20.347z" fill="#fff"/><path d="m1611.352 205.839h57.414v3.639h-57.414z" fill="#f1f2f7"/><path d="m1522.689 958.408h-57.289l57.292-119.75z" fill="#1e292e" opacity=".1" transform="translate(146.076 -637.155)"/><path d="m1890.254 182.251h56.353v139.002h-56.353z" fill="#28aae1"/><path d="m1922.758 305.561h23.849v4.225h-23.849z" fill="#f1f2f7"/><path d="m1910.067 305.561h8.363v4.225h-8.363z" fill="#fff"/><path d="m1890.254 305.561h15.017v4.225h-15.017z" fill="#f1f2f7"/><path d="m1922.758 297.113h9.791v4.224h-9.791z" fill="#f1f2f7"/><path d="m1936.813 297.113h9.794v4.224h-9.794z" fill="#f1f2f7"/><path d="m1914.25 288.666h28.092v4.224h-28.092z" fill="#f1f2f7"/><path d="m1890.254 288.666h19.584v4.224h-19.584z" fill="#f1f2f7"/><path d="m1922.758 280.216h23.849v4.225h-23.849z" fill="#f1f2f7"/><path d="m1895.679 280.216h22.752v4.225h-22.752z" fill="#fff"/><path d="m1910.067 271.769h20.083v4.223h-20.083z" fill="#f1f2f7"/><path d="m1896.773 271.769h7.407v4.223h-7.407z" fill="#f1f2f7"/><path d="m1922.758 263.321h19.585v4.224h-19.585z" fill="#fff"/><path d="m1898.846 263.321h19.585v4.224h-19.585z" fill="#f1f2f7"/><path d="m1890.254 254.872h15.157v4.224h-15.157z" fill="#f1f2f7"/><path d="m1914.25 254.872h13.404v4.224h-13.404z" fill="#f1f2f7"/><path d="m1932.237 254.872h6.703v4.224h-6.703z" fill="#f1f2f7"/><path d="m1922.758 246.424h23.849v4.224h-23.849z" fill="#f1f2f7"/><path d="m1895.48 246.424h19.585v4.224h-19.585z" fill="#fff"/><path d="m1922.758 237.975h9.791v4.225h-9.791z" fill="#f1f2f7"/><path d="m1910.067 237.975h8.363v4.225h-8.363z" fill="#f1f2f7"/><path d="m1932.549 229.526h9.793v4.224h-9.793z" fill="#f1f2f7"/><path d="m1898.846 229.526h19.585v4.224h-19.585z" fill="#f1f2f7"/><path d="m1914.25 221.077h14.046v4.225h-14.046z" fill="#f1f2f7"/><path d="m1890.134 221.077h14.046v4.225h-14.046z" fill="#f1f2f7"/><path d="m1922.758 212.629h19.585v4.224h-19.585z" fill="#fff"/><path d="m1898.846 212.629h19.585v4.224h-19.585z" fill="#f1f2f7"/><path d="m1910.317 204.181h19.585v4.225h-19.585z" fill="#f1f2f7"/><path d="m1922.758 195.732h19.585v4.224h-19.585z" fill="#f1f2f7"/><path d="m1890.254 195.732h20.014v4.224h-20.014z" fill="#fff"/><path d="m1890.134 187.284h56.473v4.224h-56.473z" fill="#f1f2f7"/><path d="m2063.937 940.218h-56.353l56.353-139z" fill="#1e292e" opacity=".1" transform="translate(-117.33 -618.965)"/><path d="m1773.783 161.208h64.886v160.045h-64.886z" fill="#28aae1"/><path d="m1811.21 174.41h27.459v4.863h-27.459z" fill="#f1f2f7"/><path d="m1796.598 174.41h9.628v4.863h-9.628z" fill="#fff"/><path d="m1773.783 174.41h17.292v4.863h-17.292z" fill="#f1f2f7"/><path d="m1811.21 184.138h11.272v4.864h-11.272z" fill="#f1f2f7"/><path d="m1827.395 184.138h11.274v4.864h-11.274z" fill="#f1f2f7"/><path d="m1801.411 193.865h32.346v4.864h-32.346z" fill="#f1f2f7"/><path d="m1773.783 193.865h22.552v4.864h-22.552z" fill="#f1f2f7"/><path d="m1811.21 203.593h27.459v4.863h-27.459z" fill="#f1f2f7"/><path d="m1780.031 203.593h26.195v4.863h-26.195z" fill="#fff"/><path d="m1796.598 213.32h23.124v4.864h-23.124z" fill="#f1f2f7"/><path d="m1781.288 213.32h8.531v4.864h-8.531z" fill="#f1f2f7"/><path d="m1811.21 223.048h22.547v4.864h-22.547z" fill="#fff"/><path d="m1783.677 223.048h22.549v4.864h-22.549z" fill="#f1f2f7"/><path d="m1773.783 232.776h17.453v4.864h-17.453z" fill="#f1f2f7"/><path d="m1801.411 232.776h15.437v4.864h-15.437z" fill="#f1f2f7"/><path d="m1822.124 232.776h7.718v4.864h-7.718z" fill="#f1f2f7"/><path d="m1811.21 242.503h27.459v4.865h-27.459z" fill="#f1f2f7"/><path d="m1779.802 242.503h22.548v4.865h-22.548z" fill="#fff"/><path d="m1811.21 252.231h11.272v4.864h-11.272z" fill="#f1f2f7"/><path d="m1796.598 252.231h9.628v4.864h-9.628z" fill="#f1f2f7"/><path d="m1822.482 261.959h11.275v4.864h-11.275z" fill="#f1f2f7"/><path d="m1783.677 261.959h22.549v4.864h-22.549z" fill="#f1f2f7"/><path d="m1801.411 271.685h16.174v4.863h-16.174z" fill="#f1f2f7"/><path d="m1773.645 271.685h16.174v4.863h-16.174z" fill="#f1f2f7"/><path d="m1811.21 281.412h22.547v4.864h-22.547z" fill="#fff"/><path d="m1783.677 281.412h22.549v4.864h-22.549z" fill="#f1f2f7"/><path d="m1796.886 291.14h22.549v4.863h-22.549z" fill="#f1f2f7"/><path d="m1811.21 300.867h22.547v4.864h-22.547z" fill="#f1f2f7"/><path d="m1773.783 300.867h23.046v4.864h-23.046z" fill="#fff"/><path d="m1845.954 920.334h-64.884l64.884-160.045z" fill="#1e292e" opacity=".1" transform="translate(-7.285 -599.082)"/><path d="m1685.681 90.225h65.761v231.028h-65.761z" fill="#28aae1"/><path d="m1723.611 295.174h27.831v7.02h-27.831z" fill="#f1f2f7"/><path d="m1708.802 295.174h9.76v7.02h-9.76z" fill="#fff"/><path d="m1685.681 295.174h17.525v7.02h-17.525z" fill="#f1f2f7"/><path d="m1723.611 281.132h11.426v7.021h-11.426z" fill="#f1f2f7"/><path d="m1740.016 281.132h11.426v7.021h-11.426z" fill="#f1f2f7"/><path d="m1713.682 267.092h32.781v7.02h-32.781z" fill="#f1f2f7"/><path d="m1685.681 267.092h22.854v7.02h-22.854z" fill="#f1f2f7"/><path d="m1723.611 253.051h27.831v7.022h-27.831z" fill="#f1f2f7"/><path d="m1692.012 253.051h26.55v7.022h-26.55z" fill="#fff"/><path d="m1708.802 239.01h23.437v7.022h-23.437z" fill="#f1f2f7"/><path d="m1693.286 239.01h8.646v7.022h-8.646z" fill="#f1f2f7"/><path d="m1723.611 224.967h22.852v7.02h-22.852z" fill="#fff"/><path d="m1695.707 224.967h22.855v7.02h-22.855z" fill="#f1f2f7"/><path d="m1685.681 210.925h17.687v7.02h-17.687z" fill="#f1f2f7"/><path d="m1713.682 210.925h15.642v7.02h-15.642z" fill="#f1f2f7"/><path d="m1734.673 210.925h7.822v7.02h-7.822z" fill="#f1f2f7"/><path d="m1723.611 196.883h27.831v7.02h-27.831z" fill="#f1f2f7"/><path d="m1691.781 196.883h22.853v7.02h-22.853z" fill="#fff"/><path d="m1723.611 182.842h11.426v7.02h-11.426z" fill="#f1f2f7"/><path d="m1708.802 182.842h9.76v7.02h-9.76z" fill="#f1f2f7"/><path d="m1735.037 168.799h11.426v7.021h-11.426z" fill="#f1f2f7"/><path d="m1695.707 168.799h22.855v7.021h-22.855z" fill="#f1f2f7"/><path d="m1713.682 154.759h16.39v7.02h-16.39z" fill="#f1f2f7"/><path d="m1685.541 154.759h16.391v7.02h-16.391z" fill="#f1f2f7"/><path d="m1723.611 140.716h22.852v7.021h-22.852z" fill="#fff"/><path d="m1695.707 140.716h22.855v7.021h-22.855z" fill="#f1f2f7"/><path d="m1709.095 126.674h22.853v7.022h-22.853z" fill="#f1f2f7"/><path d="m1723.611 112.632h22.852v7.022h-22.852z" fill="#f1f2f7"/><path d="m1685.681 112.632h23.356v7.022h-23.356z" fill="#fff"/><path d="m1685.541 98.59h65.901v7.021h-65.901z" fill="#f1f2f7"/><path d="m1675.48 853.266h-65.761l65.761-231.028z" fill="#1e292e" opacity=".1" transform="translate(75.962 -532.013)"/><path d="m1431.97 209.628h45.257v111.626h-45.257z" fill="#28aae1"/><path d="m1458.075 218.836h19.152v3.392h-19.152z" fill="#f1f2f7"/><path d="m1447.883 218.836h6.715v3.392h-6.715z" fill="#fff"/><path d="m1431.97 218.836h12.062v3.392h-12.062z" fill="#f1f2f7"/><path d="m1458.075 225.621h7.863v3.392h-7.863z" fill="#f1f2f7"/><path d="m1469.364 225.621h7.863v3.392h-7.863z" fill="#f1f2f7"/><path d="m1451.241 232.406h22.562v3.391h-22.562z" fill="#f1f2f7"/><path d="m1431.97 232.406h15.729v3.391h-15.729z" fill="#f1f2f7"/><path d="m1458.075 239.19h19.152v3.393h-19.152z" fill="#f1f2f7"/><path d="m1436.329 239.19h18.269v3.393h-18.269z" fill="#fff"/><path d="m1447.883 245.975h16.128v3.393h-16.128z" fill="#f1f2f7"/><path d="m1437.206 245.975h5.949v3.393h-5.949z" fill="#f1f2f7"/><path d="m1458.075 252.761h15.728v3.392h-15.728z" fill="#fff"/><path d="m1438.872 252.761h15.726v3.392h-15.726z" fill="#f1f2f7"/><path d="m1431.97 259.545h12.172v3.393h-12.172z" fill="#f1f2f7"/><path d="m1451.241 259.545h10.765v3.393h-10.765z" fill="#f1f2f7"/><path d="m1465.688 259.545h5.382v3.393h-5.382z" fill="#f1f2f7"/><path d="m1458.075 266.33h19.152v3.393h-19.152z" fill="#f1f2f7"/><path d="m1436.17 266.33h15.725v3.393h-15.725z" fill="#fff"/><path d="m1458.075 273.112h7.863v3.392h-7.863z" fill="#f1f2f7"/><path d="m1447.883 273.112h6.715v3.392h-6.715z" fill="#f1f2f7"/><path d="m1465.937 279.897h7.865v3.392h-7.865z" fill="#f1f2f7"/><path d="m1438.872 279.897h15.726v3.392h-15.726z" fill="#f1f2f7"/><path d="m1451.241 286.681h11.279v3.393h-11.279z" fill="#f1f2f7"/><path d="m1431.875 286.681h11.28v3.393h-11.28z" fill="#f1f2f7"/><path d="m1458.075 293.466h15.728v3.391h-15.728z" fill="#fff"/><path d="m1438.872 293.466h15.726v3.391h-15.726z" fill="#f1f2f7"/><path d="m1448.084 300.25h15.728v3.393h-15.728z" fill="#f1f2f7"/><path d="m1458.075 307.035h15.728v3.392h-15.728z" fill="#f1f2f7"/><path d="m1431.97 307.035h16.075v3.392h-16.075z" fill="#fff"/><path d="m1161.548 966.084h-45.254l45.254-111.626z" fill="#1e292e" opacity=".1" transform="translate(315.679 -644.831)"/><path d="m1493.904 180.857h56.919v140.396h-56.919z" fill="#28aae1"/><path d="m1526.734 305.405h24.089v4.266h-24.089z" fill="#f1f2f7"/><path d="m1513.917 305.405h8.446v4.266h-8.446z" fill="#fff"/><path d="m1493.904 305.405h15.168v4.266h-15.168z" fill="#f1f2f7"/><path d="m1526.734 296.872h9.89v4.266h-9.89z" fill="#f1f2f7"/><path d="m1540.933 296.872h9.89v4.266h-9.89z" fill="#f1f2f7"/><path d="m1518.139 288.339h28.375v4.266h-28.375z" fill="#f1f2f7"/><path d="m1493.904 288.339h19.781v4.266h-19.781z" fill="#f1f2f7"/><path d="m1526.734 279.807h24.089v4.265h-24.089z" fill="#f1f2f7"/><path d="m1499.383 279.807h22.98v4.265h-22.98z" fill="#fff"/><path d="m1513.917 271.275h20.284v4.266h-20.284z" fill="#f1f2f7"/><path d="m1500.486 271.275h7.483v4.266h-7.483z" fill="#f1f2f7"/><path d="m1526.734 262.741h19.78v4.267h-19.78z" fill="#fff"/><path d="m1502.582 262.741h19.781v4.267h-19.781z" fill="#f1f2f7"/><path d="m1493.904 254.207h15.308v4.266h-15.308z" fill="#f1f2f7"/><path d="m1518.139 254.207h13.539v4.266h-13.539z" fill="#f1f2f7"/><path d="m1536.308 254.207h6.77v4.266h-6.77z" fill="#f1f2f7"/><path d="m1526.734 245.673h24.089v4.267h-24.089z" fill="#f1f2f7"/><path d="m1499.183 245.673h19.779v4.267h-19.779z" fill="#fff"/><path d="m1526.734 237.14h9.89v4.267h-9.89z" fill="#f1f2f7"/><path d="m1513.917 237.14h8.446v4.267h-8.446z" fill="#f1f2f7"/><path d="m1536.624 228.607h9.889v4.266h-9.889z" fill="#f1f2f7"/><path d="m1502.582 228.607h19.781v4.266h-19.781z" fill="#f1f2f7"/><path d="m1518.139 220.074h14.188v4.266h-14.188z" fill="#f1f2f7"/><path d="m1493.783 220.074h14.186v4.266h-14.186z" fill="#f1f2f7"/><path d="m1526.734 211.541h19.78v4.266h-19.78z" fill="#fff"/><path d="m1502.582 211.541h19.781v4.266h-19.781z" fill="#f1f2f7"/><path d="m1514.169 203.007h19.779v4.267h-19.779z" fill="#f1f2f7"/><path d="m1526.734 194.474h19.78v4.267h-19.78z" fill="#f1f2f7"/><path d="m1493.904 194.474h20.215v4.267h-20.215z" fill="#fff"/><path d="m1493.783 185.941h57.04v4.266h-57.04z" fill="#f1f2f7"/><path d="m1293.661 938.9h-56.919l56.919-140.4z" fill="#1e292e" opacity=".1" transform="translate(257.162 -617.647)"/><path d="m2098.981 1025.044c-7.583-1.382-13.329-9.9-14.816-19.869s-.453-19.24 5.365-14.284 8.5-2.187 6.926-7.879 2.55-42.062 9.142-33.548-.132 6.415 8.515-2.9 26.452-11.556 18.534 3.456-20.005 27.2-12.321 23.589 19.5-2.251 11.71 6.346-19.86 20.069-13.94 20.035 27.2-6.572 9.975 8.494-29.09 16.56-29.09 16.56z" fill="#4192d4" transform="translate(-154.239 -685.984)"/><path d="m2138.8 953.431a171.5 171.5 0 0 0 -10.782 18.051 135.3 135.3 0 0 0 -8.328 19.248 103.272 103.272 0 0 0 -4.541 20.4 157.159 157.159 0 0 0 -1.532 20.84l-2.042.016a158.68 158.68 0 0 1 2.06-21.081 104.621 104.621 0 0 1 5.093-20.511 136.041 136.041 0 0 1 8.841-19.151 171.788 171.788 0 0 1 11.231-17.812z" fill="#fff" transform="translate(-167.848 -692.915)"/><path d="m2124.688 998.384a53.339 53.339 0 0 0 -.838-10.677 70.8 70.8 0 0 0 -2.579-10.463 71.054 71.054 0 0 1 3.042 10.375 54.012 54.012 0 0 1 1.317 10.783z" fill="#fff" transform="translate(-172.561 -704.484)"/><path d="m2103.458 1074.724a18.476 18.476 0 0 0 -1.778-3.087 24.173 24.173 0 0 0 -2.306-2.833 26.535 26.535 0 0 0 -5.774-4.591 26.916 26.916 0 0 1 6.315 4.022 25.106 25.106 0 0 1 2.694 2.677 19.633 19.633 0 0 1 2.272 3.147z" fill="#fff" transform="translate(-159.118 -746.735)"/><path d="m2115 1059.6c2.168-1.951 4.407-3.757 6.735-5.47a49.493 49.493 0 0 1 7.34-4.54 49.092 49.092 0 0 0 -6.849 5.153c-2.134 1.891-4.194 3.891-6.112 5.964z" fill="#fff" transform="translate(-169.516 -739.633)"/><path d="m2120.915 1031.255a60.443 60.443 0 0 1 8.581-6.662 37.935 37.935 0 0 1 9.758-4.587 37.63 37.63 0 0 0 -9.4 5.107 59.609 59.609 0 0 0 -8.032 7.018z" fill="#fff" transform="translate(-172.388 -725.259)"/><path d="m2039.37 1016.138c8.1-1.485 14.666-10.521 16.8-21.08s1.562-20.37-4.876-15.107-9.021-2.339-6.89-8.321c5.469-15.348-.334-44.524-7.79-35.491s-6.172 1.781-8.852-3.045c-6.353-11.439-27.352-12.155-19.815 3.714s19.649 28.734 11.717 24.938-20.512-2.325-12.753 6.754 19.9 21.189 13.63 21.17-28.42-6.876-11.037 9.023 29.866 17.445 29.866 17.445z" fill="#4164d4" transform="translate(-115.094 -678.947)"/><path d="m2028.393 940.977a169.38 169.38 0 0 1 10.954 19.038 135.3 135.3 0 0 1 8.25 20.393 107.95 107.95 0 0 1 4.14 21.644 165.92 165.92 0 0 1 .941 22.062l-1.925-.118a164.522 164.522 0 0 0 -.456-21.809 106.753 106.753 0 0 0 -3.625-21.506 134.654 134.654 0 0 0 -7.76-20.457 169.1 169.1 0 0 0 -10.519-19.247z" fill="#fff" transform="translate(-127.439 -686.864)"/><path d="m2073.083 1065.8a56.607 56.607 0 0 1 6.033-7.245 43.129 43.129 0 0 1 7.186-5.977 42.724 42.724 0 0 0 -6.613 6.494 55.564 55.564 0 0 0 -5.289 7.533z" fill="#fff" transform="translate(-149.15 -741.08)"/><path d="m2060.093 1057.688a55.758 55.758 0 0 0 -6.069-4.635 32.934 32.934 0 0 0 -6.812-3.528 33.284 33.284 0 0 1 7.157 2.948 56.792 56.792 0 0 1 6.586 4.177z" fill="#fff" transform="translate(-136.582 -739.599)"/><path d="m2051.618 1024.368a58.7 58.7 0 0 0 -8.155-7.715 35.577 35.577 0 0 0 -9.787-5.55 35.84 35.84 0 0 1 10.129 5.083 59.382 59.382 0 0 1 8.682 7.419z" fill="#fff" transform="translate(-130.006 -720.933)"/><path d="m2066.207 960.751a101.875 101.875 0 0 1 -2.11 11.948q-1.355 5.921-3.034 11.763l-.737-.228q1.85-5.759 3.4-11.626a101.857 101.857 0 0 0 2.481-11.857z" fill="#fff" transform="translate(-142.953 -696.471)"/><path d="m1286.17 1029.088c-3.608 6.6-17.546 15.94-23.892 5.822-7.906-12.606-3.308-23.788 2.551-28.973 6.54-5.788 9.774 10.675 17.2-.617 13.091-19.92 14.597 4.647 4.141 23.768z" fill="#4164d4" transform="translate(246.804 -714.531)"/><path d="m1286.378 1023.432c-.906 2.846-1.841 5.685-2.613 8.558a58.489 58.489 0 0 0 -2.084 17.547 86.643 86.643 0 0 0 .781 8.8l-2.5.267a88.647 88.647 0 0 1 -.168-9.077 59.7 59.7 0 0 1 3.366-17.719c.984-2.836 2.116-5.6 3.218-8.376z" fill="#fff" transform="translate(236.27 -726.923)"/><path d="m1289.7 1045.715a53.43 53.43 0 0 1 -6.053 23.384l-1.486-.836a52.94 52.94 0 0 0 5.046-10.8 53.694 53.694 0 0 0 2.493-11.748z" fill="#fff" transform="translate(235.099 -737.749)"/><path d="m1283.742 1043.29a30.244 30.244 0 0 1 2.6-2.725 16.987 16.987 0 0 1 3.058-2.211 40.672 40.672 0 0 1 6.908-2.827 40.563 40.563 0 0 0 -6.687 3.192 16.484 16.484 0 0 0 -2.837 2.309 29.453 29.453 0 0 0 -2.382 2.8z" fill="#fff" transform="translate(234.33 -732.799)"/><path d="m1294.347 1056.2a11.7 11.7 0 0 1 3.188-2.756 23.021 23.021 0 0 1 3.881-1.573 22.914 22.914 0 0 0 -3.759 1.779 11.338 11.338 0 0 0 -2.941 2.854z" fill="#fff" transform="translate(229.178 -740.741)"/><path d="m1260.062 1045.339a17.367 17.367 0 0 1 3.409 2.493c1.054.941 2.058 1.938 3.03 2.964s1.907 2.09 2.808 3.186a33.239 33.239 0 0 1 2.537 3.467l-1.062.591a32.212 32.212 0 0 0 -2.2-3.506c-.806-1.138-1.651-2.255-2.538-3.338s-1.808-2.14-2.784-3.146a17.228 17.228 0 0 0 -3.2-2.711z" fill="#fff" transform="translate(245.834 -737.566)"/><path d="m1285.948 1058.774a6.026 6.026 0 0 1 1.144.974c.348.362.678.743 1 1.132a17.394 17.394 0 0 1 1.733 2.491l-.385.186a17.16 17.16 0 0 0 -1.518-2.547c-.287-.407-.586-.807-.906-1.189a5.936 5.936 0 0 0 -1.068-1.047z" fill="#fff" transform="translate(233.258 -744.093)"/><path d="m1273.451 1024.642a27.7 27.7 0 0 1 3.916 3.447 28.559 28.559 0 0 1 3.263 4.108l-.5.3a28.077 28.077 0 0 0 -2.978-4.216 27.557 27.557 0 0 0 -3.701-3.639z" fill="#fff" transform="translate(239.329 -727.511)"/><path d="m461.419 942.482c-25.732 11.3-64.014-12.552-58.994-43.931s27.614-28.87 18.828-58.994 15.062-75.938 32.635-31.38 12.812 56.125 33.89 55.228c29.497-1.254-.628 67.781-26.359 79.077z" fill="#4192d4" transform="translate(662.711 -613.328)"/><path d="m466.014 819.923c3.649 13.327 7.554 26.583 11.077 39.959s6.759 26.84 9.459 40.436c5.358 27.183 8.586 54.938 8.078 82.89l-6.27-.259c1.533-27.315-.593-54.877-4.9-82.08-2.171-13.607-4.873-27.142-7.894-40.614s-6.408-26.874-9.55-40.332z" fill="#fff" transform="translate(631.6 -628.054)"/><path d="m473.462 1038.956a123.6 123.6 0 0 0 -7.469-10.84 57.432 57.432 0 0 0 -9.172-9.312 78.808 78.808 0 0 0 -11.013-7.277c-3.863-2.161-7.837-4.143-11.833-6.076 4.1 1.695 8.189 3.439 12.2 5.381a79.967 79.967 0 0 1 11.6 6.721 59.416 59.416 0 0 1 10.027 9.048 126.307 126.307 0 0 1 8.279 10.614z" fill="#fff" transform="translate(647.166 -718.188)"/><path d="m541.5 949.856a79.5 79.5 0 0 0 -9.871 8.6 70.171 70.171 0 0 0 -8.076 10.208c-4.748 7.273-8.378 15.219-12 23.17l-2.82-1.376c4.1-7.748 8.256-15.577 13.533-22.694a71.29 71.29 0 0 1 8.811-9.869 79.873 79.873 0 0 1 10.423-8.039z" fill="#fff" transform="translate(610.844 -691.178)"/><path d="m499.329 866.936c-2.063 3.388-3.9 6.9-5.658 10.446s-3.419 7.141-5.038 10.755l-1.41-.688c1.86-3.511 3.765-7 5.757-10.437s4.067-6.831 6.349-10.076z" fill="#fff" transform="translate(621.296 -650.894)"/><path d="m474.378 954.372c-3.238-4.529-6.716-8.923-11.113-12.308a30.356 30.356 0 0 0 -7.209-4.112 35.712 35.712 0 0 0 -8.107-2.133 36.01 36.01 0 0 1 8.295 1.617 31.206 31.206 0 0 1 7.66 3.734c4.766 3.2 8.644 7.5 12.222 11.871z" fill="#fff" transform="translate(640.377 -684.358)"/><path d="m690.2 991.731c-7.738 14.152-37.632 34.188-51.242 12.486-16.956-27.035-7.095-51.019 5.471-62.139 14.027-12.413 20.964 22.895 36.883-1.323 28.088-42.724 31.315 9.966 8.888 50.976z" fill="#28aae1" transform="translate(551.968 -679.052)"/><path d="m690.638 979.6c-1.942 6.1-3.949 12.193-5.6 18.356a125.389 125.389 0 0 0 -4.47 37.633 185.7 185.7 0 0 0 1.676 18.872l-5.4-.135a176.619 176.619 0 0 1 -.315-18.76 128.025 128.025 0 0 1 7.22-38c2.096-6.085 4.525-12.014 6.889-17.966z" fill="#fff" transform="translate(529.386 -705.628)"/><path d="m697.771 1027.39a114.578 114.578 0 0 1 -12.983 50.152l-3.187-1.793a113.492 113.492 0 0 0 10.822-23.156 115.154 115.154 0 0 0 5.348-25.203z" fill="#fff" transform="translate(526.863 -728.846)"/><path d="m684.995 1022.191a64.841 64.841 0 0 1 5.578-5.845 36.486 36.486 0 0 1 6.56-4.744 87.322 87.322 0 0 1 14.816-6.063 86.963 86.963 0 0 0 -14.344 6.846 35.343 35.343 0 0 0 -6.084 4.952 63.222 63.222 0 0 0 -5.108 6.007z" fill="#fff" transform="translate(525.214 -718.23)"/><path d="m707.739 1049.888a25.091 25.091 0 0 1 6.838-5.911 49.422 49.422 0 0 1 8.324-3.375 49.158 49.158 0 0 0 -8.061 3.814 24.332 24.332 0 0 0 -6.307 6.12z" fill="#fff" transform="translate(514.164 -735.265)"/><path d="m634.208 1026.585a37.224 37.224 0 0 1 7.312 5.347c2.261 2.018 4.413 4.156 6.5 6.357s4.09 4.483 6.022 6.834a71.156 71.156 0 0 1 5.441 7.436l-2.278 1.268a69.263 69.263 0 0 0 -4.719-7.52c-1.728-2.442-3.541-4.837-5.445-7.158s-3.879-4.589-5.971-6.746a36.924 36.924 0 0 0 -6.862-5.818z" fill="#fff" transform="translate(549.887 -728.455)"/><path d="m689.725 1055.4a12.834 12.834 0 0 1 2.454 2.09c.748.776 1.455 1.592 2.137 2.427a37.321 37.321 0 0 1 3.716 5.343l-.826.4a36.758 36.758 0 0 0 -3.255-5.464c-.616-.874-1.257-1.73-1.942-2.551a12.766 12.766 0 0 0 -2.284-2.245z" fill="#fff" transform="translate(522.916 -742.453)"/><path d="m662.923 982.195a59.45 59.45 0 0 1 8.4 7.393 61.287 61.287 0 0 1 7 8.811l-1.082.653a60.337 60.337 0 0 0 -6.387-9.042 59.144 59.144 0 0 0 -7.931-7.815z" fill="#fff" transform="translate(535.937 -706.889)"/><path d="m609.435 869.432c-6.351 25.4-59.994 80.7-67.032 25.4-9.879-77.616 28.224-68.443 15.523-141.12-6.084-34.816 28.93-45.864 41.63 11.289s16.229 79.029 9.879 104.431z" fill="#4164d4" transform="translate(595.293 -581.875)"/><path d="m610 789.56c-2.758 14.8-5.756 29.558-8.38 44.372s-4.976 29.67-6.832 44.577c-3.682 29.806-5.362 59.865-3.779 89.708l-6.072.242c-.587-30.356 2.141-60.576 6.842-90.374 2.367-14.9 5.212-29.71 8.35-44.444s6.618-29.383 9.871-44.081z" fill="#fff" transform="translate(573.863 -613.303)"/><path d="m592.532 984.472c2.138-3.7 4.354-7.377 6.836-10.9a58.884 58.884 0 0 1 8.452-9.771 67.629 67.629 0 0 1 10.314-7.647c3.632-2.238 7.379-4.253 11.151-6.208-3.65 2.176-7.267 4.41-10.733 6.842a66.455 66.455 0 0 0 -9.671 8.1c-5.871 6.012-9.881 13.493-13.671 21.02z" fill="#fff" transform="translate(570.135 -691.222)"/><path d="m578.4 915c5.139 7.93 9.1 16.6 13.032 25.175l-2.829 1.109c-2.986-8.923-5.947-17.854-10.203-26.284z" fill="#fff" transform="translate(577 -674.246)"/><path d="m559.6 999.141c3.193 5.868 6.7 11.55 9.772 17.524s5.845 12.077 8.534 18.209l-2.828 1.109c-2.206-6.287-4.477-12.548-7.079-18.671-2.583-6.126-5.658-12.076-8.399-18.171z" fill="#fff" transform="translate(586.134 -715.122)"/><path d="m592.56 806.882a79.7 79.7 0 0 1 8.487 11.576 98.039 98.039 0 0 1 6.618 12.807l-1.415.554a96.885 96.885 0 0 0 -5.862-12.981 79.3 79.3 0 0 0 -7.828-11.956z" fill="#fff" transform="translate(570.122 -621.718)"/><path d="m606 900.68a52.657 52.657 0 0 1 10.453-11.98 33.2 33.2 0 0 1 14.158-6.784 32.659 32.659 0 0 0 -13.462 7.588 51.077 51.077 0 0 0 -9.334 12.286z" fill="#fff" transform="translate(563.592 -658.172)"/><path d="m0 460.973h3369.368v80.576h-3369.368z" fill="#c2e3f5"/><g clip-path="url(#a)" transform="translate(858 321.462)"><path d="m1665.179 1225.022h-2363.884l1181.977-152.661z" fill="#c2e3f5" transform="translate(339.446 -1072.156)"/><path d="m1697.9 1217.382h-3282.316l1585.961-133.258h107.407z" fill="#c2e3f5" transform="translate(769.744 -1077.871)"/><path d="m1679.849 1217.382h-2627.8l1269.412-133.258h85.989z" fill="#c2e3f5" transform="translate(460.538 -1077.871)"/><g fill="#fff"><path d="m-38.026 1084.124-1630.763 144.847v-11.589l1627.924-133.258z" transform="translate(810.735 -1077.871)"/><path d="m1709.015 1084.124 1630.907 133.258v11.948l-1633.746-145.206z" transform="translate(-828.899 -1077.871)"/><path d="m1650.539 1094.32h-2.281l-2.411-1.05h2.047z" transform="translate(-799.59 -1082.315)"/><path d="m1660.386 1098.385h-2.8l-3.548-1.546h2.456z" transform="translate(-803.57 -1084.049)"/><path d="m1675.664 1104.684h-3.622l-5.734-2.5h3.067z" transform="translate(-809.53 -1086.646)"/><path d="m1702.647 1115.784h-5.13l-10.81-4.71h4.083z" transform="translate(-819.441 -1090.965)"/><path d="m1763.8 1140.834h-8.788l-27.692-12.066h6.106z" transform="translate(-839.17 -1099.561)"/><path d="m2069.561 1264.546h-30.628l-191.264-83.338h12.1z" transform="translate(-897.64 -1125.037)"/><path d="m1627.076 1084.618h-1.086l-.577-.251h1.03z" transform="translate(-789.663 -1077.99)"/><path d="m1629.18 1085.489h-1.191l-.691-.3h1.124z" transform="translate(-790.579 -1078.389)"/><path d="m1631.722 1086.541h-1.322l-.841-.366h1.237z" transform="translate(-791.679 -1078.868)"/><path d="m1634.855 1087.838h-1.476l-1.047-.456h1.375z" transform="translate(-793.024 -1079.454)"/><path d="m1638.813 1089.474h-1.677l-1.339-.583h1.547z" transform="translate(-794.707 -1080.188)"/><path d="m1643.969 1091.606h-1.941l-1.772-.772h1.769z" transform="translate(-796.874 -1081.132)"/><path d="m1557.173 1094.32h-2.281l2.624-1.05h2.048z" transform="translate(-755.402 -1082.315)"/><path d="m1546.369 1098.385h-2.8l3.861-1.546h2.456z" transform="translate(-749.902 -1084.049)"/><path d="m1529.216 1104.684h-3.622l6.239-2.5h3.067z" transform="translate(-741.169 -1086.646)"/><path d="m1497.782 1115.784h-5.13l11.763-4.71h4.083z" transform="translate(-725.165 -1090.965)"/><path d="m1421.517 1140.834h-8.788l30.135-12.066h6.106z" transform="translate(-686.336 -1099.561)"/><path d="m966.2 1264.546h-30.627l208.137-83.338h12.1z" transform="translate(-454.523 -1125.037)"/><path d="m1582.095 1084.618h-1.086l.628-.251h1.03z" transform="translate(-768.091 -1077.99)"/><path d="m1579.908 1085.489h-1.191l.751-.3h1.124z" transform="translate(-766.977 -1078.389)"/><path d="m1577.252 1086.541h-1.318l.915-.366h1.237z" transform="translate(-765.625 -1078.868)"/><path d="m1573.961 1087.838h-1.476l1.14-.456h1.375z" transform="translate(-763.95 -1079.454)"/><path d="m1569.774 1089.474h-1.674l1.457-.583h1.547z" transform="translate(-761.818 -1080.188)"/><path d="m1564.268 1091.606h-1.941l1.929-.772h1.769z" transform="translate(-759.015 -1081.132)"/><path d="m1746.95 1092.9h-2.3l-2.322-.29h2.225z" transform="translate(-846.464 -1081.994)"/><path d="m1755.64 1093.969h-2.44l-2.613-.327h2.358z" transform="translate(-850.476 -1082.496)"/><path d="m1765.458 1095.177h-2.6l-2.963-.371h2.508z" transform="translate(-854.997 -1083.061)"/><path d="m1776.64 1096.553h-2.785l-3.388-.424h2.678z" transform="translate(-860.134 -1083.704)"/><path d="m1789.492 1098.134h-3l-3.912-.489h2.874z" transform="translate(-866.02 -1084.44)"/><path d="m1804.417 1099.97h-3.243l-4.568-.571h3.1z" transform="translate(-872.833 -1085.292)"/><path d="m1821.961 1102.128h-3.534l-5.4-.676h3.365z" transform="translate(-880.809 -1086.29)"/><path d="m1842.881 1104.7h-3.881l-6.489-.812h3.679z" transform="translate(-890.276 -1087.474)"/><path d="m1868.257 1107.822h-4.307l-7.94-.993h4.058z" transform="translate(-901.692 -1088.902)"/><path d="m1899.681 1111.686h-4.836l-9.939-1.243h4.524z" transform="translate(-915.731 -1090.658)"/><path d="m1939.615 1116.6h-5.515l-12.8-1.6h5.111z" transform="translate(-933.413 -1092.869)"/><path d="m1992.063 1123.045h-6.41l-17.1-2.139h5.873z" transform="translate(-956.368 -1095.741)"/><path d="m2064.018 1131.889h-7.655l-24-3h6.9z" transform="translate(-987.367 -1099.618)"/><path d="m2168.9 1144.777h-9.5l-36.119-4.518h8.369z" transform="translate(-1031.538 -1105.143)"/><path d="m2336.214 1165.327h-12.522l-60.444-7.56h10.627z" transform="translate(-1099.538 -1113.649)"/><path d="m2646.322 1203.386h-18.358l-121.343-15.178h14.552z" transform="translate(-1217.774 -1128.438)"/><path d="m3429.852 1299.387h-34.379l-360.361-45.074h23.076z" transform="translate(-1474.527 -1160.553)"/><path d="m1676.826 1084.271h-1.159l-.6-.075h1.14z" transform="translate(-813.787 -1077.906)"/><path d="m1679 1084.54h-1.194l-.637-.08h1.174z" transform="translate(-814.81 -1078.034)"/><path d="m1681.317 1084.824h-1.231l-.677-.085h1.21z" transform="translate(-815.896 -1078.17)"/><path d="m1683.777 1085.127h-1.271l-.721-.09h1.248z" transform="translate(-817.05 -1078.315)"/><path d="m1686.4 1085.45h-1.313l-.769-.1h1.289z" transform="translate(-818.281 -1078.469)"/><path d="m1689.2 1085.795h-1.359l-.822-.1h1.333z" transform="translate(-819.594 -1078.633)"/><path d="m1692.2 1086.164h-1.4l-.881-.11h1.379z" transform="translate(-821 -1078.809)"/><path d="m1695.425 1086.56h-1.459l-.947-.118h1.43z" transform="translate(-822.508 -1078.997)"/><path d="m1698.892 1086.987h-1.516l-1.021-.128h1.483z" transform="translate(-824.129 -1079.2)"/><path d="m1702.632 1087.447h-1.576l-1.1-.138h1.541z" transform="translate(-825.877 -1079.419)"/><path d="m1706.682 1087.945h-1.641l-1.2-.15h1.6z" transform="translate(-827.767 -1079.655)"/><path d="m1711.079 1088.486h-1.713l-1.3-.163h1.672z" transform="translate(-829.818 -1079.912)"/><path d="m1715.872 1089.076h-1.791l-1.42-.178h1.746z" transform="translate(-832.05 -1080.191)"/><path d="m1721.116 1089.722h-1.876l-1.557-.195h1.827z" transform="translate(-834.49 -1080.496)"/><path d="m1726.878 1090.43h-1.97l-1.714-.214h1.916z" transform="translate(-837.167 -1080.831)"/><path d="m1733.238 1091.213h-2.074l-1.9-.237h2.014z" transform="translate(-840.118 -1081.2)"/><path d="m1740.294 1092.081h-2.189l-2.11-.264h2.122z" transform="translate(-843.387 -1081.609)"/><path d="m1460.168 1092.9h-2.3l2.388-.29h2.225z" transform="translate(-708.267 -1081.994)"/><path d="m1451.236 1093.969h-2.44l2.688-.327h2.358z" transform="translate(-703.858 -1082.496)"/><path d="m1441.124 1095.177h-2.6l3.048-.371h2.508z" transform="translate(-698.868 -1083.061)"/><path d="m1429.582 1096.553h-2.782l3.485-.424h2.678z" transform="translate(-693.171 -1083.704)"/><path d="m1416.284 1098.134h-3l4.024-.489h2.874z" transform="translate(-686.608 -1084.44)"/><path d="m1400.8 1099.97h-3.244l4.7-.571h3.1z" transform="translate(-678.964 -1085.292)"/><path d="m1382.53 1102.128h-3.53l5.557-.676h3.365z" transform="translate(-669.948 -1086.29)"/><path d="m1360.662 1104.7h-3.883l6.675-.812h3.679z" transform="translate(-659.155 -1087.474)"/><path d="m1334.013 1107.822h-4.307l8.166-.993h4.058z" transform="translate(-646.002 -1088.902)"/><path d="m1300.821 1111.686h-4.836l10.223-1.243h4.524z" transform="translate(-629.62 -1090.658)"/><path d="m1258.338 1116.6h-5.513l13.166-1.6h5.111z" transform="translate(-608.652 -1092.869)"/><path d="m1202.031 1123.045h-6.41l17.59-2.139h5.873z" transform="translate(-580.86 -1095.741)"/><path d="m1123.839 1131.889h-7.656l24.689-3h6.9z" transform="translate(-542.268 -1099.618)"/><path d="m1007.928 1144.778h-9.5l37.153-4.518h8.369z" transform="translate(-485.059 -1105.143)"/><path d="m818.327 1165.327h-12.527l62.17-7.56h10.63z" transform="translate(-391.479 -1113.649)"/><path d="m452.013 1203.386h-18.358l124.8-15.177h14.552z" transform="translate(-210.68 -1128.438)"/><path d="m-553.688 1299.387h-34.38l370.652-45.074h23.076z" transform="translate(285.696 -1160.553)"/><path d="m1531.658 1084.271h-1.158l.617-.075h1.14z" transform="translate(-743.552 -1077.906)"/><path d="m1529.454 1084.54h-1.194l.655-.08h1.174z" transform="translate(-742.464 -1078.034)"/><path d="m1527.112 1084.824h-1.231l.7-.085h1.21z" transform="translate(-741.308 -1078.17)"/><path d="m1524.619 1085.127h-1.271l.741-.09h1.248z" transform="translate(-740.078 -1078.315)"/><path d="m1521.96 1085.45h-1.313l.791-.1h1.289z" transform="translate(-738.765 -1078.469)"/><path d="m1519.117 1085.795h-1.359l.846-.1h1.333z" transform="translate(-737.362 -1078.633)"/><path d="m1516.071 1086.164h-1.407l.907-.11h1.379z" transform="translate(-735.859 -1078.809)"/><path d="m1512.8 1086.56h-1.459l.974-.118h1.429z" transform="translate(-734.244 -1078.997)"/><path d="m1509.277 1086.987h-1.515l1.05-.128h1.483z" transform="translate(-732.505 -1079.2)"/><path d="m1505.472 1087.447h-1.572l1.135-.138h1.541z" transform="translate(-730.627 -1079.419)"/><path d="m1501.35 1087.945h-1.641l1.23-.15h1.6z" transform="translate(-728.593 -1079.655)"/><path d="m1496.87 1088.486h-1.713l1.338-.163h1.672z" transform="translate(-726.382 -1079.912)"/><path d="m1491.982 1089.076h-1.791l1.461-.178h1.746z" transform="translate(-723.969 -1080.191)"/><path d="m1486.628 1089.722h-1.876l1.6-.195h1.827z" transform="translate(-721.327 -1080.496)"/><path d="m1480.74 1090.43h-1.97l1.763-.214h1.916z" transform="translate(-718.42 -1080.831)"/><path d="m1474.231 1091.213h-2.074l1.951-.237h2.014z" transform="translate(-715.208 -1081.2)"/><path d="m1467 1092.081h-2.189l2.171-.264h2.123z" transform="translate(-711.639 -1081.609)"/></g></g><path d="m1492.074 1294.624h-54.209l83.633-217.363z" fill="#fff" transform="translate(159.453 -753.075)"/><path d="m1629.614 1294.624h54.208l-83.633-217.363z" fill="#fff" transform="translate(80.592 -753.075)"/><g opacity="0" transform="translate(1667.094 323.589)"><path d="m653.573 1171.456c.011 0 .025.011-.048.031-.393.106-1.452.353-1.855.443a5.169 5.169 0 0 1 -1.247.12c-.405 0-1.619-.109-1.8-.14s.184-.145.665-.219c.508-.079 2.615-.359 2.615-.359s1.607.116 1.67.124z" fill="#0c1b24" opacity=".35" transform="translate(-648.571 -1169.51)"/><path d="m722.472 1172.7c.01 0 .021.009-.04.026-.33.089-1.218.3-1.557.372a4.345 4.345 0 0 1 -1.047.1c-.34 0-1.428-.077-1.582-.1s.221-.161.627-.2 2.194-.3 2.194-.3 1.352.093 1.405.102z" fill="#000b19" transform="translate(-717.643 -1170.762)"/><g fill="#0c2635" transform="translate(.582 1.309)"><ellipse cx=".333" cy=".455" rx=".333" ry=".455"/><path d="m760.34 1108.512h.2l-.023.924-.177-.014z" transform="translate(-760.01 -1108.512)"/></g><g transform="translate(.773 1.312)"><ellipse cx=".32" cy=".46" fill="#0c2635" rx=".32" ry=".46"/><ellipse cx=".341" cy=".46" fill="#f0f2f8" rx=".236" ry=".352"/><ellipse cx=".346" cy=".46" fill="#0c2635" rx=".208" ry=".317"/><path d="m757.55 1123.029-.024.287.2-.1.016.061-.2.109.161.2-.027.053-.168-.2-.09.246-.039-.044.086-.25-.168-.071.012-.072.164.073.023-.286z" fill="#f0f2f8" transform="translate(-757.175 -1122.91)"/><ellipse cx=".321" cy=".46" fill="#a6b3c6" rx=".068" ry=".102"/><path d="m777.245 1159.448c0 .027.015.049.033.049s.033-.022.033-.049-.015-.049-.033-.049-.033.022-.033.049z" fill="#f0f2f8" transform="translate(-776.969 -1158.987)"/></g><g transform="translate(.977 .593)"><path d="m768.652 1020.708c.03.019.027.091.048.133 0 0 .035.026.021.046a.035.035 0 0 1 -.035.016.087.087 0 0 1 -.034-.028.729.729 0 0 1 -.115-.027c-.048-.016-.071-.112-.054-.155s.123-.014.169.015z" fill="#225ec4" transform="translate(-768.478 -1020.675)"/><g clip-path="url(#b)"><path d="m764.132 1013.571c.017.081.052.163-.059.128a.16.16 0 0 1 -.114-.095.371.371 0 0 1 -.033-.111l-.011.237.254.063.026-.019-.022-.041v-.034z" fill="#231f20" opacity=".15" transform="translate(-763.952 -1013.551)"/></g></g><path d="m839.537 1078.512-.414.2-.949.18-.673-.023-1.087-.054.317-.816 2.764.072a1.883 1.883 0 0 0 .039.194.738.738 0 0 1 .003.247z" fill="#151717" transform="translate(-834.883 -1076.938)"/><path d="m962.788 1111.023c0 .276.1.5.222.5s.222-.223.222-.5-.1-.5-.222-.5-.222.224-.222.5z" fill="#0c2635" transform="translate(-960.227 -1109.198)"/><path d="m990.028 1110.524h.279l.005 1.01-.284-.012z" fill="#0c2635" transform="translate(-987.245 -1109.198)"/><path d="m996.6 1111.029c0 .279.1.505.231.505s.231-.226.231-.505-.1-.5-.231-.5-.231.221-.231.5z" fill="#0c2635" transform="translate(-993.766 -1109.198)"/><path d="m1005.868 1125.429c0 .214.076.387.17.387s.17-.173.17-.387-.076-.387-.17-.387-.17.173-.17.387z" fill="#d0d2d3" transform="translate(-1002.956 -1123.598)"/><path d="m1008.813 1130.123c0 .192.067.348.15.348s.15-.156.15-.348-.067-.348-.15-.348-.15.156-.15.348z" fill="#d0d2d3" transform="translate(-1005.877 -1128.292)"/><path d="m1006.805 1126.045-.03.315.154-.114.012.067-.16.12.129.214-.02.058-.134-.22-.052.27-.028-.049.049-.275-.108-.078.009-.079.105.08.03-.314z" fill="#d0d2d3" transform="translate(-1003.699 -1124.589)"/><path d="m1017.636 1158.862c0 .062.022.112.049.112s.049-.05.049-.112-.022-.112-.049-.112-.049.05-.049.112z" fill="#a6b3c6" transform="translate(-1014.628 -1157.031)"/><path d="m1018.5 1165.986c0 .029.01.053.023.053s.023-.024.023-.053-.01-.053-.023-.053-.023.024-.023.053z" fill="#f0f2f8" transform="translate(-1015.487 -1164.155)"/><path d="m1158.039 1101.7c0 .209.068.379.151.379s.151-.17.151-.379-.068-.379-.151-.379-.151.168-.151.379z" fill="#0c2635" transform="translate(-1153.887 -1100.068)"/><path d="m1176.57 1101.319h.19v.768l-.193-.009z" fill="#0c2635" transform="translate(-1172.267 -1100.068)"/><path d="m1181.043 1101.7c0 .212.07.384.157.384s.157-.172.157-.384-.07-.384-.157-.384-.157.175-.157.384z" fill="#0c2635" transform="translate(-1176.703 -1100.068)"/><path d="m1187.346 1112.651c0 .162.052.294.116.294s.116-.132.116-.294-.052-.294-.116-.294-.116.132-.116.294z" fill="#d0d2d3" transform="translate(-1182.955 -1111.016)"/><path d="m1189.35 1116.219c0 .146.046.265.1.265s.1-.118.1-.265-.045-.265-.1-.265-.1.119-.1.265z" fill="#d0d2d3" transform="translate(-1184.943 -1114.585)"/><path d="m1187.984 1113.119-.021.24.1-.087.008.051-.109.091.088.163-.013.045-.091-.167-.036.205-.019-.037.034-.209-.073-.059.006-.06.071.06.02-.239z" fill="#d0d2d3" transform="translate(-1183.461 -1111.769)"/><path d="m1195.352 1138.068c0 .047.015.085.033.085s.033-.038.033-.085-.015-.085-.033-.085-.033.038-.033.085z" fill="#a6b3c6" transform="translate(-1190.896 -1136.433)"/><path d="m1195.941 1143.484c0 .022.007.041.016.041s.016-.018.016-.041-.007-.041-.016-.041-.016.019-.016.041z" fill="#f0f2f8" transform="translate(-1191.48 -1141.85)"/><g transform="translate(.423)"><path d="m704.729 949.459v-.089s-.008-.33-.143-.323c-.11.006-.157.142-.191.294-.029.127-.048.318-.118.329-.15.023-.332.054-.488.078s-.4.09-.4.09c.023-.263-.023-.793-.25-.782-.21.011-.284.4-.323.846a3.842 3.842 0 0 1 -.66.049c-.2 0-1.181-.032-1.3-.047s-.208-.021-.269-.154a.842.842 0 0 1 -.073-.5c.033-.142.07-.4.593-.593.018-.007.109 0 .128-.006a2.505 2.505 0 0 1 1.176-.683c.344-.047.9-.07 1.315-.087a1.007 1.007 0 0 1 .79.419c.083.065.143.109.143.109s.108.46.128.495a1.4 1.4 0 0 1 -.058.555z" fill="#225ec4" transform="translate(-700.498 -947.884)"/><g clip-path="url(#c)"><path d="m731.515 1036.422c-.5.145-.2.289.145.3a6.906 6.906 0 0 0 1.764-.326z" fill="#fff" opacity=".2" transform="translate(-731.001 -1035.678)"/><path d="m981.437 1082.355a2.834 2.834 0 0 1 .073-.7c.06-.2.15-.323.3-.326.18 0 .328.45.227.875-.037.138-.6.151-.6.151z" fill="#0c1b24" opacity=".1" transform="translate(-979.147 -1080.242)"/><path d="m1168.524 1084.024a3.172 3.172 0 0 1 .077-.508c.044-.133.116-.223.211-.225.117 0 .186.331.12.635-.021.099-.408.098-.408.098z" fill="#0c1b24" opacity=".1" transform="translate(-1164.709 -1082.187)"/><path d="m996.416 1000.174 1.335-.273.087-.054.144.1a.322.322 0 0 1 -.129.085c-.3.085-.975.189-1.221.224l-.057-.058-.083.01.061.059c-.236.033-.515.044-.137-.093z" fill="#fff" opacity=".2" transform="translate(-993.82 -999.423)"/></g></g><path d="m1069.719 1146.531c-.193.033-.462.087-.4.108a1.727 1.727 0 0 0 .445-.065c.36-.074.53-.141-.045-.043z" fill="#fff" opacity=".2" transform="translate(-1065.878 -1144.863)"/><path d="m715.975 1164.566a.1.1 0 0 0 .049-.077 2.857 2.857 0 0 1 -.493.03 1.067 1.067 0 0 0 -.608-.254c-.154-.005-.971-.035-1.067-.031s0 .318.094.329c.23.028 1.043.067 1.247.061s.778-.058.778-.058z" fill="#0c2635" transform="translate(-713.285 -1162.471)"/><path d="m1178.145 1027.428-.115.032.007-.03.115-.032z" fill="#0c2635" fill-rule="evenodd" transform="translate(-1173.714 -1026.751)"/><path d="m1178.023 1026.839-.116.032.007-.03.116-.032z" fill="#f0f2f8" fill-rule="evenodd" transform="translate(-1173.593 -1026.166)"/><path d="m1112.335 1042.07-.16.03.011-.033.161-.03z" fill="#0c2635" fill-rule="evenodd" transform="translate(-1108.396 -1041.269)"/><path d="m1112.246 1041.387-.16.03.011-.033.16-.03z" fill="#f0f2f8" fill-rule="evenodd" transform="translate(-1108.308 -1040.591)"/><path d="m773.515 1080.33a.041.041 0 1 1 .01-.064.047.047 0 0 1 -.01.064z" fill="#d0d2d3" transform="translate(-772.424 -1079.177)"/><path d="m1054.384 1053.557c.052.222.083.624.163.613.1-.013.594-.105.658-.123s.143-.348.2-.483.221-.4.331.256c.014.08.019-.165.012-.253-.015-.186-.065-.27-.56-.225-.183.017-.834.086-.804.215z" fill="#0c1b24" opacity=".1" transform="translate(-1051.075 -1052.47)"/><path d="m898.053 1096.738c.041-.089-.084-.088-.373.114-.177.124-.383.258-.28.341a.668.668 0 0 0 .366.156c.118-.006.135-.067.147-.122a4.461 4.461 0 0 1 .14-.489z" fill="#0c1b24" opacity=".1" transform="translate(-895.345 -1095.469)"/><path d="m701.641 1106.352c.148 0 .439 0 .613.006a.822.822 0 0 1 .552.2c.078.067-.235.11-.568.111-.216 0-.475-.007-.623-.015s-.317 0-.282-.087a.334.334 0 0 1 .308-.215z" fill="#0c1b24" opacity=".1" transform="translate(-700.898 -1105.059)"/><g transform="translate(1.084 .001)"><path d="m781.594 948.737c.424.007 1.444-.02 1.763-.055.2-.32.421-.673.8-.721-.552.009-1.028.034-1.32.065a2.828 2.828 0 0 0 -1.243.711z" fill="#0c2635" transform="translate(-781.594 -947.961)"/><g clip-path="url(#d)"><path d="m784.8 948.219a6.6 6.6 0 0 1 2.537-.793c-.552.009-.851.024-1.142.052a2.738 2.738 0 0 0 -1.395.741z" fill="#6c8094" transform="translate(-784.777 -947.43)"/></g></g><path d="m1053.075 1154.435s-.242.057-.466.1-.32.074-.493.118a.446.446 0 0 1 -.024.045v.018s.451-.1.591-.118a1.286 1.286 0 0 0 .36-.064.308.308 0 0 0 .032-.099z" fill="#0c2635" transform="translate(-1048.799 -1152.752)"/><g transform="translate(3.019 .077)"><path d="m1019.013 958.043a10.441 10.441 0 0 0 1.356-.227c.036-.01.037-.031.052-.092a.958.958 0 0 0 -.714-.353c-.454.049-.694.672-.694.672z" fill="#0c2635" transform="translate(-1019.013 -957.37)"/><g clip-path="url(#e)"><path d="m1020.339 946.555a1.169 1.169 0 0 1 .788-.407 1.47 1.47 0 0 1 .61.105.447.447 0 0 0 -.456-.431c-.436 0-.744.1-.82.238a2.062 2.062 0 0 0 -.122.495z" fill="#6c8094" transform="translate(-1020.328 -945.916)"/></g></g><path d="m1019.743 957.369h-.036c-.453.049-.694.671-.694.671a10.43 10.43 0 0 0 1.356-.227c.036-.01.037-.031.052-.092a.991.991 0 0 0 -.678-.352zm.628.406s0 0-.011.006c-.042.012-.233.056-.487.1-.207.038-.51.089-.8.118a1.6 1.6 0 0 1 .15-.257 1.028 1.028 0 0 1 .21-.221.568.568 0 0 1 .282-.119h.032a.778.778 0 0 1 .313.083 1.01 1.01 0 0 1 .328.246.215.215 0 0 1 -.017.045z" fill="#0c2635" transform="translate(-1015.994 -957.292)"/><g fill="none" stroke="#404041" stroke-linejoin="round" stroke-width=".535"><path d="m1108.688 957.59.134.548.095.085a4 4 0 0 1 -.033.89c-.011.051.044.089.044.089s0 .126-.087.15" transform="translate(-1104.938 -957.511)"/><path d="m1176.408 985.716.074.215.081.085a2.685 2.685 0 0 1 0 .276.471.471 0 0 0 .021.149.6.6 0 0 1 0 .135" transform="translate(-1172.106 -985.408)"/><path d="m1034.17 1038.469.093.095a4.651 4.651 0 0 1 .172.865.35.35 0 0 0 .031.094s.012.123-.068.159" transform="translate(-1031.027 -1037.731)"/><path d="m951.579 1040.124s.373-.115.55-.159" transform="translate(-949.109 -1039.215)"/><path d="m997.873 1036.4a.115.115 0 0 1 .041.064" transform="translate(-995.026 -1035.678)"/><path d="m723.474 1093.538s-.533.025-.722.022-.447-.028-.447-.028" transform="translate(-721.704 -1092.345)"/><path d="m946.663 1078.787a.608.608 0 0 1 .451.138l.044.046" transform="translate(-944.233 -1077.72)"/></g><g transform="translate(3.09 .556)"><path d="m1027.881 1016.172a.423.423 0 0 0 -.13.135s-.053.028-.031.05a.064.064 0 0 0 .054.018.134.134 0 0 0 .051-.03 1.491 1.491 0 0 0 .175-.029c.074-.018.107-.12.106-.171s-.155-.005-.225.027z" fill="#225ec4" transform="translate(-1027.714 -1016.127)"/><g clip-path="url(#f)"><path d="m1028.488 1008.4c-.066.092-.125.156.046.118a.243.243 0 0 0 .174-.1.316.316 0 0 0 .051-.12l.017.256-.388.068-.041-.02.034-.044v-.037z" fill="#231f20" opacity=".15" transform="translate(-1028.342 -1008.361)"/></g></g><path d="m860.336 1059.6a.042.042 0 0 1 -.021-.079.9.9 0 0 1 .186-.07c.147-.038.4-.1.535-.134a.042.042 0 0 1 .044.065.412.412 0 0 1 -.266.172 4.16 4.16 0 0 1 -.478.046z" fill="#fffdeb" transform="translate(-858.566 -1058.41)"/><path d="m713.7 1067.81a.046.046 0 0 1 -.055.048c-.037-.008-.075-.025-.071-.063.009-.07.131-.148.131-.148a.847.847 0 0 0 -.005.163z" fill="#fffdeb" transform="translate(-713.039 -1066.671)"/></g><path d="m461.419 942.482c-25.732 11.3-64.014-12.552-58.994-43.931s27.614-28.87 18.828-58.994 15.062-75.938 32.635-31.38 12.812 56.125 33.89 55.228c29.497-1.254-.628 67.781-26.359 79.077z" fill="#4192d4" transform="translate(1854.711 -588.328)"/><path d="m466.014 819.923c3.649 13.327 7.554 26.583 11.077 39.959s6.759 26.84 9.459 40.436c5.358 27.183 8.586 54.938 8.078 82.89l-6.27-.259c1.533-27.315-.593-54.877-4.9-82.08-2.171-13.607-4.873-27.142-7.894-40.614s-6.408-26.874-9.55-40.332z" fill="#fff" transform="translate(1823.6 -603.054)"/><path d="m473.462 1038.956a123.6 123.6 0 0 0 -7.469-10.84 57.432 57.432 0 0 0 -9.172-9.312 78.808 78.808 0 0 0 -11.013-7.277c-3.863-2.161-7.837-4.143-11.833-6.076 4.1 1.695 8.189 3.439 12.2 5.381a79.967 79.967 0 0 1 11.6 6.721 59.416 59.416 0 0 1 10.027 9.048 126.307 126.307 0 0 1 8.279 10.614z" fill="#fff" transform="translate(1839.166 -693.188)"/><path d="m541.5 949.856a79.5 79.5 0 0 0 -9.871 8.6 70.171 70.171 0 0 0 -8.076 10.208c-4.748 7.273-8.378 15.219-12 23.17l-2.82-1.376c4.1-7.748 8.256-15.577 13.533-22.694a71.29 71.29 0 0 1 8.811-9.869 79.873 79.873 0 0 1 10.423-8.039z" fill="#fff" transform="translate(1802.844 -666.178)"/><path d="m499.329 866.936c-2.063 3.388-3.9 6.9-5.658 10.446s-3.419 7.141-5.038 10.755l-1.41-.688c1.86-3.511 3.765-7 5.757-10.437s4.067-6.831 6.349-10.076z" fill="#fff" transform="translate(1813.296 -625.894)"/><path d="m474.378 954.372c-3.238-4.529-6.716-8.923-11.113-12.308a30.356 30.356 0 0 0 -7.209-4.112 35.712 35.712 0 0 0 -8.107-2.133 36.01 36.01 0 0 1 8.295 1.617 31.206 31.206 0 0 1 7.66 3.734c4.766 3.2 8.644 7.5 12.222 11.871z" fill="#fff" transform="translate(1832.377 -659.358)"/><path d="m690.2 991.731c-7.738 14.152-37.632 34.188-51.242 12.486-16.956-27.035-7.095-51.019 5.471-62.139 14.027-12.413 20.964 22.895 36.883-1.323 28.088-42.724 31.315 9.966 8.888 50.976z" fill="#28aae1" transform="translate(1743.968 -654.052)"/><path d="m690.638 979.6c-1.942 6.1-3.949 12.193-5.6 18.356a125.389 125.389 0 0 0 -4.47 37.633 185.7 185.7 0 0 0 1.676 18.872l-5.4-.135a176.619 176.619 0 0 1 -.315-18.76 128.025 128.025 0 0 1 7.22-38c2.096-6.085 4.525-12.014 6.889-17.966z" fill="#fff" transform="translate(1721.386 -680.628)"/><path d="m697.771 1027.39a114.578 114.578 0 0 1 -12.983 50.152l-3.187-1.793a113.492 113.492 0 0 0 10.822-23.156 115.154 115.154 0 0 0 5.348-25.203z" fill="#fff" transform="translate(1718.863 -703.846)"/><path d="m684.995 1022.191a64.841 64.841 0 0 1 5.578-5.845 36.486 36.486 0 0 1 6.56-4.744 87.322 87.322 0 0 1 14.816-6.063 86.963 86.963 0 0 0 -14.344 6.846 35.343 35.343 0 0 0 -6.084 4.952 63.222 63.222 0 0 0 -5.108 6.007z" fill="#fff" transform="translate(1717.214 -693.23)"/><path d="m707.739 1049.888a25.091 25.091 0 0 1 6.838-5.911 49.422 49.422 0 0 1 8.324-3.375 49.158 49.158 0 0 0 -8.061 3.814 24.332 24.332 0 0 0 -6.307 6.12z" fill="#fff" transform="translate(1706.164 -710.265)"/><path d="m634.208 1026.585a37.224 37.224 0 0 1 7.312 5.347c2.261 2.018 4.413 4.156 6.5 6.357s4.09 4.483 6.022 6.834a71.156 71.156 0 0 1 5.441 7.436l-2.278 1.268a69.263 69.263 0 0 0 -4.719-7.52c-1.728-2.442-3.541-4.837-5.445-7.158s-3.879-4.589-5.971-6.746a36.924 36.924 0 0 0 -6.862-5.818z" fill="#fff" transform="translate(1741.887 -703.455)"/><path d="m689.725 1055.4a12.834 12.834 0 0 1 2.454 2.09c.748.776 1.455 1.592 2.137 2.427a37.321 37.321 0 0 1 3.716 5.343l-.826.4a36.758 36.758 0 0 0 -3.255-5.464c-.616-.874-1.257-1.73-1.942-2.551a12.766 12.766 0 0 0 -2.284-2.245z" fill="#fff" transform="translate(1714.916 -717.453)"/><path d="m662.923 982.195a59.45 59.45 0 0 1 8.4 7.393 61.287 61.287 0 0 1 7 8.811l-1.082.653a60.337 60.337 0 0 0 -6.387-9.042 59.144 59.144 0 0 0 -7.931-7.815z" fill="#fff" transform="translate(1727.937 -681.889)"/><path d="m609.435 869.432c-6.351 25.4-59.994 80.7-67.032 25.4-9.879-77.616 28.224-68.443 15.523-141.12-6.084-34.816 28.93-45.864 41.63 11.289s16.229 79.029 9.879 104.431z" fill="#4164d4" transform="translate(1787.293 -556.875)"/><path d="m610 789.56c-2.758 14.8-5.756 29.558-8.38 44.372s-4.976 29.67-6.832 44.577c-3.682 29.806-5.362 59.865-3.779 89.708l-6.072.242c-.587-30.356 2.141-60.576 6.842-90.374 2.367-14.9 5.212-29.71 8.35-44.444s6.618-29.383 9.871-44.081z" fill="#fff" transform="translate(1765.863 -588.303)"/><path d="m592.532 984.472c2.138-3.7 4.354-7.377 6.836-10.9a58.884 58.884 0 0 1 8.452-9.771 67.629 67.629 0 0 1 10.314-7.647c3.632-2.238 7.379-4.253 11.151-6.208-3.65 2.176-7.267 4.41-10.733 6.842a66.455 66.455 0 0 0 -9.671 8.1c-5.871 6.012-9.881 13.493-13.671 21.02z" fill="#fff" transform="translate(1762.135 -666.222)"/><path d="m578.4 915c5.139 7.93 9.1 16.6 13.032 25.175l-2.829 1.109c-2.986-8.923-5.947-17.854-10.203-26.284z" fill="#fff" transform="translate(1769 -649.246)"/><path d="m559.6 999.141c3.193 5.868 6.7 11.55 9.772 17.524s5.845 12.077 8.534 18.209l-2.828 1.109c-2.206-6.287-4.477-12.548-7.079-18.671-2.583-6.126-5.658-12.076-8.399-18.171z" fill="#fff" transform="translate(1778.134 -690.122)"/><path d="m592.56 806.882a79.7 79.7 0 0 1 8.487 11.576 98.039 98.039 0 0 1 6.618 12.807l-1.415.554a96.885 96.885 0 0 0 -5.862-12.981 79.3 79.3 0 0 0 -7.828-11.956z" fill="#fff" transform="translate(1762.122 -596.718)"/><path d="m606 900.68a52.657 52.657 0 0 1 10.453-11.98 33.2 33.2 0 0 1 14.158-6.784 32.659 32.659 0 0 0 -13.462 7.588 51.077 51.077 0 0 0 -9.334 12.286z" fill="#fff" transform="translate(1755.592 -633.172)"/><path d="m1292.3 1035.885c-4.395 8.038-21.373 19.417-29.1 7.092-9.63-15.355-4.03-28.976 3.107-35.292 7.966-7.05 11.906 13 20.948-.752 15.945-24.265 17.781 5.66 5.045 28.952z" fill="#4164d4" transform="translate(1436.803 -651.062)"/><path d="m1287.824 1023.432c-1.1 3.467-2.243 6.925-3.183 10.425a71.241 71.241 0 0 0 -2.539 21.374 105.6 105.6 0 0 0 .952 10.718l-3.039.325a107.908 107.908 0 0 1 -.2-11.056 72.706 72.706 0 0 1 4.1-21.584c1.185-3.454 2.566-6.821 3.909-10.202z" fill="#fff" transform="translate(1428.701 -660.593)"/><path d="m1291.344 1045.715a65.083 65.083 0 0 1 -7.374 28.484l-1.811-1.018a64.479 64.479 0 0 0 6.147-13.151 65.4 65.4 0 0 0 3.038-14.315z" fill="#fff" transform="translate(1427.8 -668.92)"/><path d="m1283.742 1044.984a36.837 36.837 0 0 1 3.169-3.319 20.691 20.691 0 0 1 3.725-2.694 49.548 49.548 0 0 1 8.414-3.444 49.408 49.408 0 0 0 -8.146 3.888 20.083 20.083 0 0 0 -3.455 2.813 35.882 35.882 0 0 0 -2.9 3.412z" fill="#fff" transform="translate(1427.208 -665.113)"/><path d="m1294.347 1057.149a14.245 14.245 0 0 1 3.883-3.357 28.041 28.041 0 0 1 4.728-1.917 27.917 27.917 0 0 0 -4.578 2.167 13.808 13.808 0 0 0 -3.582 3.476z" fill="#fff" transform="translate(1423.245 -671.222)"/><path d="m1260.062 1045.339a21.159 21.159 0 0 1 4.153 3.037c1.284 1.146 2.506 2.361 3.691 3.611s2.323 2.546 3.42 3.881a40.513 40.513 0 0 1 3.09 4.223l-1.294.72a39.257 39.257 0 0 0 -2.68-4.271c-.981-1.387-2.011-2.747-3.092-4.065s-2.2-2.607-3.391-3.832a20.984 20.984 0 0 0 -3.897-3.304z" fill="#fff" transform="translate(1436.057 -668.779)"/><path d="m1285.948 1058.774a7.341 7.341 0 0 1 1.394 1.187c.424.441.825.9 1.213 1.379a21.191 21.191 0 0 1 2.111 3.034l-.469.226a20.9 20.9 0 0 0 -1.849-3.1c-.349-.5-.714-.983-1.1-1.449a7.236 7.236 0 0 0 -1.3-1.277z" fill="#fff" transform="translate(1426.384 -673.8)"/><path d="m1273.451 1024.642a33.741 33.741 0 0 1 4.77 4.2 34.781 34.781 0 0 1 3.974 5l-.614.371a34.191 34.191 0 0 0 -3.627-5.135 33.571 33.571 0 0 0 -4.503-4.436z" fill="#fff" transform="translate(1431.054 -661.045)"/><path d="m2094.4 999.524c-5.33-.971-9.368-6.958-10.413-13.965s-.318-13.522 3.771-10.04 5.975-1.537 4.868-5.538 1.792-29.562 6.425-23.579-.093 4.509 5.985-2.038 18.591-8.122 13.026 2.429-14.06 19.115-8.659 16.579 13.7-1.582 8.23 4.46-13.958 14.105-9.8 14.082 19.114-4.619 7.01 5.97-20.443 11.64-20.443 11.64z" fill="#4192d4" transform="translate(740.45 -593.461)"/><path d="m2130.7 953.431a120.531 120.531 0 0 0 -7.578 12.687 95.087 95.087 0 0 0 -5.853 13.528 72.586 72.586 0 0 0 -3.192 14.336 110.433 110.433 0 0 0 -1.077 14.647l-1.436.011a111.505 111.505 0 0 1 1.448-14.816 73.535 73.535 0 0 1 3.579-14.416 95.627 95.627 0 0 1 6.214-13.46 120.748 120.748 0 0 1 7.895-12.517z" fill="#fff" transform="translate(722.56 -602.572)"/><path d="m2123.673 992.1a37.492 37.492 0 0 0 -.589-7.5 49.793 49.793 0 0 0 -1.813-7.354 49.957 49.957 0 0 1 2.138 7.292 37.993 37.993 0 0 1 .926 7.578z" fill="#fff" transform="translate(716.365 -617.779)"/><path d="m2100.529 1071.6a12.991 12.991 0 0 0 -1.25-2.17 16.983 16.983 0 0 0 -1.621-1.991 18.649 18.649 0 0 0 -4.058-3.227 18.913 18.913 0 0 1 4.439 2.827 17.623 17.623 0 0 1 1.893 1.881 13.8 13.8 0 0 1 1.6 2.212z" fill="#fff" transform="translate(734.036 -673.319)"/><path d="m2115 1056.628c1.524-1.372 3.1-2.641 4.734-3.844a34.792 34.792 0 0 1 5.159-3.191 34.492 34.492 0 0 0 -4.814 3.622c-1.5 1.329-2.948 2.735-4.3 4.192z" fill="#fff" transform="translate(720.368 -663.983)"/><path d="m2120.915 1027.912a42.478 42.478 0 0 1 6.031-4.682 26.661 26.661 0 0 1 6.858-3.224 26.448 26.448 0 0 0 -6.61 3.589 41.905 41.905 0 0 0 -5.646 4.932z" fill="#fff" transform="translate(716.592 -645.088)"/><path d="m2028.557 988.959c5.7-1.044 10.308-7.395 11.809-14.816s1.1-14.317-3.427-10.618-6.341-1.644-4.843-5.848c3.844-10.787-.235-31.293-5.475-24.944s-4.338 1.252-6.221-2.14c-4.465-8.04-19.224-8.543-13.927 2.61s13.81 20.2 8.235 17.527-14.417-1.634-8.963 4.747 13.983 14.892 9.579 14.879-19.974-4.833-7.757 6.342 20.99 12.261 20.99 12.261z" fill="#4164d4" transform="translate(791.906 -584.211)"/><path d="m2028.393 940.977a119.054 119.054 0 0 1 7.7 13.38 95.082 95.082 0 0 1 5.8 14.333 75.872 75.872 0 0 1 2.91 15.212 116.592 116.592 0 0 1 .661 15.506l-1.353-.083a115.624 115.624 0 0 0 -.32-15.328 75.026 75.026 0 0 0 -2.548-15.115 94.639 94.639 0 0 0 -5.454-14.378 118.848 118.848 0 0 0 -7.396-13.527z" fill="#fff" transform="translate(775.678 -594.618)"/><path d="m2073.083 1061.867a39.806 39.806 0 0 1 4.24-5.092 30.313 30.313 0 0 1 5.05-4.2 30.017 30.017 0 0 0 -4.648 4.564 39.033 39.033 0 0 0 -3.717 5.294z" fill="#fff" transform="translate(747.138 -665.886)"/><path d="m2056.265 1055.262a39.177 39.177 0 0 0 -4.265-3.262 23.156 23.156 0 0 0 -4.787-2.48 23.393 23.393 0 0 1 5.03 2.072 39.906 39.906 0 0 1 4.629 2.936z" fill="#fff" transform="translate(763.66 -663.938)"/><path d="m2046.286 1020.426a41.259 41.259 0 0 0 -5.732-5.422 25.006 25.006 0 0 0 -6.879-3.9 25.193 25.193 0 0 1 7.119 3.573 41.748 41.748 0 0 1 6.1 5.214z" fill="#fff" transform="translate(772.304 -639.402)"/><path d="m2064.459 960.751a71.592 71.592 0 0 1 -1.483 8.4q-.953 4.162-2.132 8.267l-.518-.16q1.3-4.048 2.387-8.171a71.572 71.572 0 0 0 1.746-8.336z" fill="#fff" transform="translate(755.285 -607.246)"/><path d="m2095.178 1003.871c-5.714-1.041-10.043-7.459-11.163-14.97s-.341-14.5 4.042-10.763 6.406-1.648 5.219-5.937 1.921-31.692 6.888-25.277-.1 4.833 6.416-2.185 19.93-8.707 13.965 2.6-15.073 20.492-9.283 17.774 14.689-1.7 8.823 4.781-14.963 15.121-10.5 15.1 20.49-4.952 7.515 6.4-21.922 12.477-21.922 12.477z" fill="#4192d4" transform="translate(-1415.87 -606.565)"/><path d="m2132.083 953.431a129.21 129.21 0 0 0 -8.123 13.6 101.924 101.924 0 0 0 -6.275 14.5 77.809 77.809 0 0 0 -3.421 15.369 118.419 118.419 0 0 0 -1.155 15.7l-1.539.012a119.557 119.557 0 0 1 1.552-15.883 78.844 78.844 0 0 1 3.837-15.455 102.54 102.54 0 0 1 6.661-14.429 129.473 129.473 0 0 1 8.463-13.414z" fill="#fff" transform="translate(-1433.031 -615.305)"/><path d="m2123.846 993.172a40.2 40.2 0 0 0 -.631-8.045 53.277 53.277 0 0 0 -1.943-7.884 53.543 53.543 0 0 1 2.292 7.817 40.681 40.681 0 0 1 .992 8.124z" fill="#fff" transform="translate(-1438.974 -629.893)"/><path d="m2101.028 1072.132a13.913 13.913 0 0 0 -1.34-2.326 18.2 18.2 0 0 0 -1.737-2.134 20 20 0 0 0 -4.351-3.459 20.279 20.279 0 0 1 4.759 3.031 18.911 18.911 0 0 1 2.03 2.017 14.8 14.8 0 0 1 1.712 2.371z" fill="#fff" transform="translate(-1422.023 -683.169)"/><path d="m2115 1057.135c1.633-1.47 3.321-2.831 5.075-4.121a37.271 37.271 0 0 1 5.53-3.421 36.974 36.974 0 0 0 -5.161 3.883c-1.608 1.425-3.16 2.932-4.605 4.494z" fill="#fff" transform="translate(-1435.134 -674.213)"/><path d="m2120.915 1028.481a45.545 45.545 0 0 1 6.465-5.019 28.585 28.585 0 0 1 7.352-3.456 28.347 28.347 0 0 0 -7.086 3.848 44.889 44.889 0 0 0 -6.052 5.287z" fill="#fff" transform="translate(-1438.756 -656.088)"/><path d="m2030.4 993.589c6.106-1.119 11.05-7.927 12.66-15.883s1.176-15.348-3.674-11.383-6.8-1.763-5.191-6.269c4.12-11.564-.251-33.547-5.87-26.741s-4.651 1.342-6.669-2.294c-4.786-8.619-20.609-9.158-14.93 2.8s14.8 21.65 8.828 18.789-15.455-1.752-9.609 5.089 14.99 15.965 10.27 15.95-21.413-5.181-8.316 6.8 22.501 13.142 22.501 13.142z" fill="#4164d4" transform="translate(-1366.511 -597.692)"/><path d="m2028.393 940.977a127.594 127.594 0 0 1 8.253 14.344 101.943 101.943 0 0 1 6.216 15.365 81.357 81.357 0 0 1 3.12 16.308 125.018 125.018 0 0 1 .709 16.623l-1.45-.089a123.968 123.968 0 0 0 -.343-16.432 80.439 80.439 0 0 0 -2.731-16.2 101.446 101.446 0 0 0 -5.847-15.414 127.388 127.388 0 0 0 -7.927-14.505z" fill="#fff" transform="translate(-1382.077 -607.675)"/><path d="m2073.083 1062.536a42.648 42.648 0 0 1 4.546-5.459 32.5 32.5 0 0 1 5.414-4.5 32.192 32.192 0 0 0 -4.983 4.893 41.885 41.885 0 0 0 -3.985 5.676z" fill="#fff" transform="translate(-1409.454 -676.038)"/><path d="m2056.917 1055.675a41.99 41.99 0 0 0 -4.573-3.492 24.808 24.808 0 0 0 -5.132-2.659 25.075 25.075 0 0 1 5.393 2.221 42.764 42.764 0 0 1 4.962 3.147z" fill="#fff" transform="translate(-1393.605 -674.17)"/><path d="m2047.194 1021.1a44.217 44.217 0 0 0 -6.144-5.813 26.8 26.8 0 0 0 -7.374-4.181 27 27 0 0 1 7.632 3.83 44.753 44.753 0 0 1 6.542 5.589z" fill="#fff" transform="translate(-1385.313 -650.633)"/><path d="m2064.757 960.751a76.785 76.785 0 0 1 -1.59 9q-1.021 4.461-2.286 8.863l-.555-.172q1.394-4.339 2.559-8.76a76.8 76.8 0 0 0 1.872-8.931z" fill="#fff" transform="translate(-1401.639 -619.789)"/><path d="m1279.241 1021.406c-2.719 4.972-13.22 12.01-18 4.387-5.957-9.5-2.493-17.923 1.922-21.83 4.927-4.361 7.365 8.043 12.957-.465 9.864-15.01 10.999 3.502 3.121 17.908z" fill="#4164d4" transform="translate(-910.183 -637.033)"/><path d="m1284.743 1023.432c-.682 2.144-1.387 4.283-1.969 6.448a44.08 44.08 0 0 0 -1.57 13.221 65.236 65.236 0 0 0 .589 6.629l-1.88.2a66.784 66.784 0 0 1 -.127-6.839 44.981 44.981 0 0 1 2.536-13.351c.738-2.134 1.591-4.217 2.421-6.308z" fill="#fff" transform="translate(-923.465 -652.658)"/><path d="m1287.84 1045.715a40.258 40.258 0 0 1 -4.561 17.619l-1.12-.63a39.889 39.889 0 0 0 3.8-8.135 40.462 40.462 0 0 0 1.881-8.854z" fill="#fff" transform="translate(-924.942 -666.308)"/><path d="m1283.742 1041.376a22.816 22.816 0 0 1 1.96-2.053 12.8 12.8 0 0 1 2.3-1.666 30.651 30.651 0 0 1 5.2-2.13 30.566 30.566 0 0 0 -5.039 2.4 12.414 12.414 0 0 0 -2.137 1.74 22.175 22.175 0 0 0 -1.795 2.11z" fill="#fff" transform="translate(-925.912 -660.067)"/><path d="m1294.347 1055.137a8.816 8.816 0 0 1 2.4-2.077 17.343 17.343 0 0 1 2.924-1.186 17.265 17.265 0 0 0 -2.832 1.34 8.544 8.544 0 0 0 -2.216 2.15z" fill="#fff" transform="translate(-932.409 -670.082)"/><path d="m1260.062 1045.339a13.089 13.089 0 0 1 2.569 1.879c.794.709 1.55 1.46 2.283 2.233s1.437 1.575 2.116 2.4a25.057 25.057 0 0 1 1.911 2.612l-.8.446a24.267 24.267 0 0 0 -1.658-2.642c-.607-.858-1.244-1.7-1.913-2.515s-1.362-1.612-2.1-2.37a12.976 12.976 0 0 0 -2.408-2.043z" fill="#fff" transform="translate(-911.406 -666.078)"/><path d="m1285.948 1058.774a4.539 4.539 0 0 1 .862.734c.262.273.51.559.75.853a13.1 13.1 0 0 1 1.306 1.877l-.29.14a12.94 12.94 0 0 0 -1.144-1.919c-.216-.307-.442-.608-.682-.9a4.467 4.467 0 0 0 -.802-.785z" fill="#fff" transform="translate(-927.263 -674.308)"/><path d="m1273.451 1024.642a20.873 20.873 0 0 1 2.951 2.6 21.524 21.524 0 0 1 2.458 3.1l-.38.229a21.154 21.154 0 0 0 -2.243-3.177 20.763 20.763 0 0 0 -2.786-2.752z" fill="#fff" transform="translate(-919.608 -653.399)"/><path d="m446.764 904.793c-19.388 8.511-48.232-9.458-44.449-33.1s20.806-21.752 14.186-44.449 11.349-57.217 24.589-23.644 9.654 42.288 25.535 41.612c22.224-.945-.473 51.07-19.861 59.581z" fill="#4192d4" transform="translate(-385.752 -527.204)"/><path d="m466.014 819.923c2.749 10.042 5.691 20.029 8.346 30.107s5.093 20.223 7.127 30.467c4.037 20.481 6.469 41.393 6.087 62.454l-4.724-.195c1.155-20.581-.447-41.348-3.69-61.844-1.636-10.253-3.672-20.451-5.948-30.6s-4.831-20.249-7.198-30.389z" fill="#fff" transform="translate(-424.98 -545.772)"/><path d="m463.726 1030.7a93.1 93.1 0 0 0 -5.628-8.167 43.274 43.274 0 0 0 -6.911-7.016 59.385 59.385 0 0 0 -8.3-5.483c-2.911-1.628-5.9-3.121-8.915-4.578 3.091 1.277 6.17 2.591 9.189 4.055a60.255 60.255 0 0 1 8.738 5.064 44.764 44.764 0 0 1 7.555 6.818 95.159 95.159 0 0 1 6.238 8z" fill="#fff" transform="translate(-405.353 -659.424)"/><path d="m533.424 949.856a59.91 59.91 0 0 0 -7.437 6.482 52.873 52.873 0 0 0 -6.085 7.692 130.347 130.347 0 0 0 -9.04 17.458l-2.125-1.037a131.9 131.9 0 0 1 10.2-17.1 53.715 53.715 0 0 1 6.639-7.435 60.184 60.184 0 0 1 7.848-6.06z" fill="#fff" transform="translate(-451.152 -625.368)"/><path d="m496.345 866.936c-1.555 2.553-2.938 5.2-4.263 7.871s-2.576 5.381-3.8 8.1l-1.062-.518c1.4-2.646 2.837-5.273 4.337-7.864s3.068-5.144 4.788-7.589z" fill="#fff" transform="translate(-437.973 -574.572)"/><path d="m467.862 949.8a42.673 42.673 0 0 0 -8.374-9.274 22.87 22.87 0 0 0 -5.432-3.1 26.911 26.911 0 0 0 -6.108-1.607 27.133 27.133 0 0 1 6.25 1.218 23.51 23.51 0 0 1 5.771 2.814 43.858 43.858 0 0 1 9.209 8.944z" fill="#fff" transform="translate(-413.914 -616.768)"/><path d="m675.342 975.253c-5.831 10.663-28.354 25.759-38.609 9.408-12.776-20.37-5.345-38.441 4.122-46.819 10.569-9.353 15.8 17.25 27.79-1 21.155-32.188 23.593 7.512 6.697 38.411z" fill="#28aae1" transform="translate(-525.391 -610.077)"/><path d="m687.129 979.6c-1.463 4.6-2.976 9.187-4.222 13.831a94.478 94.478 0 0 0 -3.368 28.355 139.934 139.934 0 0 0 1.261 14.214l-4.066-.1a133.085 133.085 0 0 1 -.238-14.135 96.46 96.46 0 0 1 5.44-28.633c1.583-4.58 3.412-9.048 5.193-13.532z" fill="#fff" transform="translate(-553.866 -643.588)"/><path d="m693.784 1027.39a86.33 86.33 0 0 1 -9.784 37.788l-2.4-1.351a85.513 85.513 0 0 0 8.154-17.447 86.766 86.766 0 0 0 4.03-18.99z" fill="#fff" transform="translate(-557.047 -672.864)"/><path d="m684.995 1018.085a48.855 48.855 0 0 1 4.2-4.4 27.487 27.487 0 0 1 4.943-3.574 65.789 65.789 0 0 1 11.163-4.568 65.524 65.524 0 0 0 -10.801 5.157 26.627 26.627 0 0 0 -4.584 3.731 47.647 47.647 0 0 0 -3.849 4.526z" fill="#fff" transform="translate(-559.127 -659.479)"/><path d="m707.739 1047.6a18.906 18.906 0 0 1 5.152-4.453 37.224 37.224 0 0 1 6.272-2.543 37.033 37.033 0 0 0 -6.074 2.874 18.331 18.331 0 0 0 -4.752 4.611z" fill="#fff" transform="translate(-573.059 -680.958)"/><path d="m634.208 1026.585a28.05 28.05 0 0 1 5.509 4.029c1.7 1.521 3.325 3.131 4.9 4.79s3.081 3.377 4.537 5.149a53.619 53.619 0 0 1 4.1 5.6l-1.716.956a52.183 52.183 0 0 0 -3.556-5.666c-1.3-1.84-2.668-3.644-4.1-5.394s-2.923-3.458-4.5-5.083a27.819 27.819 0 0 0 -5.174-4.381z" fill="#fff" transform="translate(-528.015 -672.371)"/><path d="m689.725 1055.4a9.671 9.671 0 0 1 1.849 1.574c.563.585 1.1 1.2 1.61 1.828a28.122 28.122 0 0 1 2.8 4.026l-.622.3a27.688 27.688 0 0 0 -2.453-4.116c-.464-.658-.947-1.3-1.463-1.922a9.619 9.619 0 0 0 -1.721-1.69z" fill="#fff" transform="translate(-562.024 -690.022)"/><path d="m662.923 982.195a44.792 44.792 0 0 1 6.328 5.57 46.181 46.181 0 0 1 5.273 6.639l-.815.492a45.459 45.459 0 0 0 -4.812-6.813 44.564 44.564 0 0 0 -5.974-5.888z" fill="#fff" transform="translate(-545.606 -645.178)"/><path d="m592.5 833.791c-4.785 19.139-45.2 60.806-50.506 19.139-7.443-58.48 21.265-51.569 11.7-106.328-4.584-26.232 21.8-34.557 31.367 8.506s12.224 59.544 7.439 78.683z" fill="#4164d4" transform="translate(-470.762 -487.544)"/><path d="m603.8 789.56c-2.078 11.152-4.337 22.27-6.314 33.432s-3.749 22.355-5.148 33.587a385.529 385.529 0 0 0 -2.847 67.591l-4.575.182a388.914 388.914 0 0 1 5.155-68.093c1.783-11.228 3.927-22.385 6.291-33.487s4.989-22.138 7.438-33.212z" fill="#fff" transform="translate(-497.784 -527.172)"/><path d="m592.532 975.96c1.611-2.788 3.281-5.559 5.151-8.212a44.361 44.361 0 0 1 6.368-7.362 50.961 50.961 0 0 1 7.771-5.762c2.736-1.686 5.56-3.2 8.4-4.678-2.75 1.64-5.475 3.322-8.087 5.155a50.075 50.075 0 0 0 -7.287 6.1c-4.424 4.53-7.443 10.166-10.3 15.837z" fill="#fff" transform="translate(-502.484 -625.423)"/><path d="m578.4 915c3.872 5.975 6.853 12.509 9.819 18.968l-2.131.836c-2.249-6.723-4.481-13.452-7.688-19.804z" fill="#fff" transform="translate(-493.829 -604.016)"/><path d="m559.6 999.141c2.405 4.421 5.049 8.7 7.363 13.2s4.4 9.1 6.43 13.72l-2.131.836c-1.662-4.737-3.374-9.455-5.334-14.068s-4.262-9.096-6.328-13.688z" fill="#fff" transform="translate(-482.311 -655.559)"/><path d="m592.56 806.882a60.046 60.046 0 0 1 6.395 8.722 73.873 73.873 0 0 1 4.986 9.649l-1.066.418a73 73 0 0 0 -4.416-9.781 59.748 59.748 0 0 0 -5.899-9.008z" fill="#fff" transform="translate(-502.501 -537.783)"/><path d="m606 896.054a39.677 39.677 0 0 1 7.875-9.026 25.013 25.013 0 0 1 10.667-5.111 24.607 24.607 0 0 0 -10.143 5.717 38.48 38.48 0 0 0 -7.033 9.257z" fill="#fff" transform="translate(-510.735 -583.749)"/></svg>
