<svg xmlns="http://www.w3.org/2000/svg" xmlns:xlink="http://www.w3.org/1999/xlink" width="640" height="160" viewBox="0 0 640 160"><defs><style>.a{fill:#024a86;}.aj,.b{fill:none;}.c{fill:#225ec4;}.ae,.d{fill:#0c2635;}.e{clip-path:url(#a);}.f{clip-path:url(#b);}.g{clip-path:url(#c);}.h{clip-path:url(#d);}.i,.j{fill:#95d8f3;}.i{opacity:0.555;}.k{fill:#5fc1e9;}.ac,.l,.n{fill:#fff;}.l{opacity:0.755;}.m{fill:#4192d4;}.o{fill:#4164d4;}.p{fill:#28aae1;}.q{clip-path:url(#f);}.r{fill:#c2e3f5;}.s{opacity:0;}.ad,.t{fill:#0c1b24;}.t{opacity:0.35;}.u{fill:#000b19;}.af,.v{fill:#f0f2f8;}.w{fill:#a6b3c6;}.x{clip-path:url(#g);}.y{fill:#231f20;opacity:0.15;}.z{fill:#151717;}.aa{fill:#d0d2d3;}.ab{clip-path:url(#h);}.ac{opacity:0.2;}.ad{opacity:0.1;}.ae,.af{fill-rule:evenodd;}.ag{clip-path:url(#i);}.ah{fill:#6c8094;}.ai{clip-path:url(#j);}.aj{stroke:#404041;stroke-linejoin:round;stroke-width:0.535px;}.ak{clip-path:url(#k);}.al{fill:#fffdeb;}.am{fill:#b7becd;}.an{fill:#eff0f8;}.ao{opacity:0.06;}.ap{fill:#2888e8;}.aq{opacity:0.11;}.ar{fill:#849bb7;}.as{fill:#9ebedd;}.at{fill:#5b6f80;}</style><clipPath id="a"><rect class="a" width="640" height="160" transform="translate(180)"/></clipPath><clipPath id="b"><rect class="a" width="640" height="160" transform="translate(-76)"/></clipPath><clipPath id="c"><rect class="a" width="425" height="160"/></clipPath><clipPath id="d"><rect class="a" width="186" height="160" transform="translate(0.297)"/></clipPath><clipPath id="f"><rect class="b" width="701.952" height="39.067"/></clipPath><clipPath id="g"><path class="c" d="M768.514,1020.682c.006,0,.006.019.01.028s.007.005,0,.01a.008.008,0,0,1-.007,0,.02.02,0,0,1-.007-.006l-.024-.006c-.01,0-.015-.023-.011-.032S768.5,1020.676,768.514,1020.682Z" transform="translate(-768.478 -1020.675)"/></clipPath><clipPath id="h"><path class="c" d="M701.379,948.213v-.019s0-.069-.03-.067-.033.03-.04.061-.01.066-.025.069l-.1.016c-.032,0-.084.019-.084.019,0-.055,0-.165-.052-.163s-.059.084-.067.176a.8.8,0,0,1-.137.01c-.043,0-.246-.007-.271-.01s-.043,0-.056-.032a.174.174,0,0,1-.015-.1c.007-.03.014-.083.123-.124,0,0,.023,0,.027,0a.524.524,0,0,1,.245-.142c.072-.01.188-.015.274-.018a.21.21,0,0,1,.164.087l.03.023s.023.1.027.1A.29.29,0,0,1,701.379,948.213Z" transform="translate(-700.498 -947.884)"/></clipPath><clipPath id="i"><path class="d" d="M781.594,948.123c.088,0,.3,0,.367-.012.042-.067.088-.14.167-.15-.115,0-.214.007-.275.014A.588.588,0,0,0,781.594,948.123Z" transform="translate(-781.594 -947.961)"/></clipPath><clipPath id="j"><path class="d" d="M1019.013,957.51a2.2,2.2,0,0,0,.283-.047c.007,0,.008-.006.011-.019a.2.2,0,0,0-.149-.074C1019.063,957.38,1019.013,957.51,1019.013,957.51Z" transform="translate(-1019.013 -957.37)"/></clipPath><clipPath id="k"><path class="c" d="M1027.749,1016.136a.091.091,0,0,0-.027.028s-.011.006-.006.01a.013.013,0,0,0,.011,0,.027.027,0,0,0,.011-.006l.037-.006c.015,0,.022-.025.022-.036S1027.764,1016.13,1027.749,1016.136Z" transform="translate(-1027.714 -1016.127)"/></clipPath></defs><g class="e" transform="translate(-180)"><g class="f" transform="translate(256)"><rect class="a" width="640" height="160" transform="translate(-76)"/></g><g class="f" transform="translate(256)"><g transform="translate(-303.447 72.94)"><g transform="translate(0.135 11.226)"><path class="i" d="M0,1039.348v26.531l172.377-20.993,21.865-3.218-29.291-2.562-7.449-.731s-6.574-.1-8.765.422-23.817-.339-23.817-.339-12.186.835-13.832.731c-1.489-.094-9.324-2.33-15.381-2.518-.58-.018-1.19-.015-1.771.016-6.113.321-12.542-.257-17.873.242s-16.63-3.374-20.423-3.7-18.348,3.3-20.225,3.581-16.727-2.587-20.671-1.982S0,1039.348,0,1039.348Z" transform="translate(0 -995.884)"/><path class="j" d="M0,1037.356v17.929L171.573,1041.1l.364-3.711-7.756-.2-7.414-.494s-6.544-.067-8.724.285-23.706-.229-23.706-.229-12.129.564-13.767.494-10.987-1.908-17.072-1.691-12.483-.174-17.79.164-16.552-2.28-20.328-2.5-18.263,2.228-20.131,2.42-16.649-1.748-20.575-1.34S0,1037.356,0,1037.356Z" transform="translate(178.615 -989.458)"/><path class="j" d="M0,1037.356v17.929L171.573,1041.1l.364-3.711-7.756-.2-7.414-.494s-6.544-.067-8.724.285-23.706-.229-23.706-.229-12.129.564-13.767.494-10.987-1.908-17.072-1.691-12.483-.174-17.79.164-16.552-2.28-20.328-2.5-18.263,2.228-20.131,2.42-16.649-1.748-20.575-1.34S0,1037.356,0,1037.356Z" transform="translate(122.156 -985.291)"/><path class="j" d="M0,1037.356v17.929L171.573,1041.1l.364-3.711-7.756-.2-7.414-.494s-6.544-.067-8.724.285-23.706-.229-23.706-.229-12.129.564-13.767.494-10.987-1.908-17.072-1.691-12.483-.174-17.79.164-16.552-2.28-20.328-2.5-18.263,2.228-20.131,2.42-16.649-1.748-20.575-1.34S0,1037.356,0,1037.356Z" transform="translate(60.073 -981.749)"/><path class="j" d="M0,1037.356v17.929L172.477,1041.1l.366-3.711-7.8-.2-7.453-.494s-6.578-.067-8.77.285-23.831-.229-23.831-.229-12.193.564-13.84.494-11.045-1.908-17.162-1.691-12.549-.174-17.884.164-16.64-2.28-20.435-2.5-18.359,2.228-20.237,2.42-16.737-1.748-20.683-1.34S0,1037.356,0,1037.356Z" transform="translate(0 -985.291)"/><path class="k" d="M0,1107.589v12.228l171.573-9.32.364-2.438-7.756-.128-7.414-.325s-6.544-.044-8.724.187-23.706-.151-23.706-.151-12.129.371-13.767.325-10.987-1.254-17.072-1.111-12.483-.114-17.79.108-16.552-1.5-20.328-1.644-21.484-.142-23.352-.016-12.571-.811-16.5-.543S0,1107.589,0,1107.589Z" transform="translate(178.615 -1053.305)"/><path class="k" d="M0,1107.847v15.6L178.236,1110.9l.378-2.559-8.057-.135-7.7-.341s-6.8-.046-9.063.2-24.626-.158-24.626-.158-12.6.389-14.3.341-11.414-1.316-17.735-1.166-12.968-.12-18.481.113-17.2-1.572-21.117-1.725-22.139,1.593-24.079,1.725-13.239-2.594-17.317-2.312S0,1107.847,0,1107.847Z" transform="translate(0 -1043.629)"/><path class="k" d="M164.7,2.877V15.1L.349,5.785,0,3.347l7.429-.128,8.145,2.229s8.717.612,10.805.843S47.33,6.163,47.33,6.163s13.9-.271,15.47-.317,10.272-.76,16.1-.617,8.977-.328,14.06-.106,20.686,1.592,24.3,1.446S132.227.465,134.016.591s12.041-.811,15.8-.543S164.7,2.877,164.7,2.877Z" transform="matrix(0.999, -0.035, 0.035, 0.999, 19.551, 58.323)"/><path class="j" d="M1766.851,1029.568v17.93l-171.573-14.187-.364-3.711,7.756-.2,7.414-.494s6.543-.067,8.724.285,23.706-.229,23.706-.229,12.129.565,13.767.494,10.987-1.908,17.072-1.691,12.483-.174,17.79.164,15.58,1.814,19.356,1.592,18.38-5.229,20.248-5.037,17.5,1.615,21.43,2.024S1766.851,1029.568,1766.851,1029.568Z" transform="translate(-1245.452 -981.67)"/><path class="j" d="M1766.851,1029.568v17.93l-171.573-14.187-.353-2.983s3.954-.569,7.744-.923a57.972,57.972,0,0,1,7.414-.494c4.035-.052,6.026.312,14.133.326s18.3-.27,18.3-.27,12.129.565,13.767.494,10.987-1.908,17.072-1.691,12.483-.174,17.79.164,15.58,1.814,19.356,1.592,18.38-5.229,20.248-5.037,17.5,1.615,21.43,2.024S1766.851,1029.568,1766.851,1029.568Z" transform="translate(-1164.827 -984.17)"/><path class="j" d="M1914.656,1058.758H1777.072l-181.794-25.447-.364-3.711,7.756-.2,7.414-.494s6.543-.067,8.724.285,23.706-.229,23.706-.229,12.129.565,13.767.494c1.151-.05,10.215-1.207,10.215-1.207s4.268-.371,6.857-.485a137.768,137.768,0,0,1,17.79.164c5.306.337,9.455,2.453,19.356,1.592s19.73-5.15,30.248-5.037,11.43,2.024,53.337,10.341Z" transform="translate(-1065.66 -983.128)"/><path class="k" d="M1766.851,1111.734v12.228l-171.573-9.32-.364-2.438,7.756-.128,7.414-.325s6.543-.044,8.724.187,23.706-.151,23.706-.151,12.129.371,13.767.325,10.987-1.254,17.072-1.111,12.483-.114,17.79.108,16.552-1.5,20.328-1.644,21.484-.142,23.352-.016,11.924,2.239,15.85,2.508S1766.851,1111.734,1766.851,1111.734Z" transform="translate(-1245.452 -1057.45)"/><path class="k" d="M1767.046,1111.734v12.228l-171.767-9.32-.365-2.438,7.764-.128,7.423-.325s6.551-.044,8.734.187,23.733-.151,23.733-.151,12.143.371,13.783.325,11-1.254,17.091-1.111,12.5-.114,17.81.108,16.571-1.5,20.351-1.644,21.509-.142,23.379-.016,11.937,2.239,15.868,2.508S1767.046,1111.734,1767.046,1111.734Z" transform="translate(-1165.035 -1054.95)"/><path class="k" d="M1839.047,1129.879l-78.179,1.6-173.757-14.536,1.626-4.739,7.764-.128,7.422-.325s6.551-.044,8.734.187,23.733-.151,23.733-.151,12.143.371,13.783.325,10.1-2.79,16.2-2.647,13.393,1.422,18.705,1.644,16.571-1.5,20.351-1.644,21.509-.142,23.379-.016,15.868,2.508,15.868,2.508Z" transform="translate(-1059.691 -1053.909)"/><path class="l" d="M5.713,6.875H.121a2.917,2.917,0,0,1,5.255-2.4A2.188,2.188,0,0,1,8.484,3.415a4.584,4.584,0,0,1,8.974.545,1.98,1.98,0,0,1,1.794,1.289,1.986,1.986,0,0,1,1.557,1.627H8.946l0-.006,0-.006-.009.009,0,0H5.865c-.041-.041-.081-.083-.118-.125-.01.042-.022.085-.034.125Z" transform="translate(431.438 0)"/><path class="l" d="M26.8,5.833H0A2.188,2.188,0,0,1,.837,4.641a2.516,2.516,0,0,1,1.49-.475,2.559,2.559,0,0,1,1.289.343A2.918,2.918,0,0,1,7.941,2.947,4.587,4.587,0,0,1,14.293.493a4.627,4.627,0,0,1,1.58,1.318,4.319,4.319,0,0,1,2.184-.56,4.488,4.488,0,0,1,1.8.361,2.865,2.865,0,0,1,1.208.937,3.021,3.021,0,0,1,5.746,1.306,2.987,2.987,0,0,1-.337,1.388.524.524,0,0,1,.337.487.531.531,0,0,1-.01.1Z" transform="translate(572.964 14.583)"/></g><g transform="translate(221.81 21.944)"><g transform="translate(171.5 21.404)"><g transform="translate(8.631 1.552)"><path class="m" d="M2086.769,957.056c-1.58-.288-2.776-2.062-3.086-4.139s-.094-4.008,1.118-2.976,1.771-.456,1.443-1.641.532-8.763,1.9-6.989-.027,1.337,1.774-.6,5.511-2.408,3.861.72-4.168,5.666-2.566,4.914,4.062-.469,2.439,1.322-4.138,4.181-2.9,4.174,5.666-1.369,2.078,1.77S2086.769,957.056,2086.769,957.056Z" transform="translate(-2083.556 -939.164)"/><g transform="translate(1.076 1.528)"><g transform="translate(1.925)"><path class="n" d="M2117.242,953.431a35.81,35.81,0,0,0-2.246,3.761,28.256,28.256,0,0,0-1.735,4.01,21.533,21.533,0,0,0-.946,4.25,32.754,32.754,0,0,0-.319,4.342l-.426,0A33.061,33.061,0,0,1,2112,965.4a21.8,21.8,0,0,1,1.061-4.273,28.394,28.394,0,0,1,1.842-3.99A35.822,35.822,0,0,1,2117.242,953.431Z" transform="translate(-2111.57 -953.431)"/></g><g transform="translate(2.964 2.551)"><path class="n" d="M2121.983,981.648a11.11,11.11,0,0,0-.175-2.224,14.71,14.71,0,0,0-.537-2.18,14.74,14.74,0,0,1,.634,2.161,11.253,11.253,0,0,1,.275,2.246Z" transform="translate(-2121.271 -977.244)"/></g><g transform="translate(0 11.867)"><path class="n" d="M2095.654,1066.4a3.88,3.88,0,0,0-.37-.643,5.064,5.064,0,0,0-.48-.59,5.523,5.523,0,0,0-1.2-.956,5.615,5.615,0,0,1,1.316.838,5.214,5.214,0,0,1,.561.558,4.1,4.1,0,0,1,.474.656Z" transform="translate(-2093.6 -1064.213)"/></g><g transform="translate(2.293 10.301)"><path class="n" d="M2115,1051.678c.452-.407.918-.783,1.4-1.14a10.3,10.3,0,0,1,1.529-.946,10.227,10.227,0,0,0-1.427,1.073c-.445.394-.874.811-1.273,1.242Z" transform="translate(-2115.002 -1049.593)"/></g><g transform="translate(2.926 7.132)"><path class="n" d="M2120.915,1022.349a12.6,12.6,0,0,1,1.788-1.388,7.9,7.9,0,0,1,2.033-.956,7.835,7.835,0,0,0-1.959,1.064,12.421,12.421,0,0,0-1.673,1.462Z" transform="translate(-2120.915 -1020.006)"/></g></g></g><path class="o" d="M2010.563,943.733c1.688-.309,3.055-2.192,3.5-4.392s.325-4.244-1.016-3.147-1.879-.487-1.435-1.734c1.139-3.2-.07-9.276-1.623-7.394s-1.286.371-1.844-.634c-1.323-2.383-5.7-2.532-4.128.774s4.094,5.986,2.441,5.2-4.273-.484-2.657,1.407,4.145,4.414,2.839,4.41-5.921-1.433-2.3,1.88S2010.563,943.733,2010.563,943.733Z" transform="translate(-2002.982 -924.68)"/><g transform="translate(2.722 1.746)"><path class="n" d="M2028.393,940.977a35.326,35.326,0,0,1,2.282,3.966,28.17,28.17,0,0,1,1.719,4.249,22.486,22.486,0,0,1,.863,4.509,34.566,34.566,0,0,1,.2,4.6l-.4-.025a34.256,34.256,0,0,0-.1-4.543,22.236,22.236,0,0,0-.755-4.48,28.062,28.062,0,0,0-1.617-4.262A35.224,35.224,0,0,0,2028.393,940.977Z" transform="translate(-2028.393 -940.977)"/><g transform="translate(4.787 11.954)"><path class="n" d="M2073.083,1055.329a11.785,11.785,0,0,1,1.257-1.509,8.974,8.974,0,0,1,1.5-1.245,8.886,8.886,0,0,0-1.378,1.353,11.587,11.587,0,0,0-1.1,1.569Z" transform="translate(-2073.083 -1052.574)"/></g><g transform="translate(2.016 11.628)"><path class="n" d="M2049.9,1051.225a11.644,11.644,0,0,0-1.264-.966,6.864,6.864,0,0,0-1.42-.735,6.948,6.948,0,0,1,1.491.614,11.878,11.878,0,0,1,1.372.87Z" transform="translate(-2047.212 -1049.524)"/></g><g transform="translate(0.566 7.512)"><path class="n" d="M2037.414,1013.866a12.237,12.237,0,0,0-1.7-1.607,7.415,7.415,0,0,0-2.039-1.156,7.47,7.47,0,0,1,2.11,1.059,12.361,12.361,0,0,1,1.809,1.546Z" transform="translate(-2033.676 -1011.103)"/></g></g><g transform="translate(6.143 3.864)"><path class="n" d="M2061.552,960.751a21.327,21.327,0,0,1-.44,2.489q-.282,1.234-.632,2.451l-.154-.047q.386-1.2.708-2.422A21.337,21.337,0,0,0,2061.552,960.751Z" transform="translate(-2060.326 -960.751)"/></g></g><g transform="translate(91.704 29.25)"><path class="o" d="M1263.92,1004.418c-.751,1.375-3.655,3.321-4.977,1.213a4.573,4.573,0,0,1,.531-6.036c1.362-1.206,2.036,2.224,3.583-.129C1265.785,995.317,1266.1,1000.435,1263.92,1004.418Z" transform="translate(-1258.065 -997.926)"/><g transform="translate(0.214 2.732)"><g transform="translate(2.109)"><path class="n" d="M1281.129,1023.432c-.189.593-.384,1.184-.545,1.783a12.512,12.512,0,0,0-.356,1.816,12.374,12.374,0,0,0-.078,1.839,18,18,0,0,0,.163,1.833l-.52.056a18.4,18.4,0,0,1-.035-1.891,12.424,12.424,0,0,1,.7-3.692C1280.664,1024.586,1280.9,1024.01,1281.129,1023.432Z" transform="translate(-1279.748 -1023.432)"/></g><g transform="translate(2.367 2.387)"><path class="n" d="M1283.73,1045.715a11.126,11.126,0,0,1-1.261,4.872l-.31-.174a11.043,11.043,0,0,0,1.051-2.249A11.183,11.183,0,0,0,1283.73,1045.715Z" transform="translate(-1282.159 -1045.715)"/></g><g transform="translate(2.537 1.296)"><path class="n" d="M1283.742,1037.144a6.337,6.337,0,0,1,.542-.568,3.535,3.535,0,0,1,.637-.461,8.469,8.469,0,0,1,1.439-.589,8.44,8.44,0,0,0-1.393.665,3.43,3.43,0,0,0-.591.481,6.085,6.085,0,0,0-.5.583Z" transform="translate(-1283.742 -1035.527)"/></g><g transform="translate(3.673 3.047)"><path class="n" d="M1294.347,1052.777a2.439,2.439,0,0,1,.664-.574,4.794,4.794,0,0,1,.808-.328,4.785,4.785,0,0,0-.783.371,2.361,2.361,0,0,0-.613.594Z" transform="translate(-1294.347 -1051.875)"/></g><g transform="translate(0 2.347)"><path class="n" d="M1260.062,1045.339a3.621,3.621,0,0,1,.71.52c.22.2.429.4.631.617s.4.436.585.664a6.911,6.911,0,0,1,.528.722l-.221.123a6.681,6.681,0,0,0-.458-.73c-.168-.237-.344-.47-.529-.7s-.377-.446-.58-.655A3.59,3.59,0,0,0,1260.062,1045.339Z" transform="translate(-1260.062 -1045.339)"/></g><g transform="translate(2.773 3.786)"><path class="n" d="M1285.948,1058.774a1.256,1.256,0,0,1,.238.2c.073.075.141.155.208.236a3.653,3.653,0,0,1,.361.519l-.08.039a3.575,3.575,0,0,0-.316-.531c-.06-.085-.122-.168-.188-.248A1.232,1.232,0,0,0,1285.948,1058.774Z" transform="translate(-1285.948 -1058.774)"/></g><g transform="translate(1.434 0.13)"><path class="n" d="M1273.451,1024.642a5.783,5.783,0,0,1,.816.718,5.959,5.959,0,0,1,.68.856l-.105.063a5.868,5.868,0,0,0-.62-.878A5.738,5.738,0,0,0,1273.451,1024.642Z" transform="translate(-1273.451 -1024.642)"/></g></g></g><g transform="translate(0 0)"><g transform="translate(0 6.935)"><path class="m" d="M414.361,821.46c-5.361,2.353-13.336-2.615-12.29-9.152s5.753-6.014,3.922-12.29,3.138-15.82,6.8-6.537,2.669,11.693,7.06,11.506C426,804.724,419.722,819.106,414.361,821.46Z" transform="translate(-401.977 -789.612)"/><g transform="translate(3.427 3.247)"><g transform="translate(3.432)"><path class="n" d="M466.014,819.923c.76,2.777,1.574,5.538,2.308,8.325s1.408,5.592,1.971,8.424a81.692,81.692,0,0,1,1.683,17.269l-1.306-.054a80.727,80.727,0,0,0-1.02-17.1c-.452-2.835-1.015-5.655-1.645-8.461S466.669,822.727,466.014,819.923Z" transform="translate(-466.014 -819.923)"/></g><g transform="translate(0 19.874)"><path class="n" d="M442.2,1012.431a25.769,25.769,0,0,0-1.556-2.258,11.966,11.966,0,0,0-1.911-1.94,16.419,16.419,0,0,0-2.294-1.516c-.8-.45-1.633-.863-2.465-1.266.855.353,1.706.717,2.541,1.121a16.676,16.676,0,0,1,2.416,1.4,12.381,12.381,0,0,1,2.089,1.885,26.306,26.306,0,0,1,1.725,2.211Z" transform="translate(-433.974 -1005.451)"/></g><g transform="translate(8.009 13.918)"><path class="n" d="M515.563,949.856a16.57,16.57,0,0,0-2.056,1.792,14.625,14.625,0,0,0-1.682,2.127,36.042,36.042,0,0,0-2.5,4.827l-.588-.287a36.467,36.467,0,0,1,2.819-4.728,14.857,14.857,0,0,1,1.836-2.056A16.66,16.66,0,0,1,515.563,949.856Z" transform="translate(-508.737 -949.856)"/></g><g transform="translate(5.704 5.036)"><path class="n" d="M489.745,866.936c-.43.706-.812,1.438-1.179,2.176s-.712,1.488-1.05,2.24l-.294-.143c.387-.732.784-1.458,1.2-2.175S489.27,867.612,489.745,866.936Z" transform="translate(-487.223 -866.936)"/></g><g transform="translate(1.497 12.415)"><path class="n" d="M453.455,939.683a11.8,11.8,0,0,0-2.315-2.564,6.323,6.323,0,0,0-1.5-.857,7.434,7.434,0,0,0-1.689-.444,7.494,7.494,0,0,1,1.728.337,6.5,6.5,0,0,1,1.6.778,12.127,12.127,0,0,1,2.546,2.473Z" transform="translate(-447.949 -935.818)"/></g></g></g><g transform="translate(24.418 21.427)"><path class="p" d="M642.483,938.82c-1.612,2.948-7.84,7.123-10.676,2.6-3.533-5.632-1.478-10.629,1.14-12.946,2.922-2.586,4.367,4.77,7.684-.276C646.482,919.3,647.154,930.277,642.483,938.82Z" transform="translate(-629.925 -924.896)"/><g transform="translate(0.459 5.86)"><g transform="translate(4.52)"><path class="n" d="M679.372,979.6c-.4,1.272-.823,2.54-1.167,3.824a26.124,26.124,0,0,0-.931,7.84,38.684,38.684,0,0,0,.349,3.932l-1.124-.028a36.784,36.784,0,0,1-.066-3.908,26.67,26.67,0,0,1,1.5-7.917C678.374,982.074,678.88,980.839,679.372,979.6Z" transform="translate(-676.408 -979.599)"/></g><g transform="translate(5.077 5.119)"><path class="n" d="M684.969,1027.39a23.869,23.869,0,0,1-2.7,10.448l-.664-.374a23.642,23.642,0,0,0,2.255-4.824A23.989,23.989,0,0,0,684.969,1027.39Z" transform="translate(-681.6 -1027.39)"/></g><g transform="translate(5.44 2.779)"><path class="n" d="M684.995,1009.008a13.511,13.511,0,0,1,1.162-1.218,7.6,7.6,0,0,1,1.367-.988,18.2,18.2,0,0,1,3.087-1.263,18.132,18.132,0,0,0-2.988,1.426,7.359,7.359,0,0,0-1.267,1.032,13.152,13.152,0,0,0-1.064,1.251Z" transform="translate(-684.995 -1005.539)"/></g><g transform="translate(7.877 6.535)"><path class="n" d="M707.739,1042.538a5.226,5.226,0,0,1,1.424-1.232,10.3,10.3,0,0,1,1.734-.7,10.256,10.256,0,0,0-1.679.795,5.068,5.068,0,0,0-1.314,1.275Z" transform="translate(-707.739 -1040.603)"/></g><g transform="translate(0 5.033)"><path class="n" d="M634.208,1026.585a7.764,7.764,0,0,1,1.523,1.114c.471.421.919.866,1.354,1.324s.852.934,1.255,1.424a14.829,14.829,0,0,1,1.134,1.549l-.475.264a14.416,14.416,0,0,0-.983-1.567c-.36-.509-.738-1.008-1.134-1.491s-.808-.956-1.244-1.405A7.687,7.687,0,0,0,634.208,1026.585Z" transform="translate(-634.208 -1026.585)"/></g><g transform="translate(5.947 8.12)"><path class="n" d="M689.725,1055.4a2.665,2.665,0,0,1,.511.435c.156.162.3.332.445.506a7.766,7.766,0,0,1,.774,1.113l-.172.083a7.659,7.659,0,0,0-.678-1.138c-.128-.182-.262-.36-.4-.531A2.662,2.662,0,0,0,689.725,1055.4Z" transform="translate(-689.725 -1055.399)"/></g><g transform="translate(3.076 0.278)"><path class="n" d="M662.923,982.195a12.382,12.382,0,0,1,1.75,1.54,12.765,12.765,0,0,1,1.458,1.836l-.225.136a12.566,12.566,0,0,0-1.331-1.884A12.328,12.328,0,0,0,662.923,982.195Z" transform="translate(-662.923 -982.195)"/></g></g></g><g transform="translate(14.865)"><path class="o" d="M555.058,754.987c-1.323,5.292-12.5,16.813-13.965,5.292-2.058-16.17,5.88-14.259,3.234-29.4-1.268-7.253,6.027-9.555,8.673,2.352S556.381,749.695,555.058,754.987Z" transform="translate(-540.748 -724.87)"/><g transform="translate(2.02 6.93)"><g transform="translate(2.706)"><path class="n" d="M590.1,789.56c-.575,3.083-1.2,6.158-1.746,9.244s-1.037,6.181-1.423,9.287a106.6,106.6,0,0,0-.787,18.689l-1.265.05A107.537,107.537,0,0,1,586.3,808c.493-3.1,1.086-6.19,1.74-9.259S589.42,792.622,590.1,789.56Z" transform="translate(-584.86 -789.56)"/></g><g transform="translate(3.528 17.181)"><path class="n" d="M592.532,957.139c.445-.771.907-1.537,1.424-2.271a12.269,12.269,0,0,1,1.761-2.036,14.086,14.086,0,0,1,2.149-1.593c.757-.466,1.537-.886,2.323-1.293-.76.453-1.514.919-2.236,1.426a13.847,13.847,0,0,0-2.015,1.688,17.1,17.1,0,0,0-2.848,4.379Z" transform="translate(-592.532 -949.946)"/></g><g transform="translate(2.014 13.437)"><path class="n" d="M578.4,915a41.013,41.013,0,0,1,2.715,5.245l-.589.231A40.738,40.738,0,0,0,578.4,915Z" transform="translate(-578.403 -915.002)"/></g><g transform="translate(0 22.45)"><path class="n" d="M559.6,999.141c.665,1.223,1.4,2.406,2.036,3.651s1.218,2.516,1.778,3.794l-.589.231c-.46-1.31-.933-2.614-1.475-3.89S560.172,1000.411,559.6,999.141Z" transform="translate(-559.601 -999.141)"/></g><g transform="translate(3.531 1.856)"><path class="n" d="M592.56,806.882a16.6,16.6,0,0,1,1.768,2.412,20.416,20.416,0,0,1,1.379,2.668l-.295.116a20.2,20.2,0,0,0-1.221-2.7A16.521,16.521,0,0,0,592.56,806.882Z" transform="translate(-592.56 -806.882)"/></g><g transform="translate(4.97 9.893)"><path class="n" d="M606,885.826a10.968,10.968,0,0,1,2.177-2.5,6.916,6.916,0,0,1,2.95-1.413,6.8,6.8,0,0,0-2.8,1.581,10.638,10.638,0,0,0-1.945,2.559Z" transform="translate(-606.001 -881.917)"/></g></g></g></g></g><g transform="translate(0 59.125)"><g class="q"><g transform="translate(-0.011 0.043)"><path class="r" d="M-206.229,1104.166H-698.705l246.245-31.8Z" transform="translate(802.621 -1072.361)"/><g transform="translate(0 1.26)"><path class="r" d="M-900.6,1111.886h-683.815l330.408-27.762h22.376Z" transform="translate(1593.454 -1084.124)"/><path class="r" d="M-400.5,1111.886H-947.955l264.462-27.762h17.914Z" transform="translate(1025.171 -1084.124)"/><path class="n" d="M-1329.047,1084.124l-321.666,27.762h-18.076l339.151-27.762Z" transform="translate(1668.789 -1084.124)"/><path class="n" d="M1706.767,1084.124l339.772,27.762h-18.076l-322.288-27.762Z" transform="translate(-1344.649 -1084.124)"/><g transform="translate(115.767 0.008)"><g transform="translate(237.109 0.018)"><path class="n" d="M1646.824,1093.489h-.475l-.5-.219h.427Z" transform="translate(-1643.658 -1092.316)"/><path class="n" d="M1655.361,1097.162h-.583l-.739-.322h.512Z" transform="translate(-1650.972 -1095.504)"/><path class="n" d="M1668.257,1102.706h-.755l-1.194-.521h.639Z" transform="translate(-1661.927 -1100.277)"/><path class="n" d="M1690.028,1112.055h-1.069l-2.252-.981h.851Z" transform="translate(-1680.141 -1108.213)"/><path class="n" d="M1734.917,1131.282h-1.831l-5.769-2.514h1.272Z" transform="translate(-1716.401 -1124.012)"/><path class="n" d="M1893.9,1198.57h-6.381l-39.847-17.362h2.521Z" transform="translate(-1823.861 -1170.834)"/><path class="n" d="M1625.759,1084.419h-.226l-.12-.052h.215Z" transform="translate(-1625.413 -1084.367)"/><path class="n" d="M1627.69,1085.251h-.248l-.144-.063h.234Z" transform="translate(-1627.096 -1085.1)"/><path class="n" d="M1630.013,1086.251h-.275l-.175-.076h.258Z" transform="translate(-1629.118 -1085.981)"/><path class="n" d="M1632.858,1087.476h-.307l-.218-.1h.286Z" transform="translate(-1631.591 -1087.058)"/><path class="n" d="M1636.425,1089.013h-.35l-.279-.122h.322Z" transform="translate(-1634.684 -1088.406)"/><path class="n" d="M1641.03,1090.995h-.4l-.369-.161h.369Z" transform="translate(-1638.666 -1090.141)"/></g><g transform="translate(163.213 0.018)"><path class="n" d="M1555.367,1093.489h-.475l.547-.219h.427Z" transform="translate(-1488.55 -1092.316)"/><path class="n" d="M1544.153,1097.162h-.583l.8-.322h.512Z" transform="translate(-1478.441 -1095.504)"/><path class="n" d="M1526.348,1102.706h-.754l1.3-.521h.639Z" transform="translate(-1462.391 -1100.277)"/><path class="n" d="M1493.72,1112.055h-1.069l2.451-.981h.851Z" transform="translate(-1432.977 -1108.213)"/><path class="n" d="M1414.56,1131.282h-1.831l6.278-2.514h1.272Z" transform="translate(-1361.616 -1124.012)"/><path class="n" d="M941.954,1198.57h-6.381l43.362-17.362h2.521Z" transform="translate(-935.574 -1170.834)"/><path class="n" d="M1581.235,1084.419h-.226l.131-.052h.215Z" transform="translate(-1511.87 -1084.367)"/><path class="n" d="M1578.965,1085.251h-.248l.156-.063h.234Z" transform="translate(-1509.823 -1085.1)"/><path class="n" d="M1576.209,1086.251h-.275l.191-.076h.258Z" transform="translate(-1507.339 -1085.981)"/><path class="n" d="M1572.793,1087.476h-.308l.237-.1h.286Z" transform="translate(-1504.259 -1087.058)"/><path class="n" d="M1568.447,1089.013h-.349l.3-.122h.323Z" transform="translate(-1500.341 -1088.406)"/><path class="n" d="M1562.732,1090.995h-.4l.4-.161h.368Z" transform="translate(-1495.189 -1090.141)"/></g><g transform="translate(242.428)"><path class="n" d="M1743.293,1092.67h-.479l-.484-.06h.464Z" transform="translate(-1735.125 -1091.709)"/><path class="n" d="M1751.64,1093.71h-.509l-.544-.068h.491Z" transform="translate(-1742.497 -1092.63)"/><path class="n" d="M1761.053,1094.884h-.542l-.617-.077h.523Z" transform="translate(-1750.807 -1093.67)"/><path class="n" d="M1771.753,1096.218h-.58l-.706-.088h.558Z" transform="translate(-1760.248 -1094.851)"/><path class="n" d="M1784.023,1097.747h-.624l-.815-.1h.6Z" transform="translate(-1771.066 -1096.204)"/><path class="n" d="M1798.233,1099.518h-.676l-.952-.119h.646Z" transform="translate(-1783.586 -1097.77)"/><path class="n" d="M1814.886,1101.593h-.736l-1.126-.141h.7Z" transform="translate(-1798.246 -1099.604)"/><path class="n" d="M1834.671,1104.059h-.809l-1.352-.169h.766Z" transform="translate(-1815.645 -1101.78)"/><path class="n" d="M1858.561,1107.036h-.9l-1.654-.207h.845Z" transform="translate(-1836.627 -1104.405)"/><path class="n" d="M1887.984,1110.7h-1.008l-2.071-.259h.943Z" transform="translate(-1862.428 -1107.632)"/><path class="n" d="M1925.118,1115.329h-1.148L1921.3,1115h1.065Z" transform="translate(-1894.926 -1111.697)"/><path class="n" d="M1973.451,1121.351h-1.335l-3.563-.446h1.224Z" transform="translate(-1937.114 -1116.974)"/><path class="n" d="M2038.955,1129.513h-1.595l-5-.626h1.438Z" transform="translate(-1994.087 -1124.1)"/><path class="n" d="M2132.784,1141.2h-1.98l-7.525-.941h1.744Z" transform="translate(-2075.267 -1134.254)"/><path class="n" d="M2278.45,1159.342h-2.609l-12.592-1.575h2.214Z" transform="translate(-2200.242 -1149.886)"/><path class="n" d="M2535.726,1191.37H2531.9l-25.28-3.162h3.031Z" transform="translate(-2417.545 -1177.067)"/><path class="n" d="M3117.35,1263.7h-7.163l-75.075-9.391h4.808Z" transform="translate(-2889.423 -1236.09)"/><path class="n" d="M1675.434,1084.212h-.241l-.125-.016h.238Z" transform="translate(-1675.068 -1084.196)"/><path class="n" d="M1677.555,1084.477h-.249l-.133-.017h.245Z" transform="translate(-1676.948 -1084.432)"/><path class="n" d="M1679.806,1084.757h-.256l-.141-.018h.252Z" transform="translate(-1678.944 -1084.681)"/><path class="n" d="M1682.2,1085.056h-.265l-.15-.019h.26Z" transform="translate(-1681.066 -1084.947)"/><path class="n" d="M1684.752,1085.374h-.273l-.16-.02h.269Z" transform="translate(-1683.328 -1085.229)"/><path class="n" d="M1687.477,1085.713h-.283l-.172-.021h.278Z" transform="translate(-1685.742 -1085.531)"/><path class="n" d="M1690.392,1086.077h-.293l-.184-.023h.287Z" transform="translate(-1688.325 -1085.855)"/><path class="n" d="M1693.52,1086.467h-.3l-.2-.025h.3Z" transform="translate(-1691.096 -1086.201)"/><path class="n" d="M1696.884,1086.886h-.316l-.213-.027h.309Z" transform="translate(-1694.075 -1086.574)"/><path class="n" d="M1700.512,1087.338h-.328l-.23-.029h.321Z" transform="translate(-1697.288 -1086.976)"/><path class="n" d="M1704.435,1087.827h-.342l-.249-.031h.334Z" transform="translate(-1700.762 -1087.41)"/><path class="n" d="M1708.694,1088.358h-.357l-.271-.034h.348Z" transform="translate(-1704.531 -1087.882)"/><path class="n" d="M1713.33,1088.936h-.373l-.3-.037h.364Z" transform="translate(-1708.634 -1088.395)"/><path class="n" d="M1718.4,1089.568h-.391l-.324-.041h.381Z" transform="translate(-1713.118 -1088.956)"/><path class="n" d="M1723.961,1090.261h-.411l-.357-.045h.4Z" transform="translate(-1718.038 -1089.571)"/><path class="n" d="M1730.094,1091.025h-.432l-.4-.049h.42Z" transform="translate(-1723.461 -1090.25)"/><path class="n" d="M1736.891,1091.872h-.456l-.44-.055h.442Z" transform="translate(-1729.469 -1091.001)"/></g><g transform="translate(0)"><path class="n" d="M1458.349,1092.67h-.479l.5-.06h.463Z" transform="translate(-1238.709 -1091.709)"/><path class="n" d="M1449.3,1093.71h-.508l.56-.068h.491Z" transform="translate(-1230.606 -1092.63)"/><path class="n" d="M1439.065,1094.884h-.542l.635-.077h.523Z" transform="translate(-1221.434 -1093.67)"/><path class="n" d="M1427.377,1096.218h-.58l.726-.088h.558Z" transform="translate(-1210.964 -1094.851)"/><path class="n" d="M1413.911,1097.747h-.624l.838-.1h.6Z" transform="translate(-1198.901 -1096.204)"/><path class="n" d="M1398.229,1099.518h-.676l.979-.119h.646Z" transform="translate(-1184.853 -1097.77)"/><path class="n" d="M1379.732,1101.593H1379l1.158-.141h.7Z" transform="translate(-1168.283 -1099.604)"/><path class="n" d="M1357.588,1104.059h-.809l1.391-.169h.766Z" transform="translate(-1148.446 -1101.78)"/><path class="n" d="M1330.6,1107.036h-.9l1.7-.207h.845Z" transform="translate(-1124.273 -1104.405)"/><path class="n" d="M1296.993,1110.7h-1.008l2.13-.259h.943Z" transform="translate(-1094.165 -1107.632)"/><path class="n" d="M1253.974,1115.329h-1.148l2.743-.334h1.065Z" transform="translate(-1055.628 -1111.697)"/><path class="n" d="M1196.956,1121.352h-1.335l3.665-.446h1.224Z" transform="translate(-1004.551 -1116.974)"/><path class="n" d="M1117.779,1129.512h-1.595l5.144-.625h1.438Z" transform="translate(-933.624 -1124.1)"/><path class="n" d="M1000.406,1141.2h-1.98l7.74-.941h1.744Z" transform="translate(-828.481 -1134.254)"/><path class="n" d="M808.413,1159.342H805.8l12.952-1.575h2.214Z" transform="translate(-656.492 -1149.886)"/><path class="n" d="M437.48,1191.371h-3.825l26-3.162h3.032Z" transform="translate(-324.208 -1177.067)"/><path class="n" d="M-580.905,1263.7h-7.162l77.219-9.39h4.808Z" transform="translate(588.068 -1236.091)"/><path class="n" d="M1530.741,1084.212h-.241l.129-.016h.237Z" transform="translate(-1303.558 -1084.196)"/><path class="n" d="M1528.509,1084.477h-.249l.136-.017h.245Z" transform="translate(-1301.559 -1084.432)"/><path class="n" d="M1526.138,1084.757h-.256l.145-.018h.252Z" transform="translate(-1299.434 -1084.681)"/><path class="n" d="M1523.613,1085.056h-.265l.154-.019h.26Z" transform="translate(-1297.173 -1084.947)"/><path class="n" d="M1520.92,1085.374h-.274l.165-.02h.268Z" transform="translate(-1294.761 -1085.229)"/><path class="n" d="M1518.042,1085.713h-.283l.176-.021h.278Z" transform="translate(-1292.182 -1085.531)"/><path class="n" d="M1514.958,1086.077h-.293l.189-.023h.287Z" transform="translate(-1289.419 -1085.855)"/><path class="n" d="M1511.645,1086.467h-.3l.2-.025h.3Z" transform="translate(-1286.452 -1086.201)"/><path class="n" d="M1508.078,1086.886h-.316l.219-.027h.309Z" transform="translate(-1283.256 -1086.574)"/><path class="n" d="M1504.225,1087.338h-.328l.236-.029h.321Z" transform="translate(-1279.804 -1086.976)"/><path class="n" d="M1500.051,1087.827h-.342l.256-.031h.334Z" transform="translate(-1276.065 -1087.41)"/><path class="n" d="M1495.514,1088.358h-.357l.279-.034h.348Z" transform="translate(-1272.001 -1087.882)"/><path class="n" d="M1490.564,1088.936h-.373l.3-.037h.364Z" transform="translate(-1267.568 -1088.395)"/><path class="n" d="M1485.143,1089.568h-.391l.334-.041h.381Z" transform="translate(-1262.711 -1088.956)"/><path class="n" d="M1479.18,1090.261h-.41l.367-.045h.4Z" transform="translate(-1257.37 -1089.571)"/><path class="n" d="M1472.589,1091.025h-.432l.406-.049h.42Z" transform="translate(-1251.465 -1090.25)"/><path class="n" d="M1465.266,1091.872h-.456l.452-.055h.442Z" transform="translate(-1244.905 -1091.001)"/></g></g></g></g></g><rect class="r" width="701.952" height="16.787" transform="translate(0 29.065)"/><g transform="translate(332.775 0.568)"><path class="n" d="M1449.159,1122.545h-11.294l17.423-45.284Z" transform="translate(-1437.865 -1077.261)"/><path class="n" d="M1606.319,1122.545h11.294l-17.424-45.284Z" transform="translate(-1582.801 -1077.261)"/></g></g><g class="s" transform="translate(347.311 59.568)"><path class="t" d="M649.613,1171.357s.005,0-.01.006c-.082.022-.3.073-.386.092a1.075,1.075,0,0,1-.26.025c-.084,0-.337-.023-.376-.029s.038-.03.138-.046.545-.075.545-.075Z" transform="translate(-648.571 -1170.952)"/><path class="u" d="M719.1,1172.615s0,0-.008.005c-.069.019-.254.062-.324.078a.908.908,0,0,1-.218.021c-.071,0-.3-.016-.33-.022s.046-.033.131-.041.457-.063.457-.063Z" transform="translate(-718.092 -1172.212)"/><g transform="translate(0.121 0.273)"><ellipse class="d" cx="0.069" cy="0.095" rx="0.069" ry="0.095"/><path class="d" d="M760.34,1108.512h.042l0,.192-.037,0Z" transform="translate(-760.271 -1108.512)"/><g transform="translate(0.04 0.001)"><ellipse class="d" cx="0.067" cy="0.096" rx="0.067" ry="0.096"/><ellipse class="v" cx="0.049" cy="0.073" rx="0.049" ry="0.073" transform="translate(0.022 0.022)"/><ellipse class="d" cx="0.043" cy="0.066" rx="0.043" ry="0.066" transform="translate(0.029 0.03)"/><path class="v" d="M757.343,1123.026l-.005.06.041-.022,0,.013-.042.023.034.041-.006.011-.035-.042-.019.051-.008-.009.018-.052-.035-.015,0-.015.034.015,0-.059Z" transform="translate(-757.264 -1123.001)"/><ellipse class="w" cx="0.014" cy="0.021" rx="0.014" ry="0.021" transform="translate(0.053 0.075)"/><path class="v" d="M777.245,1159.409c0,.005,0,.01.007.01s.007,0,.007-.01,0-.01-.007-.01S777.245,1159.4,777.245,1159.409Z" transform="translate(-777.188 -1159.313)"/></g></g><g transform="translate(0.204 0.124)"><path class="c" d="M768.514,1020.682c.006,0,.006.019.01.028s.007.005,0,.01a.008.008,0,0,1-.007,0,.02.02,0,0,1-.007-.006l-.024-.006c-.01,0-.015-.023-.011-.032S768.5,1020.676,768.514,1020.682Z" transform="translate(-768.478 -1020.675)"/><g class="x"><path class="y" d="M763.96,1013.509c0,.017.011.034-.012.027a.033.033,0,0,1-.024-.02.08.08,0,0,1-.007-.023l0,.049.053.013.006,0,0-.008v-.007Z" transform="translate(-763.923 -1013.505)"/></g></g><path class="z" d="M837.065,1078.105l-.086.042-.2.037-.14,0-.226-.011.066-.17.576.015a.372.372,0,0,0,.008.04A.155.155,0,0,1,837.065,1078.105Z" transform="translate(-836.095 -1077.777)"/><g transform="translate(0.534 0.276)"><path class="d" d="M962.788,1110.628c0,.057.021.1.046.1s.046-.047.046-.1-.021-.1-.046-.1S962.788,1110.571,962.788,1110.628Z" transform="translate(-962.788 -1110.524)"/><path class="d" d="M990.028,1110.524h.058v.21l-.059,0Z" transform="translate(-989.982 -1110.524)"/><path class="d" d="M996.6,1110.629c0,.058.021.105.048.105s.048-.047.048-.105-.021-.105-.048-.105S996.6,1110.571,996.6,1110.629Z" transform="translate(-996.546 -1110.524)"/><path class="aa" d="M1005.868,1125.123c0,.044.016.081.035.081s.036-.036.036-.081-.016-.081-.036-.081S1005.868,1125.078,1005.868,1125.123Z" transform="translate(-1005.795 -1125.017)"/><path class="aa" d="M1008.813,1129.847c0,.04.014.073.031.073s.031-.032.031-.073-.014-.072-.031-.072S1008.813,1129.808,1008.813,1129.847Z" transform="translate(-1008.735 -1129.742)"/><path class="aa" d="M1006.656,1126.042l-.006.066.032-.024,0,.014-.033.025.027.044,0,.012-.028-.046-.011.056-.006-.01.01-.057-.022-.016,0-.016.022.017.006-.065Z" transform="translate(-1006.543 -1126.015)"/><path class="w" d="M1017.636,1158.773c0,.013,0,.023.01.023s.01-.01.01-.023,0-.023-.01-.023S1017.636,1158.76,1017.636,1158.773Z" transform="translate(-1017.543 -1158.668)"/><path class="v" d="M1018.5,1165.944c0,.006,0,.011.005.011s0,0,0-.011,0-.011,0-.011S1018.5,1165.938,1018.5,1165.944Z" transform="translate(-1018.407 -1165.839)"/></g><g transform="translate(0.865 0.261)"><path class="d" d="M1158.039,1101.4c0,.044.014.079.031.079s.032-.035.032-.079-.014-.079-.032-.079S1158.039,1101.354,1158.039,1101.4Z" transform="translate(-1158.039 -1101.319)"/><path class="d" d="M1176.57,1101.319h.04v.16l-.04,0Z" transform="translate(-1176.539 -1101.319)"/><path class="d" d="M1181.043,1101.4c0,.044.015.08.033.08s.033-.036.033-.08-.015-.08-.033-.08S1181.043,1101.355,1181.043,1101.4Z" transform="translate(-1181.004 -1101.319)"/><path class="aa" d="M1187.346,1112.418c0,.034.011.061.024.061s.024-.027.024-.061-.011-.061-.024-.061S1187.346,1112.384,1187.346,1112.418Z" transform="translate(-1187.296 -1112.338)"/><path class="aa" d="M1189.35,1116.01c0,.031.009.055.021.055s.021-.025.021-.055-.01-.055-.021-.055S1189.35,1115.98,1189.35,1116.01Z" transform="translate(-1189.297 -1115.93)"/><path class="aa" d="M1187.882,1113.117l0,.05.022-.018,0,.01-.023.019.018.034,0,.009-.019-.035-.007.042,0-.007.007-.044-.015-.012v-.012l.015.012,0-.05Z" transform="translate(-1187.805 -1113.096)"/><path class="w" d="M1195.352,1138c0,.01,0,.018.007.018s.007-.008.007-.018,0-.018-.007-.018S1195.352,1137.991,1195.352,1138Z" transform="translate(-1195.289 -1137.921)"/><path class="v" d="M1195.941,1143.453s0,.008,0,.008,0,0,0-.008,0-.008,0-.008S1195.941,1143.448,1195.941,1143.453Z" transform="translate(-1195.877 -1143.372)"/></g><g transform="translate(0.088)"><path class="c" d="M701.379,948.213v-.019s0-.069-.03-.067-.033.03-.04.061-.01.066-.025.069l-.1.016c-.032,0-.084.019-.084.019,0-.055,0-.165-.052-.163s-.059.084-.067.176a.8.8,0,0,1-.137.01c-.043,0-.246-.007-.271-.01s-.043,0-.056-.032a.174.174,0,0,1-.015-.1c.007-.03.014-.083.123-.124,0,0,.023,0,.027,0a.524.524,0,0,1,.245-.142c.072-.01.188-.015.274-.018a.21.21,0,0,1,.164.087l.03.023s.023.1.027.1A.29.29,0,0,1,701.379,948.213Z" transform="translate(-700.498 -947.884)"/><g class="ab"><path class="ac" d="M731.307,1036.4c-.1.03-.041.06.03.063a1.439,1.439,0,0,0,.368-.068Z" transform="translate(-731.199 -1036.249)"/><path class="ad" d="M981.437,1081.543a.583.583,0,0,1,.015-.146c.012-.041.031-.067.062-.068s.068.094.047.182C981.554,1081.54,981.437,1081.543,981.437,1081.543Z" transform="translate(-980.96 -1081.103)"/><path class="ad" d="M1168.524,1083.444a.662.662,0,0,1,.016-.106c.009-.028.024-.047.044-.047s.039.069.025.132C1168.6,1083.444,1168.524,1083.444,1168.524,1083.444Z" transform="translate(-1167.729 -1083.061)"/><path class="ac" d="M996.269,999.915l.278-.057.018-.011.03.021a.066.066,0,0,1-.027.018c-.062.018-.2.039-.254.047h0l-.012-.012-.017,0,.013.012C996.249,999.941,996.19,999.944,996.269,999.915Z" transform="translate(-995.728 -999.759)"/></g></g><path class="ac" d="M1069.393,1146.492c-.04.007-.1.018-.084.022a.367.367,0,0,0,.093-.014C1069.477,1146.485,1069.513,1146.471,1069.393,1146.492Z" transform="translate(-1068.593 -1146.144)"/><path class="d" d="M714.266,1164.3a.021.021,0,0,0,.01-.016.6.6,0,0,1-.1.006.221.221,0,0,0-.127-.053c-.032,0-.2-.007-.222-.006s0,.066.02.069c.048.006.217.014.26.013S714.266,1164.3,714.266,1164.3Z" transform="translate(-713.706 -1163.867)"/><g transform="translate(0.899 0.134)"><path class="ae" d="M1178.053,1027.4l-.024.007,0-.006.024-.007Z" transform="translate(-1178.029 -1027.398)"/><path class="af" d="M1177.932,1026.815l-.024.007,0-.006.024-.007Z" transform="translate(-1177.907 -1026.809)"/></g><g transform="translate(0.787 0.159)"><path class="ae" d="M1112.208,1042.044l-.034.006,0-.007.033-.006Z" transform="translate(-1112.174 -1042.036)"/><path class="af" d="M1112.12,1041.36l-.033.006,0-.007.033-.006Z" transform="translate(-1112.086 -1041.353)"/></g><path class="aa" d="M773.457,1080.271a.01.01,0,0,1-.014,0s0-.009,0-.013a.01.01,0,0,1,.014,0A.01.01,0,0,1,773.457,1080.271Z" transform="translate(-773.229 -1080.031)"/><path class="ad" d="M1054.383,1053.377c.011.046.017.13.034.128s.124-.022.137-.026.03-.073.041-.1.046-.083.069.053c0,.017,0-.034,0-.053,0-.039-.014-.056-.117-.047C1054.512,1053.336,1054.377,1053.35,1054.383,1053.377Z" transform="translate(-1053.693 -1053.151)"/><path class="ad" d="M897.514,1096.693c.008-.019-.018-.018-.078.024-.037.026-.08.053-.058.071a.14.14,0,0,0,.076.032c.025,0,.028-.014.031-.025A.882.882,0,0,1,897.514,1096.693Z" transform="translate(-896.95 -1096.429)"/><path class="ad" d="M701.393,1106.351c.031,0,.091,0,.128,0a.171.171,0,0,1,.115.041c.016.014-.049.023-.118.023-.045,0-.1,0-.13,0s-.066,0-.059-.018A.07.07,0,0,1,701.393,1106.351Z" transform="translate(-701.238 -1106.082)"/><g transform="translate(0.226 0)"><path class="d" d="M781.594,948.123c.088,0,.3,0,.367-.012.042-.067.088-.14.167-.15-.115,0-.214.007-.275.014A.588.588,0,0,0,781.594,948.123Z" transform="translate(-781.594 -947.961)"/><g class="ag"><path class="ah" d="M784.8,947.591a1.379,1.379,0,0,1,.529-.165c-.115,0-.177.005-.238.011A.57.57,0,0,0,784.8,947.591Z" transform="translate(-784.798 -947.427)"/></g></g><path class="d" d="M1052.294,1154.435l-.1.021c-.043.009-.066.016-.1.025l-.005.009v0s.094-.021.123-.025c.055-.008.071-.009.075-.013A.067.067,0,0,0,1052.294,1154.435Z" transform="translate(-1051.403 -1154.084)"/><g transform="translate(0.629 0.016)"><path class="d" d="M1019.013,957.51a2.2,2.2,0,0,0,.283-.047c.007,0,.008-.006.011-.019a.2.2,0,0,0-.149-.074C1019.063,957.38,1019.013,957.51,1019.013,957.51Z" transform="translate(-1019.013 -957.37)"/><g class="ai"><path class="ah" d="M1020.339,945.975a.243.243,0,0,1,.164-.085.306.306,0,0,1,.127.022.093.093,0,0,0-.095-.09c-.091,0-.155.021-.171.05A.431.431,0,0,0,1020.339,945.975Z" transform="translate(-1020.337 -945.842)"/></g></g><path class="d" d="M1019.165,957.369h-.007c-.094.01-.145.14-.145.14a2.2,2.2,0,0,0,.283-.047c.007,0,.008-.006.011-.019A.206.206,0,0,0,1019.165,957.369Zm.131.085h0c-.009,0-.049.011-.1.021s-.106.019-.168.025a.331.331,0,0,1,.031-.053.212.212,0,0,1,.044-.046.118.118,0,0,1,.059-.025h.007a.164.164,0,0,1,.065.017.211.211,0,0,1,.068.051A.042.042,0,0,1,1019.3,957.454Z" transform="translate(-1018.384 -957.353)"/><g transform="translate(0.125 0.016)"><path class="aj" d="M1108.688,957.59l.028.114.02.018a.821.821,0,0,1-.007.185c0,.011.009.019.009.019s0,.026-.018.031" transform="translate(-1108.032 -957.59)"/><path class="aj" d="M1176.408,985.716l.015.045.017.018a.568.568,0,0,1,0,.057.1.1,0,0,0,0,.031.134.134,0,0,1,0,.028" transform="translate(-1175.637 -985.668)"/><path class="aj" d="M1034.17,1038.469l.02.02a.989.989,0,0,1,.036.18.07.07,0,0,0,.006.02s0,.026-.014.033" transform="translate(-1033.641 -1038.332)"/><path class="aj" d="M951.579,1040s.078-.024.114-.033" transform="translate(-951.19 -1039.825)"/><path class="aj" d="M997.873,1036.4a.024.024,0,0,1,.009.013" transform="translate(-997.405 -1036.265)"/><path class="aj" d="M722.548,1093.533s-.111.005-.15,0-.093-.006-.093-.006" transform="translate(-722.305 -1093.301)"/><path class="aj" d="M946.663,1078.787a.128.128,0,0,1,.094.029l.009.01" transform="translate(-946.282 -1078.581)"/></g><g transform="translate(0.644 0.116)"><path class="c" d="M1027.749,1016.136a.091.091,0,0,0-.027.028s-.011.006-.006.01a.013.013,0,0,0,.011,0,.027.027,0,0,0,.011-.006l.037-.006c.015,0,.022-.025.022-.036S1027.764,1016.13,1027.749,1016.136Z" transform="translate(-1027.714 -1016.127)"/><g class="ak"><path class="y" d="M1028.376,1008.319c-.014.019-.026.032.01.025a.051.051,0,0,0,.036-.021.069.069,0,0,0,.01-.025l0,.053-.081.014-.008,0,.007-.009v-.008Z" transform="translate(-1028.346 -1008.31)"/></g></g><path class="al" d="M860.3,1059.377a.009.009,0,0,1,0-.017.183.183,0,0,1,.039-.014l.112-.028a.009.009,0,0,1,.009.013.085.085,0,0,1-.055.036A.793.793,0,0,1,860.3,1059.377Z" transform="translate(-859.932 -1059.129)"/><path class="al" d="M713.6,1067.681a.009.009,0,0,1-.011.01c-.008,0-.016-.005-.015-.013s.027-.031.027-.031A.183.183,0,0,0,713.6,1067.681Z" transform="translate(-713.458 -1067.444)"/></g><g transform="translate(470.143 27.152)"><g transform="translate(0 6.935)"><path class="m" d="M414.361,821.46c-5.361,2.353-13.336-2.615-12.29-9.152s5.753-6.014,3.922-12.29,3.138-15.82,6.8-6.537,2.669,11.693,7.06,11.506C426,804.724,419.722,819.106,414.361,821.46Z" transform="translate(-401.977 -789.612)"/><g transform="translate(3.427 3.247)"><g transform="translate(3.432)"><path class="n" d="M466.014,819.923c.76,2.777,1.574,5.538,2.308,8.325s1.408,5.592,1.971,8.424a81.692,81.692,0,0,1,1.683,17.269l-1.306-.054a80.727,80.727,0,0,0-1.02-17.1c-.452-2.835-1.015-5.655-1.645-8.461S466.669,822.727,466.014,819.923Z" transform="translate(-466.014 -819.923)"/></g><g transform="translate(0 19.874)"><path class="n" d="M442.2,1012.431a25.769,25.769,0,0,0-1.556-2.258,11.966,11.966,0,0,0-1.911-1.94,16.419,16.419,0,0,0-2.294-1.516c-.8-.45-1.633-.863-2.465-1.266.855.353,1.706.717,2.541,1.121a16.676,16.676,0,0,1,2.416,1.4,12.381,12.381,0,0,1,2.089,1.885,26.306,26.306,0,0,1,1.725,2.211Z" transform="translate(-433.974 -1005.451)"/></g><g transform="translate(8.009 13.918)"><path class="n" d="M515.563,949.856a16.57,16.57,0,0,0-2.056,1.792,14.625,14.625,0,0,0-1.682,2.127,36.042,36.042,0,0,0-2.5,4.827l-.588-.287a36.467,36.467,0,0,1,2.819-4.728,14.857,14.857,0,0,1,1.836-2.056A16.66,16.66,0,0,1,515.563,949.856Z" transform="translate(-508.737 -949.856)"/></g><g transform="translate(5.704 5.036)"><path class="n" d="M489.745,866.936c-.43.706-.812,1.438-1.179,2.176s-.712,1.488-1.05,2.24l-.294-.143c.387-.732.784-1.458,1.2-2.175S489.27,867.612,489.745,866.936Z" transform="translate(-487.223 -866.936)"/></g><g transform="translate(1.497 12.415)"><path class="n" d="M453.455,939.683a11.8,11.8,0,0,0-2.315-2.564,6.323,6.323,0,0,0-1.5-.857,7.434,7.434,0,0,0-1.689-.444,7.494,7.494,0,0,1,1.728.337,6.5,6.5,0,0,1,1.6.778,12.127,12.127,0,0,1,2.546,2.473Z" transform="translate(-447.949 -935.818)"/></g></g></g><g transform="translate(24.418 21.427)"><path class="p" d="M642.483,938.82c-1.612,2.948-7.84,7.123-10.676,2.6-3.533-5.632-1.478-10.629,1.14-12.946,2.922-2.586,4.367,4.77,7.684-.276C646.482,919.3,647.154,930.277,642.483,938.82Z" transform="translate(-629.925 -924.896)"/><g transform="translate(0.459 5.86)"><g transform="translate(4.52)"><path class="n" d="M679.372,979.6c-.4,1.272-.823,2.54-1.167,3.824a26.124,26.124,0,0,0-.931,7.84,38.684,38.684,0,0,0,.349,3.932l-1.124-.028a36.784,36.784,0,0,1-.066-3.908,26.67,26.67,0,0,1,1.5-7.917C678.374,982.074,678.88,980.839,679.372,979.6Z" transform="translate(-676.408 -979.599)"/></g><g transform="translate(5.077 5.119)"><path class="n" d="M684.969,1027.39a23.869,23.869,0,0,1-2.7,10.448l-.664-.374a23.642,23.642,0,0,0,2.255-4.824A23.989,23.989,0,0,0,684.969,1027.39Z" transform="translate(-681.6 -1027.39)"/></g><g transform="translate(5.44 2.779)"><path class="n" d="M684.995,1009.008a13.511,13.511,0,0,1,1.162-1.218,7.6,7.6,0,0,1,1.367-.988,18.2,18.2,0,0,1,3.087-1.263,18.132,18.132,0,0,0-2.988,1.426,7.359,7.359,0,0,0-1.267,1.032,13.152,13.152,0,0,0-1.064,1.251Z" transform="translate(-684.995 -1005.539)"/></g><g transform="translate(7.877 6.535)"><path class="n" d="M707.739,1042.538a5.226,5.226,0,0,1,1.424-1.232,10.3,10.3,0,0,1,1.734-.7,10.256,10.256,0,0,0-1.679.795,5.068,5.068,0,0,0-1.314,1.275Z" transform="translate(-707.739 -1040.603)"/></g><g transform="translate(0 5.033)"><path class="n" d="M634.208,1026.585a7.764,7.764,0,0,1,1.523,1.114c.471.421.919.866,1.354,1.324s.852.934,1.255,1.424a14.829,14.829,0,0,1,1.134,1.549l-.475.264a14.416,14.416,0,0,0-.983-1.567c-.36-.509-.738-1.008-1.134-1.491s-.808-.956-1.244-1.405A7.687,7.687,0,0,0,634.208,1026.585Z" transform="translate(-634.208 -1026.585)"/></g><g transform="translate(5.947 8.12)"><path class="n" d="M689.725,1055.4a2.665,2.665,0,0,1,.511.435c.156.162.3.332.445.506a7.766,7.766,0,0,1,.774,1.113l-.172.083a7.659,7.659,0,0,0-.678-1.138c-.128-.182-.262-.36-.4-.531A2.662,2.662,0,0,0,689.725,1055.4Z" transform="translate(-689.725 -1055.399)"/></g><g transform="translate(3.076 0.278)"><path class="n" d="M662.923,982.195a12.382,12.382,0,0,1,1.75,1.54,12.765,12.765,0,0,1,1.458,1.836l-.225.136a12.566,12.566,0,0,0-1.331-1.884A12.328,12.328,0,0,0,662.923,982.195Z" transform="translate(-662.923 -982.195)"/></g></g></g><g transform="translate(14.865)"><path class="o" d="M555.058,754.987c-1.323,5.292-12.5,16.813-13.965,5.292-2.058-16.17,5.88-14.259,3.234-29.4-1.268-7.253,6.027-9.555,8.673,2.352S556.381,749.695,555.058,754.987Z" transform="translate(-540.748 -724.87)"/><g transform="translate(2.02 6.93)"><g transform="translate(2.706)"><path class="n" d="M590.1,789.56c-.575,3.083-1.2,6.158-1.746,9.244s-1.037,6.181-1.423,9.287a106.6,106.6,0,0,0-.787,18.689l-1.265.05A107.537,107.537,0,0,1,586.3,808c.493-3.1,1.086-6.19,1.74-9.259S589.42,792.622,590.1,789.56Z" transform="translate(-584.86 -789.56)"/></g><g transform="translate(3.528 17.181)"><path class="n" d="M592.532,957.139c.445-.771.907-1.537,1.424-2.271a12.269,12.269,0,0,1,1.761-2.036,14.086,14.086,0,0,1,2.149-1.593c.757-.466,1.537-.886,2.323-1.293-.76.453-1.514.919-2.236,1.426a13.847,13.847,0,0,0-2.015,1.688,17.1,17.1,0,0,0-2.848,4.379Z" transform="translate(-592.532 -949.946)"/></g><g transform="translate(2.014 13.437)"><path class="n" d="M578.4,915a41.013,41.013,0,0,1,2.715,5.245l-.589.231A40.738,40.738,0,0,0,578.4,915Z" transform="translate(-578.403 -915.002)"/></g><g transform="translate(0 22.45)"><path class="n" d="M559.6,999.141c.665,1.223,1.4,2.406,2.036,3.651s1.218,2.516,1.778,3.794l-.589.231c-.46-1.31-.933-2.614-1.475-3.89S560.172,1000.411,559.6,999.141Z" transform="translate(-559.601 -999.141)"/></g><g transform="translate(3.531 1.856)"><path class="n" d="M592.56,806.882a16.6,16.6,0,0,1,1.768,2.412,20.416,20.416,0,0,1,1.379,2.668l-.295.116a20.2,20.2,0,0,0-1.221-2.7A16.521,16.521,0,0,0,592.56,806.882Z" transform="translate(-592.56 -806.882)"/></g><g transform="translate(4.97 9.893)"><path class="n" d="M606,885.826a10.968,10.968,0,0,1,2.177-2.5,6.916,6.916,0,0,1,2.95-1.413,6.8,6.8,0,0,0-2.8,1.581,10.638,10.638,0,0,0-1.945,2.559Z" transform="translate(-606.001 -881.917)"/></g></g></g></g><g transform="translate(508.448 4.583)"><path class="am" d="M1333.773,909.88V888.922l-23.386-13.75L1287,888.922v52.185l33.419,2.863,28.267-1.056V918.465l-14.9-8.587Z" transform="translate(-1257.191 -873.772)"/><path class="an" d="M1131.773,888.922l-23.386-13.75L1085,888.922V939.14l60.742,4.938.673-25.613-14.642-8.507Z" transform="translate(-1082.577 -873.772)"/><path class="ao" d="M1121.905,883.212l-13.694-8.039-23.422,13.75v2.864l24.863-14.386,21.98,12.588V892.6l27.388-.168v-3.512l-23.422-13.75Z" transform="translate(-1082.395 -873.772)"/><g transform="translate(25.797 0)"><path class="ap" d="M1257.405,864.844c2.41,3.149,23.775,16.8,24.475,17.32h27.357l1.229-2.073-25.7-15.248Z" transform="translate(-1257.405 -864.844)"/></g><g transform="translate(47.532 15.248)"><path class="c" d="M1420.466,979.385h27.358l1.229-2.073-31.327.009A19.607,19.607,0,0,1,1420.466,979.385Z" transform="translate(-1417.726 -977.312)"/></g><g transform="translate(0 0)"><path class="c" d="M1067.127,880.091l1.226,2.075,24.568-14.521,24.478,14.52,1.229-2.073-25.7-15.248Z" transform="translate(-1067.127 -864.844)"/></g><g transform="translate(49.12 35.232)"><path class="ap" d="M1456.857,1124.718h-27.419v.1c1.876,2.133,15.078,10.4,15.518,10.72l27.5-1.355-15.511-9.461Z" transform="translate(-1429.438 -1124.718)"/></g><g transform="translate(64.589 44.693)"><path class="c" d="M1543.587,1195.859h27.5V1194.5l-27.453.08A3.483,3.483,0,0,0,1543.587,1195.859Z" transform="translate(-1543.539 -1194.503)"/></g><g transform="translate(49.12 35.279)"><path class="c" d="M1429.438,1126.812l15.518,9.02.783-1.294-16.3-9.475Z" transform="translate(-1429.438 -1125.063)"/></g><g transform="translate(46.653 1.743)"><path class="an" d="M1414.7,885.66l2.844,1.615,1.628-4.716H1414.7Z" transform="translate(-1414.232 -881.901)"/><rect class="am" width="4.471" height="4.716" transform="translate(3.312 0.659)"/><path class="aq" d="M1414.7,883.926l2.844.075,4.509,2.6v-3.658H1414.7Z" transform="translate(-1414.232 -882.228)"/><rect class="an" width="5.408" height="1.104"/><rect class="am" width="5.408" height="1.104" transform="translate(2.87)"/></g><g transform="translate(12.946 22.158)"><rect class="am" width="7.333" height="11.973"/><rect class="ar" width="5.986" height="11.973" transform="translate(1.347)"/><rect class="as" width="4.789" height="1.846" transform="translate(2.544 1.172)"/><rect class="as" width="4.789" height="7.907" transform="translate(2.544 4.066)"/></g><g transform="translate(30.636 22.158)"><rect class="am" width="7.333" height="11.973"/><rect class="ar" width="5.986" height="11.973" transform="translate(1.347)"/><rect class="as" width="4.789" height="1.846" transform="translate(2.544 1.172)"/><rect class="as" width="4.789" height="7.907" transform="translate(2.544 4.066)"/></g><g transform="translate(9.196 44.254)"><rect class="am" width="7.333" height="11.973"/><rect class="ar" width="5.986" height="11.973" transform="translate(1.347)"/><rect class="as" width="4.789" height="1.846" transform="translate(2.544 1.172)"/><rect class="as" width="4.789" height="7.907" transform="translate(2.544 4.066)"/></g><g transform="translate(34.386 44.254)"><rect class="am" width="7.333" height="11.973"/><rect class="ar" width="5.986" height="11.973" transform="translate(1.347)"/><rect class="as" width="4.789" height="1.846" transform="translate(2.544 1.172)"/><rect class="as" width="4.789" height="7.907" transform="translate(2.544 4.066)"/></g><rect class="at" width="7.333" height="6.51" transform="translate(67.92 49.791)"/><rect class="ar" width="5.986" height="6.51" transform="translate(67.92 49.791)"/><rect class="as" width="4.789" height="1.846" transform="translate(67.92 50.964)"/><rect class="as" width="4.789" height="2.444" transform="translate(67.92 53.857)"/><rect class="at" width="7.333" height="6.51" transform="translate(81.24 49.791)"/><rect class="ar" width="5.986" height="6.51" transform="translate(81.24 49.791)"/><rect class="as" width="4.789" height="1.846" transform="translate(81.24 50.964)"/><rect class="as" width="4.789" height="2.444" transform="translate(81.24 53.857)"/></g><g transform="translate(561.431 64.417)"><path class="o" d="M1265.2,1005.834c-.916,1.675-4.453,4.045-6.063,1.478-2.006-3.2-.839-6.037.647-7.353,1.66-1.469,2.48,2.709,4.364-.157C1267.469,994.748,1267.851,1000.982,1265.2,1005.834Z" transform="translate(-1258.065 -997.926)"/><g transform="translate(0.261 3.328)"><g transform="translate(2.569)"><path class="n" d="M1281.431,1023.432c-.23.722-.467,1.443-.663,2.172a14.835,14.835,0,0,0-.529,4.453,21.946,21.946,0,0,0,.2,2.233l-.633.068a22.414,22.414,0,0,1-.043-2.3,15.148,15.148,0,0,1,.854-4.5C1280.864,1024.838,1281.151,1024.136,1281.431,1023.432Z" transform="translate(-1279.748 -1023.432)"/></g><g transform="translate(2.883 2.908)"><path class="n" d="M1284.073,1045.715a13.554,13.554,0,0,1-1.536,5.934l-.377-.212a13.434,13.434,0,0,0,1.281-2.74A13.62,13.62,0,0,0,1284.073,1045.715Z" transform="translate(-1282.159 -1045.715)"/></g><g transform="translate(3.09 1.578)"><path class="n" d="M1283.742,1037.5a7.685,7.685,0,0,1,.66-.692,4.325,4.325,0,0,1,.776-.561,10.326,10.326,0,0,1,1.753-.717,10.3,10.3,0,0,0-1.7.81,4.18,4.18,0,0,0-.72.586,7.456,7.456,0,0,0-.6.711Z" transform="translate(-1283.742 -1035.527)"/></g><g transform="translate(4.474 3.711)"><path class="n" d="M1294.347,1052.974a2.967,2.967,0,0,1,.809-.7,5.838,5.838,0,0,1,.985-.4,5.823,5.823,0,0,0-.954.451,2.882,2.882,0,0,0-.746.724Z" transform="translate(-1294.347 -1051.875)"/></g><g transform="translate(0 2.858)"><path class="n" d="M1260.062,1045.339a4.406,4.406,0,0,1,.865.633c.268.239.522.492.769.752s.484.53.713.809a8.448,8.448,0,0,1,.644.88l-.27.15a8.207,8.207,0,0,0-.558-.89c-.2-.289-.419-.572-.644-.847s-.459-.543-.707-.8A4.37,4.37,0,0,0,1260.062,1045.339Z" transform="translate(-1260.062 -1045.339)"/></g><g transform="translate(3.378 4.612)"><path class="n" d="M1285.948,1058.774a1.532,1.532,0,0,1,.29.247c.088.092.172.188.253.287a4.429,4.429,0,0,1,.44.632l-.1.047a4.362,4.362,0,0,0-.385-.646c-.073-.1-.149-.2-.23-.3A1.507,1.507,0,0,0,1285.948,1058.774Z" transform="translate(-1285.948 -1058.774)"/></g><g transform="translate(1.747 0.158)"><path class="n" d="M1273.451,1024.642a7.027,7.027,0,0,1,.994.875,7.223,7.223,0,0,1,.828,1.042l-.128.077a7.106,7.106,0,0,0-.756-1.07A7,7,0,0,0,1273.451,1024.642Z" transform="translate(-1273.451 -1024.642)"/></g></g></g><g transform="translate(582.268 63.084)"><g transform="translate(6.066 1.09)"><path class="m" d="M2085.814,951.739c-1.11-.2-1.952-1.45-2.169-2.909s-.066-2.817.786-2.092,1.245-.32,1.014-1.154.374-6.159,1.338-4.912-.019.939,1.247-.425,3.873-1.692,2.714.506-2.93,3.982-1.8,3.454,2.855-.33,1.715.929-2.908,2.938-2.041,2.934,3.982-.962,1.46,1.244S2085.814,951.739,2085.814,951.739Z" transform="translate(-2083.556 -939.164)"/><g transform="translate(0.756 1.074)"><g transform="translate(1.353)"><path class="n" d="M2115.556,953.431a25.189,25.189,0,0,0-1.579,2.643,19.843,19.843,0,0,0-1.219,2.818,15.119,15.119,0,0,0-.665,2.987,23.037,23.037,0,0,0-.224,3.051l-.3,0a23.253,23.253,0,0,1,.3-3.087,15.357,15.357,0,0,1,.746-3,19.964,19.964,0,0,1,1.295-2.8A25.21,25.21,0,0,1,2115.556,953.431Z" transform="translate(-2111.57 -953.431)"/></g><g transform="translate(2.083 1.793)"><path class="n" d="M2121.771,980.34a7.837,7.837,0,0,0-.123-1.563,10.407,10.407,0,0,0-.378-1.532,10.382,10.382,0,0,1,.446,1.519,7.931,7.931,0,0,1,.193,1.579Z" transform="translate(-2121.271 -977.244)"/></g><g transform="translate(0 8.341)"><path class="n" d="M2095.043,1065.752a2.66,2.66,0,0,0-.26-.452,3.547,3.547,0,0,0-.337-.415,3.878,3.878,0,0,0-.846-.672,3.948,3.948,0,0,1,.925.589,3.669,3.669,0,0,1,.395.392,2.851,2.851,0,0,1,.333.461Z" transform="translate(-2093.6 -1064.213)"/></g><g transform="translate(1.611 7.24)"><path class="n" d="M2115,1051.059c.317-.286.645-.55.986-.8a7.276,7.276,0,0,1,1.075-.665,7.188,7.188,0,0,0-1,.755c-.312.277-.614.57-.895.873Z" transform="translate(-2115.002 -1049.593)"/></g><g transform="translate(2.056 5.012)"><path class="n" d="M2120.915,1021.653a8.874,8.874,0,0,1,1.256-.975,5.558,5.558,0,0,1,1.429-.672,5.509,5.509,0,0,0-1.377.748,8.731,8.731,0,0,0-1.176,1.027Z" transform="translate(-2120.915 -1020.006)"/></g></g></g><path class="o" d="M2008.31,938.071c1.187-.218,2.147-1.541,2.46-3.087s.229-2.983-.714-2.212-1.321-.343-1.009-1.218c.8-2.247-.049-6.519-1.141-5.2s-.9.261-1.3-.446c-.93-1.675-4.005-1.78-2.9.544s2.877,4.207,1.716,3.651-3-.34-1.867.989,2.913,3.1,2,3.1-4.161-1.007-1.616,1.321S2008.31,938.071,2008.31,938.071Z" transform="translate(-2002.982 -924.68)"/><g transform="translate(1.913 1.227)"><path class="n" d="M2028.393,940.977a24.791,24.791,0,0,1,1.6,2.788,19.774,19.774,0,0,1,1.208,2.986,15.8,15.8,0,0,1,.606,3.169,24.258,24.258,0,0,1,.138,3.23l-.282-.017a24.114,24.114,0,0,0-.066-3.193,15.644,15.644,0,0,0-.531-3.149,19.716,19.716,0,0,0-1.136-3A24.764,24.764,0,0,0,2028.393,940.977Z" transform="translate(-2028.393 -940.977)"/><g transform="translate(3.365 8.402)"><path class="n" d="M2073.083,1054.51a8.284,8.284,0,0,1,.884-1.061,6.3,6.3,0,0,1,1.052-.875,6.249,6.249,0,0,0-.969.951,8.147,8.147,0,0,0-.775,1.1Z" transform="translate(-2073.083 -1052.574)"/></g><g transform="translate(1.417 8.172)"><path class="n" d="M2049.1,1050.719a8.191,8.191,0,0,0-.888-.679,4.834,4.834,0,0,0-1-.517,4.869,4.869,0,0,1,1.048.432,8.3,8.3,0,0,1,.964.612Z" transform="translate(-2047.212 -1049.524)"/></g><g transform="translate(0.398 5.28)"><path class="n" d="M2036.3,1013.045a8.588,8.588,0,0,0-1.194-1.13,5.208,5.208,0,0,0-1.433-.813,5.245,5.245,0,0,1,1.483.744,8.681,8.681,0,0,1,1.271,1.086Z" transform="translate(-2033.676 -1011.103)"/></g></g><g transform="translate(4.317 2.716)"><path class="n" d="M2061.187,960.751a14.931,14.931,0,0,1-.309,1.749q-.2.867-.444,1.722l-.108-.033q.271-.843.5-1.7A14.969,14.969,0,0,0,2061.187,960.751Z" transform="translate(-2060.326 -960.751)"/></g></g><g transform="translate(529.053 49.93)"><path class="am" d="M-.079,0h8.4l0,22.2L-.1,21.5Z" transform="translate(0.1)"/><path class="c" d="M-.054,0H6.8L6.793,22.2-.068,21.62Z" transform="translate(1.617)"/><rect class="ar" width="5.141" height="7.112" transform="translate(2.507 1.628)"/><rect class="as" width="4.199" height="2.485" transform="translate(3.449 1.628)"/><rect class="as" width="4.199" height="3.256" transform="translate(3.449 5.484)"/></g></g></g></g></svg>